<svg width="48" height="48" viewBox="0 0 48 48" fill="none" xmlns="http://www.w3.org/2000/svg">
<g clip-path="url(#clip0_1666_3694)">
<mask id="mask0_1666_3694" style="mask-type:luminance" maskUnits="userSpaceOnUse" x="0" y="0" width="48" height="48">
<path d="M48 0H0V48H48V0Z" fill="white"/>
</mask>
<g mask="url(#mask0_1666_3694)">
<path d="M24 47.28C36.8572 47.28 47.28 36.8572 47.28 24C47.28 11.1428 36.8572 0.719971 24 0.719971C11.1428 0.719971 0.719971 11.1428 0.719971 24C0.719971 36.8572 11.1428 47.28 24 47.28Z" fill="url(#paint0_linear_1666_3694)"/>
<path d="M34.188 33.276L26.316 14.244C25.872 13.26 25.212 12.78 24.342 12.78H23.646C22.776 12.78 22.116 13.26 21.672 14.244L18.246 22.536H15.654C14.88 22.542 14.25 23.166 14.244 23.946V23.964C14.25 24.738 14.88 25.368 15.654 25.374H17.046L13.776 33.276C13.716 33.45 13.68 33.63 13.68 33.816C13.68 34.26 13.818 34.608 14.064 34.878C14.31 35.148 14.664 35.28 15.108 35.28C15.402 35.274 15.684 35.184 15.918 35.01C16.17 34.836 16.344 34.584 16.482 34.296L20.082 25.368H22.578C23.352 25.362 23.982 24.738 23.988 23.958V23.922C23.982 23.148 23.352 22.518 22.578 22.512H21.246L23.994 15.666L31.482 34.29C31.62 34.578 31.794 34.83 32.046 35.004C32.28 35.178 32.568 35.268 32.856 35.274C33.3 35.274 33.648 35.142 33.9 34.872C34.152 34.602 34.284 34.254 34.284 33.81C34.29 33.63 34.26 33.444 34.188 33.276Z" fill="white"/>
</g>
</g>
<defs>
<linearGradient id="paint0_linear_1666_3694" x1="41.3598" y1="9.39779" x2="6.7192" y2="38.5397" gradientUnits="userSpaceOnUse">
<stop stop-color="#B6509E"/>
<stop offset="1" stop-color="#2EBAC6"/>
</linearGradient>
<clipPath id="clip0_1666_3694">
<rect width="48" height="48" fill="white"/>
</clipPath>
</defs>
</svg>
