<svg width="24" height="24" viewBox="0 0 24 24" fill="none" xmlns="http://www.w3.org/2000/svg">
<path d="M6.11666 0.912835C6.6659 0.357771 7.41315 0.0436247 8.19401 0.0395077L15.6797 4.09779e-05C16.4605 -0.00407598 17.211 0.302172 17.7661 0.851415L23.0872 6.11666C23.6422 6.6659 23.9564 7.41315 23.9605 8.19401L24 15.6797C24.0041 16.4605 23.6978 17.211 23.1486 17.7661L17.8833 23.0872C17.3341 23.6422 16.5869 23.9564 15.806 23.9605L8.32034 24C7.53948 24.0041 6.78896 23.6978 6.23389 23.1486L0.912835 17.8833C0.357771 17.3341 0.0436247 16.5869 0.0395077 15.806L4.09779e-05 8.32034C-0.00407598 7.53948 0.302172 6.78896 0.851415 6.23389L6.11666 0.912835Z" fill="#394A46"/>
<path d="M15.1944 16.5523C15.3353 16.6249 15.3144 16.8109 15.1806 16.8959C12.6459 18.5072 13.9457 21.2029 11.6173 22.1078C11.5444 22.1361 11.4594 22.1238 11.3999 22.0731C10.2406 21.0856 10.401 19.1053 11.4273 17.8775C13.0162 16.1158 14.5035 16.1961 15.1944 16.5523Z" fill="#F0C9DC"/>
<path d="M16.3116 17.5138C16.2637 17.4476 16.1783 17.419 16.0981 17.4353C13.6066 17.9435 14.5852 20.3722 12.7028 22.335C12.5893 22.4533 12.6186 22.6477 12.7786 22.6846C13.4637 22.843 14.684 22.693 15.8553 21.194C17.1598 19.5245 16.7427 18.1099 16.3116 17.5138Z" fill="#F0C9DC"/>
<path d="M10.077 18.9852C9.81461 20.0689 10.0926 21.1028 10.2644 21.4842C8.70879 21.3347 7.21878 19.9895 7.21875 18.9852C7.24218 18.448 9.16331 18.2612 10.077 18.9852Z" fill="#F0C9DC"/>
<path d="M10.3119 18.2845C9.74792 17.8453 8.2141 17.6539 7.46809 17.9239C7.40433 17.9469 7.33268 17.9052 7.34003 17.838C7.44784 16.8518 9.15632 15.1719 12.2799 16.4395C11.3896 16.7898 10.6164 17.724 10.3119 18.2845Z" fill="#F0C9DC"/>
<path d="M16.2902 6.22465C16.1441 4.85673 14.9605 4.40774 13.4711 4.2896L13.4505 2.39062L12.2977 2.40049L12.3178 4.24942C12.011 4.25306 11.7043 4.2597 11.3976 4.26932L11.3777 2.40815L10.2252 2.41794L10.2456 4.3163C9.9961 4.32352 9.75105 4.33024 9.51206 4.33242L9.51185 4.32653L7.92188 4.33943L7.93552 5.57396C7.93552 5.57396 8.78663 5.55049 8.77265 5.56632C9.23959 5.56252 9.3945 5.83304 9.44124 6.06722L9.46473 8.23055C9.49695 8.23046 9.53908 8.23176 9.58666 8.23758L9.46489 8.23877L9.49736 11.2694C9.47846 11.4169 9.39462 11.6526 9.06808 11.656C9.08328 11.6689 8.23041 11.6628 8.23041 11.6628L8.01636 13.0454L9.51662 13.033C9.79572 13.0307 10.0705 13.0331 10.3401 13.0325L10.3614 14.9531L11.5129 14.9436L11.492 13.0431C11.8083 13.0472 12.1142 13.0469 12.413 13.0444L12.433 14.9359L13.5854 14.9261L13.5654 13.0089C15.5022 12.881 16.8534 12.3799 17.0022 10.5539C17.1223 9.08336 16.4259 8.43352 15.3228 8.17762C15.9874 7.8304 16.3987 7.2256 16.2902 6.22465ZM14.7214 10.3447C14.7375 11.78 12.2849 11.6378 11.5035 11.6448L11.4763 9.10016C12.2579 9.09405 14.7054 8.84803 14.7214 10.3447ZM14.1466 6.75971C14.1603 8.06521 12.1145 7.93011 11.4638 7.93567L11.4389 5.62776C12.0897 5.62221 14.1317 5.39773 14.1466 6.75971Z" fill="#F0C9DC"/>
</svg>
