<svg width="64" height="64" viewBox="0 0 64 64" fill="none" xmlns="http://www.w3.org/2000/svg">
<g clip-path="url(#clip0_1666_3690)">
<path d="M32 64C49.6736 64 64 49.6736 64 32C64 14.3264 49.6736 0 32 0C14.3264 0 0 14.3264 0 32C0 49.6736 14.3264 64 32 64Z" fill="#070A0E"/>
<path fill-rule="evenodd" clip-rule="evenodd" d="M18.4864 42.7295C17.5296 42.1439 16.944 41.1039 16.944 39.9839V33.7311C16.944 32.9887 17.5488 32.3871 18.2912 32.3903C18.528 32.3903 18.7616 32.4543 18.9664 32.5727L33.0752 40.7999C33.9008 41.2799 34.4096 42.1631 34.4096 43.1199V49.5967C34.4128 50.4863 33.6928 51.2095 32.8032 51.2095C32.5056 51.2095 32.2112 51.1263 31.9584 50.9727L18.4864 42.7295ZM39.5168 30.8607C40.3424 31.3407 40.848 32.2271 40.8512 33.1807V46.3263C40.8512 46.7135 40.6432 47.0719 40.304 47.2607L37.216 48.9983C37.1776 49.0207 37.136 49.0367 37.0912 49.0495V41.7503C37.0912 40.8063 36.5952 39.9295 35.7824 39.4431L23.392 32.0319V23.7919C23.392 23.0495 23.9968 22.4479 24.7392 22.4511C24.976 22.4511 25.2096 22.5151 25.4144 22.6335L39.5168 30.8607ZM45.6928 21.1519C46.5216 21.6319 47.0304 22.5183 47.0304 23.4751V42.6751C47.0272 43.0687 46.8096 43.4303 46.464 43.6191L43.536 45.1999V31.8335C43.536 30.8895 43.04 30.0159 42.2336 29.5295L29.568 21.9327V14.1183C29.568 13.8815 29.632 13.6479 29.7472 13.4431C30.1216 12.8031 30.944 12.5855 31.584 12.9567L45.6928 21.1519Z" fill="#00D395"/>
</g>
<defs>
<clipPath id="clip0_1666_3690">
<rect width="64" height="64" fill="white"/>
</clipPath>
</defs>
</svg>
