<svg width="36" height="36" viewBox="0 0 36 36" fill="none" xmlns="http://www.w3.org/2000/svg">
<rect width="36" height="36" rx="18" fill="#EF2A89" fill-opacity="0.12"/>
<path d="M17.9999 6.75C16.1844 6.74959 14.4195 7.34803 12.9787 8.45256C11.5379 9.55709 10.5017 11.106 10.0306 12.8593C9.55955 14.6126 9.67995 16.4723 10.3732 18.1502C11.0664 19.8281 12.2937 21.2305 13.8649 22.14C14.5509 22.538 14.9799 23.148 14.9989 23.763C15.0041 23.9277 15.0635 24.0861 15.1678 24.2138C15.2721 24.3414 15.4155 24.4311 15.5759 24.469C15.9279 24.552 16.2859 24.617 16.6499 24.664C16.9729 24.705 17.2499 24.446 17.2499 24.12V19.459C16.9339 19.4243 16.6208 19.3671 16.3129 19.288C16.2175 19.2634 16.1279 19.2203 16.0491 19.1611C15.9704 19.1019 15.9041 19.0278 15.854 18.943C15.8039 18.8582 15.771 18.7643 15.7571 18.6668C15.7433 18.5692 15.7488 18.4699 15.7734 18.3745C15.798 18.2791 15.8411 18.1895 15.9003 18.1107C15.9595 18.032 16.0336 17.9657 16.1184 17.9156C16.2032 17.8655 16.2971 17.8326 16.3946 17.8187C16.4922 17.8049 16.5915 17.8104 16.6869 17.835C17.5482 18.057 18.4516 18.057 19.3129 17.835C19.4093 17.8072 19.5102 17.7991 19.6098 17.811C19.7094 17.8229 19.8055 17.8547 19.8926 17.9045C19.9797 17.9542 20.0559 18.0209 20.1168 18.1007C20.1776 18.1804 20.2218 18.2715 20.2469 18.3686C20.2719 18.4657 20.2772 18.5669 20.2624 18.6661C20.2476 18.7653 20.2131 18.8605 20.1609 18.9461C20.1087 19.0317 20.0399 19.106 19.9584 19.1646C19.877 19.2231 19.7847 19.2648 19.6869 19.287C19.379 19.3665 19.0659 19.4239 18.7499 19.459V24.119C18.7499 24.446 19.0269 24.705 19.3499 24.664C19.7139 24.617 20.0719 24.552 20.4239 24.469C20.5843 24.4311 20.7277 24.3414 20.832 24.2138C20.9363 24.0861 20.9957 23.9277 21.0009 23.763C21.0209 23.148 21.4489 22.538 22.1349 22.14C23.7061 21.2305 24.9334 19.8281 25.6266 18.1502C26.3199 16.4723 26.4403 14.6126 25.9692 12.8593C25.4981 11.106 24.4619 9.55709 23.0211 8.45256C21.5803 7.34803 19.8154 6.74959 17.9999 6.75Z" fill="#EF2A89"/>
<path fill-rule="evenodd" clip-rule="evenodd" d="M15.013 25.8999C15.0314 25.8031 15.0686 25.7109 15.1227 25.6285C15.1767 25.5461 15.2464 25.4752 15.3278 25.4197C15.4093 25.3643 15.5009 25.3255 15.5973 25.3054C15.6938 25.2854 15.7932 25.2845 15.89 25.3029C17.2843 25.5675 18.7158 25.5675 20.11 25.3029C20.208 25.2814 20.3093 25.2797 20.4079 25.298C20.5066 25.3162 20.6005 25.3541 20.6843 25.4093C20.768 25.4646 20.8398 25.536 20.8954 25.6195C20.951 25.703 20.9894 25.7968 21.0081 25.8953C21.0268 25.9939 21.0256 26.0952 21.0045 26.1933C20.9834 26.2913 20.9428 26.3842 20.8852 26.4663C20.8275 26.5484 20.754 26.6181 20.669 26.6713C20.5839 26.7245 20.4891 26.7601 20.39 26.7759C18.8108 27.0756 17.1893 27.0756 15.61 26.7759C15.4148 26.7388 15.2422 26.6257 15.1302 26.4615C15.0183 26.2972 14.9761 26.0953 15.013 25.8999ZM15.754 28.3439C15.7643 28.246 15.7937 28.151 15.8406 28.0644C15.8876 27.9778 15.9511 27.9013 16.0277 27.8393C16.1042 27.7772 16.1922 27.7309 16.2866 27.7029C16.381 27.6748 16.4801 27.6657 16.578 27.6759C17.5235 27.7747 18.4766 27.7747 19.422 27.6759C19.6199 27.6553 19.8178 27.714 19.9724 27.8393C20.1269 27.9646 20.2253 28.1461 20.246 28.3439C20.2667 28.5418 20.208 28.7398 20.0827 28.8943C19.9574 29.0488 19.7759 29.1473 19.578 29.1679C18.5289 29.2778 17.4712 29.2778 16.422 29.1679C16.3241 29.1577 16.2291 29.1283 16.1425 29.0813C16.0559 29.0344 15.9794 28.9708 15.9174 28.8943C15.8553 28.8178 15.809 28.7298 15.7809 28.6354C15.7529 28.5409 15.7438 28.4419 15.754 28.3439Z" fill="#EF2A89"/>
</svg>
