<svg width="27" height="26" viewBox="0 0 27 26" fill="none" xmlns="http://www.w3.org/2000/svg">
<path d="M13.5 9V17M17.5 13H9.5M25.5 13C25.5 14.5759 25.1896 16.1363 24.5866 17.5922C23.9835 19.0481 23.0996 20.371 21.9853 21.4853C20.871 22.5996 19.5481 23.4835 18.0922 24.0866C16.6363 24.6896 15.0759 25 13.5 25C11.9241 25 10.3637 24.6896 8.9078 24.0866C7.45189 23.4835 6.12902 22.5996 5.01472 21.4853C3.90042 20.371 3.0165 19.0481 2.41345 17.5922C1.81039 16.1363 1.5 14.5759 1.5 13C1.5 9.8174 2.76428 6.76516 5.01472 4.51472C7.26516 2.26428 10.3174 1 13.5 1C16.6826 1 19.7348 2.26428 21.9853 4.51472C24.2357 6.76516 25.5 9.8174 25.5 13Z" stroke="#EF2A89" stroke-width="1.5" stroke-linecap="round" stroke-linejoin="round"/>
</svg>
