<svg width="40" height="40" viewBox="0 0 40 40" fill="none" xmlns="http://www.w3.org/2000/svg">
<path d="M20.5 16V24M24.5 20H16.5M32.5 20C32.5 21.5759 32.1896 23.1363 31.5866 24.5922C30.9835 26.0481 30.0996 27.371 28.9853 28.4853C27.871 29.5996 26.5481 30.4835 25.0922 31.0866C23.6363 31.6896 22.0759 32 20.5 32C18.9241 32 17.3637 31.6896 15.9078 31.0866C14.4519 30.4835 13.129 29.5996 12.0147 28.4853C10.9004 27.371 10.0165 26.0481 9.41345 24.5922C8.81039 23.1363 8.5 21.5759 8.5 20C8.5 16.8174 9.76428 13.7652 12.0147 11.5147C14.2652 9.26428 17.3174 8 20.5 8C23.6826 8 26.7348 9.26428 28.9853 11.5147C31.2357 13.7652 32.5 16.8174 32.5 20Z" stroke="#EF2A89" stroke-width="1.5" stroke-linecap="round" stroke-linejoin="round"/>
</svg>
