<svg width="16" height="16" viewBox="0 0 16 16" fill="none" xmlns="http://www.w3.org/2000/svg">
<path d="M6.00016 9.99992L10.0002 5.99992M6.50016 6.49992H6.5055V6.50525H6.50016V6.49992ZM6.75016 6.49992C6.75016 6.56622 6.72382 6.62981 6.67694 6.6767C6.63006 6.72358 6.56647 6.74992 6.50016 6.74992C6.43386 6.74992 6.37027 6.72358 6.32339 6.6767C6.2765 6.62981 6.25016 6.56622 6.25016 6.49992C6.25016 6.43361 6.2765 6.37003 6.32339 6.32314C6.37027 6.27626 6.43386 6.24992 6.50016 6.24992C6.56647 6.24992 6.63006 6.27626 6.67694 6.32314C6.72382 6.37003 6.75016 6.43361 6.75016 6.49992ZM9.50016 9.49992H9.5055V9.50525H9.50016V9.49992ZM9.75016 9.49992C9.75016 9.56622 9.72382 9.62981 9.67694 9.6767C9.63006 9.72358 9.56647 9.74992 9.50016 9.74992C9.43386 9.74992 9.37027 9.72358 9.32339 9.6767C9.2765 9.62981 9.25016 9.56622 9.25016 9.49992C9.25016 9.43361 9.2765 9.37003 9.32339 9.32314C9.37027 9.27626 9.43386 9.24992 9.50016 9.24992C9.56647 9.24992 9.63006 9.27626 9.67694 9.32314C9.72382 9.37003 9.75016 9.43361 9.75016 9.49992ZM14.6668 7.99992C14.6668 11.6818 11.6821 14.6666 8.00016 14.6666C4.31826 14.6666 1.3335 11.6818 1.3335 7.99992C1.3335 4.31802 4.31826 1.33325 8.00016 1.33325C11.6821 1.33325 14.6668 4.31802 14.6668 7.99992Z" stroke="black" stroke-opacity="0.16" stroke-width="1.5" stroke-linecap="round" stroke-linejoin="round"/>
</svg>
