<svg width="20" height="14" viewBox="0 0 20 14" fill="none" xmlns="http://www.w3.org/2000/svg">
<path d="M16.25 6.99995C16.25 5.97328 16.2117 4.95578 16.135 3.94828C16.076 3.15007 15.7323 2.39961 15.1663 1.83365C14.6003 1.2677 13.8499 0.923913 13.0517 0.86495C11.0201 0.711683 8.97989 0.711683 6.94833 0.86495C6.15012 0.923913 5.39966 1.2677 4.8337 1.83365C4.26775 2.39961 3.92396 3.15007 3.865 3.94828C3.85083 4.13162 3.83833 4.31578 3.82667 4.49995M16.25 6.99995L18.75 4.49995M16.25 6.99995L13.75 4.49995M3.75 6.99995C3.75 8.02662 3.78833 9.04412 3.865 10.0516C3.92396 10.8498 4.26775 11.6003 4.8337 12.1662C5.39966 12.7322 6.15012 13.076 6.94833 13.1349C8.97989 13.2883 11.0201 13.2883 13.0517 13.1349C13.8499 13.076 14.6003 12.7322 15.1663 12.1662C15.7323 11.6003 16.076 10.8498 16.135 10.0516C16.1492 9.86828 16.1617 9.68412 16.1733 9.49995M3.75 6.99995L6.25 9.49995M3.75 6.99995L1.25 9.49995" stroke="black" stroke-width="1.5" stroke-linecap="round" stroke-linejoin="round"/>
</svg>
