<svg width="88" height="88" viewBox="0 0 88 88" fill="none" xmlns="http://www.w3.org/2000/svg">
<rect x="0.25" y="0.25" width="87.5" height="87.5" rx="43.75" fill="#1FB407" fill-opacity="0.12"/>
<path fill-rule="evenodd" clip-rule="evenodd" d="M37.206 27.598C38.0499 26.6245 39.0935 25.8439 40.2657 25.3094C41.438 24.7748 42.7116 24.4988 44 24.5C46.714 24.5 49.146 25.7 50.794 27.598C52.0794 27.5062 53.3695 27.6922 54.5766 28.1432C55.7838 28.5943 56.8797 29.2998 57.79 30.212C58.7018 31.1221 59.4072 32.2178 59.8582 33.4245C60.3092 34.6313 60.4954 35.9209 60.404 37.206C61.3772 38.0501 62.1574 39.0937 62.6916 40.266C63.2258 41.4383 63.5015 42.7118 63.5 44C63.5012 45.2884 63.2252 46.562 62.6906 47.7343C62.1561 48.9066 61.3756 49.9501 60.402 50.794C60.4934 52.0791 60.3072 53.3687 59.8562 54.5755C59.4052 55.7823 58.6998 56.8779 57.788 57.788C56.8779 58.6998 55.7823 59.4052 54.5755 59.8562C53.3687 60.3072 52.0791 60.4934 50.794 60.402C49.9501 61.3755 48.9066 62.1561 47.7343 62.6906C46.562 63.2252 45.2884 63.5012 44 63.5C42.7116 63.5012 41.438 63.2252 40.2657 62.6906C39.0935 62.1561 38.0499 61.3755 37.206 60.402C35.9208 60.494 34.6308 60.3084 33.4236 59.8577C32.2165 59.407 31.1205 58.7018 30.21 57.79C29.2979 56.8797 28.5924 55.7837 28.1414 54.5766C27.6904 53.3694 27.5044 52.0794 27.596 50.794C26.6228 49.9499 25.8427 48.9063 25.3085 47.734C24.7743 46.5617 24.4985 45.2883 24.5 44C24.5 41.286 25.7 38.854 27.598 37.206C27.5065 35.9209 27.6926 34.6312 28.1436 33.4244C28.5947 32.2177 29.3001 31.1221 30.212 30.212C31.1221 29.3001 32.2177 28.5947 33.4244 28.1436C34.6312 27.6926 35.9209 27.5065 37.206 27.598ZM51.22 40.372C51.34 40.2121 51.4268 40.0298 51.4754 39.8359C51.5239 39.642 51.5332 39.4403 51.5027 39.2427C51.4722 39.0451 51.4025 38.8557 51.2977 38.6854C51.1929 38.5151 51.0552 38.3676 50.8925 38.2513C50.7299 38.1351 50.5456 38.0525 50.3506 38.0085C50.1556 37.9644 49.9538 37.9598 49.757 37.9949C49.5601 38.03 49.3723 38.1041 49.2046 38.2128C49.0368 38.3215 48.8924 38.4627 48.78 38.628L42.308 47.688L39.06 44.44C38.7757 44.175 38.3996 44.0308 38.011 44.0377C37.6224 44.0445 37.2516 44.2019 36.9768 44.4768C36.7019 44.7516 36.5445 45.1224 36.5377 45.511C36.5308 45.8996 36.675 46.2757 36.94 46.56L41.44 51.06C41.594 51.2139 41.7796 51.3324 41.984 51.4073C42.1884 51.4822 42.4066 51.5118 42.6235 51.4939C42.8405 51.476 43.0509 51.4111 43.2403 51.3037C43.4296 51.1963 43.5933 51.049 43.72 50.872L51.22 40.372Z" fill="#1FB407"/>
<rect x="0.25" y="0.25" width="87.5" height="87.5" rx="43.75" stroke="white" stroke-width="0.5"/>
</svg>
