<svg width="156" height="156" viewBox="0 0 156 156" fill="none" xmlns="http://www.w3.org/2000/svg">
<g clip-path="url(#clip0_1352_3128)">
<path d="M76.8282 73.5847L90.3511 69.9612L76.8282 73.5847ZM77.734 76.9654L84.4955 75.1537L77.734 76.9654ZM59.9188 88.7257L93.7262 79.667C95.0712 79.3067 96.2179 78.4268 96.9141 77.2209C97.6103 76.0151 97.7989 74.5821 97.4386 73.2371L91.0975 49.5719C90.7371 48.227 89.8572 47.0803 88.6514 46.3841C87.4455 45.6879 86.0125 45.4993 84.6676 45.8596L50.8602 54.9183C49.5152 55.2787 48.3685 56.1586 47.6723 57.3644C46.9761 58.5703 46.7875 60.0033 47.1479 61.3482L53.4889 85.0134C53.8493 86.3583 54.7292 87.505 55.935 88.2012C57.1409 88.8974 58.5739 89.0861 59.9188 88.7257Z" fill="#F0C9DC"/>
<path d="M52.462 59.9256L57.2917 58.6315L62.1213 57.3374L63.6742 63.133L58.8446 64.4271L54.0149 65.7212L52.462 59.9256Z" fill="#F0C9DC"/>
<path d="M76.8282 73.5847L90.3511 69.9612M77.734 76.9654L84.4955 75.1537M76.3713 68.0131L75.8536 66.0813M80.8789 66.8053L80.3613 64.8735M85.3866 65.5975L84.8689 63.6656M89.8942 64.3897L89.3766 62.4578M56.0868 73.4483L55.5692 71.5165M60.5945 72.2405L60.0768 70.3087M65.1021 71.0327L64.5845 69.1008M69.6098 69.8249L69.0921 67.893M57.2917 58.6315L52.462 59.9256L54.0149 65.7212L58.8446 64.4271M57.2917 58.6315L62.1213 57.3374L63.6742 63.133L58.8446 64.4271M57.2917 58.6315L58.0681 61.5293M58.8446 64.4271L58.0681 61.5293M58.0681 61.5293L57.1022 61.7881L59.034 61.2705M59.9188 88.7257L93.7262 79.667C95.0712 79.3067 96.2179 78.4268 96.9141 77.2209C97.6103 76.0151 97.7989 74.5821 97.4386 73.2371L91.0975 49.5719C90.7371 48.227 89.8572 47.0803 88.6514 46.3841C87.4455 45.6879 86.0125 45.4993 84.6676 45.8596L50.8602 54.9183C49.5152 55.2787 48.3685 56.1586 47.6723 57.3644C46.9761 58.5703 46.7875 60.0033 47.1479 61.3482L53.4889 85.0134C53.8493 86.3583 54.7292 87.505 55.935 88.2012C57.1409 88.8974 58.5739 89.0861 59.9188 88.7257Z" stroke="#394A46" stroke-width="2.09622" stroke-linecap="round" stroke-linejoin="round"/>
</g>
<ellipse opacity="0.1" cx="80" cy="141.5" rx="34" ry="2.5" fill="#394A46"/>
<g clip-path="url(#clip1_1352_3128)">
<path d="M66.9219 81.296L106.326 104.046L66.9219 81.296ZM66.0469 82.8115L105.451 105.562L66.0469 82.8115ZM65.9841 96.9203L78.1084 103.92L65.9841 96.9203ZM63.3591 101.467L69.4212 104.967L63.3591 101.467ZM58.3435 106.654L88.6544 124.154C89.8602 124.85 91.2933 125.039 92.6382 124.679C93.9831 124.318 95.1298 123.438 95.826 122.233L104.621 107L108.076 101.015C108.772 99.8091 108.961 98.376 108.601 97.0311C108.24 95.6862 107.36 94.5395 106.154 93.8433L75.8435 76.3433C74.6377 75.6471 73.2047 75.4584 71.8597 75.8188C70.5148 76.1792 69.3681 77.0591 68.6719 78.2649L65.3607 84L56.4219 99.4825C55.7257 100.688 55.537 102.121 55.8974 103.466C56.2578 104.811 57.1377 105.958 58.3435 106.654Z" fill="#F0C9DC"/>
<path d="M66.9219 81.296L106.326 104.046M66.0469 82.8115L105.451 105.562M65.9841 96.9203L78.1084 103.92M63.3591 101.467L69.4212 104.967M65.3607 84L68.6719 78.2649C69.3681 77.0591 70.5148 76.1792 71.8597 75.8188C73.2047 75.4584 74.6377 75.6471 75.8435 76.3433L106.154 93.8433C107.36 94.5395 108.24 95.6862 108.601 97.0311C108.961 98.376 108.772 99.8091 108.076 101.015L104.621 107M65.3607 84L56.4219 99.4825C55.7257 100.688 55.537 102.121 55.8974 103.466C56.2578 104.811 57.1377 105.958 58.3435 106.654L88.6544 124.154C89.8602 124.85 91.2933 125.039 92.6382 124.679C93.9831 124.318 95.1298 123.438 95.826 122.233L104.621 107M65.3607 84L104.621 107" stroke="#394A46" stroke-width="2.09622" stroke-linecap="round" stroke-linejoin="round"/>
</g>
<path d="M35.0503 103.88L38.7423 107.579C39.3297 108.167 39.5594 109.024 39.3449 109.828L37.9967 114.876C37.7822 115.68 37.156 116.307 36.354 116.522L31.3139 117.872C30.5119 118.087 29.656 117.857 29.0685 117.269L25.3766 113.571C24.7891 112.982 24.5594 112.125 24.7739 111.321L26.1221 106.273C26.3367 105.469 26.9629 104.842 27.7648 104.627L32.805 103.277C33.6069 103.062 34.4629 103.292 35.0503 103.88Z" fill="#F0C9DC"/>
<path d="M31.3544 107.943C30.6364 108.217 30.0138 108.724 29.6477 109.407C28.8928 110.816 29.5152 112.439 31.0379 113.033C31.5933 113.249 32.1917 113.299 32.7646 113.206M31.3544 107.943C32.1171 107.653 32.9874 107.626 33.7718 107.932M31.3544 107.943L30.9947 106.601M35.1619 111.557C34.6824 112.452 33.7623 113.045 32.7646 113.206M32.7646 113.206L33.2129 114.879M26.1221 106.273L24.7739 111.321C24.5594 112.125 24.7891 112.982 25.3766 113.571L29.0685 117.269C29.656 117.857 30.5119 118.087 31.3139 117.872L36.354 116.522C37.156 116.307 37.7822 115.68 37.9967 114.876L39.3449 109.828C39.5594 109.024 39.3297 108.167 38.7423 107.579L35.0503 103.88C34.4629 103.292 33.6069 103.062 32.805 103.277L27.7648 104.627C26.9629 104.842 26.3367 105.469 26.1221 106.273Z" stroke="#394A46" stroke-width="2.09622" stroke-linecap="round" stroke-linejoin="round"/>
<path d="M125.541 56.9772L125.537 62.1196C125.536 62.9379 125.1 63.6943 124.391 64.1041L119.94 66.6791C119.232 67.0888 118.359 67.0896 117.652 66.681L113.205 64.1136C112.497 63.7051 112.062 62.9493 112.063 62.1311L112.067 56.9886C112.068 56.1704 112.504 55.4139 113.213 55.0042L117.664 52.4291C118.372 52.0194 119.244 52.0187 119.952 52.4272L124.399 54.9947C125.107 55.4032 125.542 56.1589 125.541 56.9772Z" fill="#F0C9DC"/>
<path d="M120.142 57.2325C119.452 56.9233 118.666 56.8429 117.936 57.0634C116.431 57.5183 115.734 59.0809 116.381 60.5537C116.617 61.0908 116.998 61.5418 117.461 61.876M120.142 57.2325C120.875 57.561 121.5 58.1478 121.833 58.9065M120.142 57.2325L120.826 56.0482M120.277 62.3967C119.321 62.6857 118.268 62.4581 117.461 61.876M117.461 61.876L116.609 63.3522M117.664 52.4291L113.213 55.0042C112.504 55.4139 112.068 56.1704 112.067 56.9886L112.063 62.1311C112.062 62.9493 112.497 63.7051 113.205 64.1136L117.652 66.681C118.359 67.0896 119.232 67.0888 119.94 66.6791L124.391 64.1041C125.1 63.6943 125.536 62.9379 125.537 62.1196L125.541 56.9772C125.542 56.1589 125.107 55.4032 124.399 54.9947L119.952 52.4272C119.244 52.0187 118.372 52.0194 117.664 52.4291Z" stroke="#394A46" stroke-width="2.09622" stroke-linecap="round" stroke-linejoin="round"/>
<path d="M118.596 123.048L118.593 126.031C118.593 126.506 118.339 126.945 117.928 127.182L115.346 128.676C114.935 128.914 114.429 128.914 114.019 128.677L111.439 127.188C111.028 126.951 110.776 126.512 110.776 126.038L110.779 123.054C110.779 122.58 111.032 122.141 111.443 121.903L114.026 120.409C114.437 120.172 114.943 120.171 115.353 120.408L117.933 121.898C118.343 122.135 118.596 122.573 118.596 123.048Z" fill="#F0C9DC" stroke="#394A46" stroke-width="2.09622" stroke-linecap="round" stroke-linejoin="round"/>
<path d="M31.6253 36.7025L31.6276 39.4315C31.628 39.8657 31.8597 40.2671 32.2356 40.4845L34.5978 41.851C34.9736 42.0684 35.4365 42.0688 35.812 41.852L38.1718 40.4896C38.5473 40.2728 38.7784 39.8718 38.778 39.4375L38.7757 36.7086C38.7753 36.2744 38.5436 35.873 38.1677 35.6555L35.8055 34.2891C35.4297 34.0716 34.9668 34.0712 34.5913 34.288L32.2315 35.6505C31.856 35.8673 31.6249 36.2683 31.6253 36.7025Z" fill="#F0C9DC" stroke="#394A46" stroke-width="2.09622" stroke-linecap="round" stroke-linejoin="round"/>
<defs>
<clipPath id="clip0_1352_3128">
<rect width="56" height="56" fill="white" transform="translate(38 47.4939) rotate(-15)"/>
</clipPath>
<clipPath id="clip1_1352_3128">
<rect width="56" height="56" fill="white" transform="translate(72 62) rotate(30)"/>
</clipPath>
</defs>
</svg>
