<svg width="156" height="156" viewBox="0 0 156 156" fill="none" xmlns="http://www.w3.org/2000/svg">
<g clip-path="url(#clip0_1352_3112)">
<path d="M99.2342 103.977C98.8731 102.629 97.9915 101.48 96.7832 100.783C95.575 100.085 94.1391 99.896 92.7914 100.257L84.3226 102.526C84.8041 104.323 84.5521 106.238 83.6219 107.849C82.6918 109.46 81.1598 110.635 79.363 111.117C77.5661 111.598 75.6516 111.346 74.0406 110.416C72.4296 109.486 71.254 107.954 70.7726 106.157L62.3038 108.426C60.9562 108.787 59.8072 109.669 59.1096 110.877C58.412 112.085 58.2229 113.521 58.584 114.869L62.2148 128.419C62.5759 129.767 63.4575 130.916 64.6658 131.613C65.874 132.311 67.3099 132.5 68.6576 132.139L99.1452 123.97C100.493 123.609 101.642 122.727 102.339 121.519C103.037 120.31 103.226 118.875 102.865 117.527L99.2342 103.977Z" fill="#F0C9DC"/>
<path d="M96.7832 100.783C97.9915 101.48 98.8731 102.629 99.2342 103.977L97.4189 97.2018C97.0578 95.8542 96.1761 94.7052 94.9678 94.0076C93.7596 93.31 92.3237 93.1209 90.9761 93.482L60.4884 101.651C59.1408 102.012 57.9918 102.894 57.2942 104.102C56.5966 105.31 56.4076 106.746 56.7687 108.094L58.584 114.869C58.2229 113.521 58.412 112.085 59.1096 110.877C59.8072 109.669 60.9562 108.787 62.3038 108.426L70.7726 106.157C71.254 107.954 72.4296 109.486 74.0406 110.416C75.6516 111.346 77.5661 111.598 79.363 111.117C81.1598 110.635 82.6918 109.46 83.6219 107.849C84.5521 106.238 84.8041 104.323 84.3226 102.526L92.7914 100.257C94.1391 99.896 95.575 100.085 96.7832 100.783Z" fill="#F0C9DC"/>
<path d="M94.9678 94.0076C96.1761 94.7052 97.0578 95.8542 97.4189 97.2018L95.6035 90.4268C95.2424 89.0791 94.3607 87.9301 93.1525 87.2325C91.9442 86.535 90.5083 86.3459 89.1607 86.707L58.6731 94.8761C57.3254 95.2372 56.1764 96.1189 55.4788 97.3272C54.7813 98.5354 54.5922 99.9713 54.9533 101.319L56.7687 108.094C56.4076 106.746 56.5966 105.31 57.2942 104.102C57.9918 102.894 59.1408 102.012 60.4884 101.651L90.9761 93.482C92.3237 93.1209 93.7596 93.31 94.9678 94.0076Z" fill="#F0C9DC"/>
<path d="M99.2342 103.977C98.8731 102.629 97.9915 101.48 96.7832 100.783C95.575 100.085 94.1391 99.896 92.7914 100.257L84.3226 102.526C84.8041 104.323 84.5521 106.238 83.6219 107.849C82.6918 109.46 81.1598 110.635 79.363 111.117C77.5661 111.598 75.6516 111.346 74.0406 110.416C72.4296 109.486 71.254 107.954 70.7726 106.157L62.3038 108.426C60.9562 108.787 59.8072 109.669 59.1096 110.877C58.412 112.085 58.2229 113.521 58.584 114.869M99.2342 103.977L102.865 117.527C103.226 118.875 103.037 120.31 102.339 121.519C101.642 122.727 100.493 123.609 99.1452 123.97L68.6576 132.139C67.3099 132.5 65.874 132.311 64.6658 131.613C63.4575 130.916 62.5759 129.767 62.2148 128.419L58.584 114.869M99.2342 103.977L97.4189 97.2018M58.584 114.869L56.7687 108.094M97.4189 97.2018C97.0578 95.8542 96.1761 94.7052 94.9678 94.0076C93.7596 93.31 92.3237 93.1209 90.9761 93.482L60.4884 101.651C59.1408 102.012 57.9918 102.894 57.2942 104.102C56.5966 105.31 56.4076 106.746 56.7687 108.094M97.4189 97.2018L95.6035 90.4268C95.2424 89.0791 94.3607 87.9301 93.1525 87.2325C91.9442 86.535 90.5083 86.3459 89.1607 86.707L58.6731 94.8761C57.3254 95.2372 56.1764 96.1189 55.4788 97.3272C54.7813 98.5354 54.5922 99.9713 54.9533 101.319L56.7687 108.094" stroke="#394A46" stroke-width="2.09622" stroke-linecap="round" stroke-linejoin="round"/>
<path d="M99.2342 103.977C98.8731 102.629 97.9915 101.48 96.7832 100.782C95.575 100.085 94.1391 99.8959 92.7914 100.257L84.3226 102.526C84.8041 104.323 84.5521 106.238 83.6219 107.849C82.6918 109.46 81.1598 110.635 79.363 111.117C77.5661 111.598 75.6516 111.346 74.0406 110.416C72.4296 109.486 71.254 107.954 70.7726 106.157L62.3038 108.426C60.9562 108.787 59.8072 109.669 59.1096 110.877C58.412 112.085 58.2229 113.521 58.584 114.869L62.2148 128.419C62.5759 129.767 63.4575 130.916 64.6658 131.613C65.874 132.311 67.3099 132.5 68.6576 132.139L99.1452 123.97C100.493 123.608 101.642 122.727 102.339 121.519C103.037 120.31 103.226 118.874 102.865 117.527L99.2342 103.977Z" fill="#394A46"/>
<path d="M99.2342 103.977C98.8731 102.629 97.9915 101.48 96.7832 100.782C95.575 100.085 94.1391 99.8959 92.7914 100.257L84.3226 102.526C84.8041 104.323 84.5521 106.238 83.6219 107.849C82.6918 109.46 81.1598 110.635 79.363 111.117C77.5661 111.598 75.6516 111.346 74.0406 110.416C72.4296 109.486 71.254 107.954 70.7726 106.157L62.3038 108.426C60.9562 108.787 59.8072 109.669 59.1096 110.877C58.412 112.085 58.2229 113.521 58.584 114.869M99.2342 103.977L102.865 117.527C103.226 118.874 103.037 120.31 102.339 121.519C101.642 122.727 100.493 123.608 99.1452 123.97L68.6576 132.139C67.3099 132.5 65.874 132.311 64.6658 131.613C63.4575 130.916 62.5759 129.767 62.2148 128.419L58.584 114.869M99.2342 103.977L97.4189 97.2017M58.584 114.869L56.7687 108.094M97.4189 97.2017C97.0578 95.854 96.1761 94.705 94.9678 94.0074C93.7596 93.3099 92.3237 93.1208 90.9761 93.4819L60.4884 101.651C59.1408 102.012 57.9918 102.894 57.2942 104.102C56.5966 105.31 56.4076 106.746 56.7687 108.094M97.4189 97.2017L95.6035 90.4266C95.2424 89.079 94.3607 87.93 93.1525 87.2324C91.9442 86.5348 90.5083 86.3458 89.1607 86.7069L58.6731 94.876C57.3254 95.2371 56.1764 96.1188 55.4788 97.327C54.7813 98.5353 54.5922 99.9712 54.9533 101.319L56.7687 108.094" stroke="#394A46" stroke-width="2.09622" stroke-linecap="round" stroke-linejoin="round"/>
<path opacity="0.16" d="M63 119.054L63.6553 121.5M77.1994 126.449L74.6479 127.133M64.7271 125.5L65.0363 126.654C65.2388 127.41 65.7333 128.054 66.411 128.446C67.0886 128.837 67.894 128.943 68.6498 128.74L71.191 128.059" stroke="white" stroke-width="2.09622" stroke-linecap="round" stroke-linejoin="round"/>
</g>
<ellipse opacity="0.1" cx="80" cy="141.5" rx="27" ry="2.5" fill="#394A46"/>
<path d="M46.5756 43.7425L51.9604 49.1364C52.8172 49.9947 53.1523 51.2452 52.8394 52.4168L50.873 59.7805C50.5601 60.9522 49.6468 61.8671 48.4771 62.1805L41.126 64.1502C39.9563 64.4636 38.7079 64.128 37.8511 63.2697L32.4663 57.8758C31.6095 57.0175 31.2744 55.767 31.5873 54.5953L33.5537 47.2317C33.8666 46.06 34.7799 45.1451 35.9496 44.8317L43.3008 42.862C44.4705 42.5486 45.7188 42.8842 46.5756 43.7425Z" fill="#F0C9DC"/>
<path d="M41.185 49.6683C40.1379 50.0673 39.2297 50.8069 38.6959 51.8031C37.5948 53.8576 38.5026 56.2251 40.7235 57.0911C41.5335 57.4069 42.4063 57.4794 43.2418 57.3444M41.185 49.6683C42.2975 49.2444 43.5668 49.205 44.7109 49.6511M41.185 49.6683L40.6605 47.7105M46.7385 54.9391C46.039 56.2443 44.697 57.1091 43.2418 57.3444M43.2418 57.3444L43.8957 59.7846M33.5537 47.2317L31.5873 54.5953C31.2744 55.767 31.6095 57.0175 32.4663 57.8758L37.8511 63.2697C38.7079 64.128 39.9563 64.4636 41.126 64.1502L48.4771 62.1805C49.6468 61.8671 50.5601 60.9522 50.873 59.7805L52.8394 52.4168C53.1523 51.2452 52.8172 49.9947 51.9604 49.1364L46.5756 43.7425C45.7188 42.8842 44.4705 42.5486 43.3008 42.862L35.9496 44.8317C34.7799 45.1451 33.8666 46.06 33.5537 47.2317Z" stroke="#394A46" stroke-width="2.09622" stroke-linecap="round" stroke-linejoin="round"/>
<path d="M85.8724 19.2318L87.8388 26.5955C88.1517 27.7672 87.8166 29.0177 86.9598 29.876L81.575 35.2699C80.7182 36.1282 79.4699 36.4638 78.3002 36.1504L70.949 34.1807C69.7793 33.8672 68.866 32.9524 68.5531 31.7807L66.5867 24.417C66.2738 23.2453 66.6089 21.9948 67.4657 21.1366L72.8505 15.7426C73.7073 14.8844 74.9557 14.5487 76.1254 14.8621L83.4765 16.8319C84.6462 17.1453 85.5595 18.0602 85.8724 19.2318Z" fill="#F0C9DC"/>
<path d="M78.2411 21.6684C77.1348 21.4904 75.9785 21.6769 75.018 22.2727C73.0372 23.5014 72.6396 26.0056 74.13 27.866C74.6736 28.5446 75.3932 29.0437 76.1843 29.3445M78.2411 21.6684C79.4165 21.8576 80.5354 22.4582 81.3031 23.4165M78.2411 21.6684L78.7657 19.7107M80.4151 29.0098C79.1568 29.7904 77.5622 29.8684 76.1843 29.3445M76.1843 29.3445L75.5305 31.7848M72.8505 15.7426L67.4657 21.1366C66.6089 21.9948 66.2738 23.2453 66.5867 24.417L68.5531 31.7807C68.866 32.9524 69.7793 33.8672 70.949 34.1807L78.3002 36.1504C79.4699 36.4638 80.7182 36.1282 81.575 35.2699L86.9598 29.876C87.8166 29.0177 88.1517 27.7672 87.8388 26.5955L85.8724 19.2318C85.5595 18.0602 84.6462 17.1453 83.4765 16.8319L76.1254 14.8621C74.9557 14.5487 73.7073 14.8844 72.8505 15.7426Z" stroke="#394A46" stroke-width="2.09622" stroke-linecap="round" stroke-linejoin="round"/>
<path d="M86.2995 61.719L86.2947 67.4083C86.2939 68.3135 85.8107 69.1504 85.0271 69.6037L80.1025 72.4525C79.3189 72.9058 78.3539 72.9066 77.5711 72.4547L72.6513 69.6142C71.8685 69.1623 71.3868 68.3262 71.3875 67.4209L71.3924 61.7317C71.3931 60.8264 71.8763 59.9895 72.6599 59.5362L77.5845 56.6874C78.3681 56.2341 79.3331 56.2333 80.1159 56.6853L85.0357 59.5257C85.8185 59.9777 86.3003 60.8138 86.2995 61.719Z" fill="#F0C9DC"/>
<path d="M80.3264 62.0015C79.5631 61.6594 78.6934 61.5705 77.8858 61.8145C76.2202 62.3177 75.4497 64.0465 76.1649 65.6758C76.4257 66.2701 76.8481 66.769 77.3604 67.1387M80.3264 62.0015C81.1373 62.365 81.8281 63.0142 82.1965 63.8535M80.3264 62.0015L81.0829 60.6913M80.4756 67.7148C79.4175 68.0345 78.2527 67.7827 77.3604 67.1387M77.3604 67.1387L76.4175 68.7719M77.5845 56.6874L72.6599 59.5362C71.8763 59.9895 71.3931 60.8264 71.3924 61.7317L71.3875 67.4209C71.3868 68.3262 71.8685 69.1623 72.6513 69.6142L77.5711 72.4547C78.3539 72.9066 79.3189 72.9058 80.1025 72.4525L85.0271 69.6037C85.8107 69.1504 86.2939 68.3135 86.2946 67.4083L86.2995 61.719C86.3003 60.8138 85.8185 59.9777 85.0357 59.5257L80.1159 56.6853C79.3331 56.2333 78.3681 56.2341 77.5845 56.6874Z" stroke="#394A46" stroke-width="2.09622" stroke-linecap="round" stroke-linejoin="round"/>
<path d="M54.6253 82.7025L54.6276 85.4315C54.628 85.8657 54.8597 86.2671 55.2356 86.4845L57.5978 87.851C57.9736 88.0684 58.4365 88.0688 58.812 87.852L61.1718 86.4896C61.5473 86.2728 61.7784 85.8718 61.778 85.4375L61.7757 82.7086C61.7753 82.2744 61.5436 81.873 61.1677 81.6555L58.8055 80.2891C58.4297 80.0716 57.9668 80.0712 57.5913 80.288L55.2315 81.6505C54.856 81.8673 54.6249 82.2683 54.6253 82.7025Z" fill="#F0C9DC" stroke="#394A46" stroke-width="2.09622" stroke-linecap="round" stroke-linejoin="round"/>
<defs>
<clipPath id="clip0_1352_3112">
<rect width="56.1122" height="56.1122" fill="white" transform="translate(44.5488 89.5842) rotate(-15)"/>
</clipPath>
</defs>
</svg>
