<svg width="760" height="400" viewBox="0 0 760 400" fill="none" xmlns="http://www.w3.org/2000/svg">
<rect width="760" height="400" rx="8" fill="#FFECF5"/>
<path d="M376.202 388.521C412.897 388.521 442.645 380.13 442.645 369.78C442.645 365.983 438.641 362.45 431.759 359.498C406.239 382.72 348.639 382.72 320.226 359.68C313.601 362.595 309.759 366.061 309.759 369.78C309.759 380.13 339.507 388.521 376.202 388.521Z" fill="#F0C9DC"/>
<path d="M450.968 191.371C450.968 191.829 450.914 192.283 450.81 192.733C448.29 203.582 415.874 212.165 376.257 212.165C336.639 212.165 304.224 203.582 301.704 192.733C301.599 192.283 301.546 191.829 301.546 191.371C301.546 179.887 334.995 170.577 376.257 170.577C417.519 170.577 450.968 179.887 450.968 191.371Z" fill="#FFECF5"/>
<path d="M376.257 376.92C406.984 376.92 431.893 367.61 431.893 356.126L450.81 192.733C448.29 203.582 415.874 212.165 376.257 212.165C336.639 212.165 304.224 203.582 301.704 192.733L320.621 356.126C320.621 367.61 345.53 376.92 376.257 376.92Z" fill="#FFECF5"/>
<path d="M450.968 191.371C450.968 179.887 417.519 170.577 376.257 170.577C334.995 170.577 301.546 179.887 301.546 191.371M450.968 191.371L450.81 192.733M450.968 191.371C450.968 191.829 450.914 192.283 450.81 192.733M301.546 191.371L301.704 192.733M301.546 191.371C301.546 191.829 301.599 192.283 301.704 192.733M450.81 192.733C448.29 203.582 415.874 212.165 376.257 212.165C336.639 212.165 304.224 203.582 301.704 192.733M450.81 192.733L431.893 356.126C431.893 367.61 406.984 376.92 376.257 376.92C345.53 376.92 320.621 367.61 320.621 356.126L301.704 192.733" stroke="#394A46" stroke-width="6" stroke-linecap="round"/>
<path d="M376.249 341.343C410.306 341.343 433.341 330.84 436.221 319.32L441.981 255.96C440.202 257.739 415.546 274.247 376.249 274.247C336.953 274.247 311.28 257.739 309.501 255.96L316.701 319.32C319.581 330.84 342.192 341.343 376.249 341.343Z" fill="#F1627D" stroke="#394A46" stroke-width="6" stroke-linecap="round"/>
<g style="mix-blend-mode:screen" opacity="0.3">
<path d="M374.911 330.639L374.894 330.633L374.842 330.606C374.538 330.447 374.236 330.284 373.937 330.117C370.34 328.091 366.978 325.711 363.908 323.016C358.471 318.207 352.709 311.07 352.709 302.28C352.709 295.721 358.532 290.52 365.56 290.52C367.514 290.511 369.444 290.919 371.208 291.715C372.973 292.511 374.525 293.674 375.749 295.117C376.974 293.673 378.527 292.511 380.292 291.715C382.056 290.919 383.987 290.511 385.941 290.52C392.967 290.52 398.789 295.721 398.789 302.28C398.789 311.072 393.028 318.209 387.591 323.014C384.521 325.709 381.159 328.089 377.562 330.115C377.263 330.283 376.961 330.446 376.657 330.606L376.605 330.633L376.588 330.642L376.581 330.644C376.325 330.773 376.039 330.84 375.749 330.84C375.459 330.84 375.174 330.773 374.918 330.644L374.911 330.639Z" fill="white"/>
</g>
<path d="M298 175.477C298 164.009 333.042 154.712 376.268 154.712C419.495 154.712 454.536 164.009 454.536 175.477C454.536 176.162 454.412 176.839 454.168 177.506L451.342 193.048C451.342 193.505 451.289 193.958 451.183 194.408C448.651 205.242 416.078 213.813 376.268 213.813C336.458 213.813 303.886 205.242 301.353 194.408C301.248 193.958 301.195 193.505 301.195 193.048L298.369 177.506C298.125 176.839 298 176.162 298 175.477Z" fill="url(#paint0_radial_1359_5932)"/>
<path d="M301.353 194.408L298.432 195.09L298.432 195.09L301.353 194.408ZM301.195 193.048L304.174 192.7L304.163 192.605L304.146 192.511L301.195 193.048ZM451.342 193.048L448.39 192.511L448.373 192.605L448.362 192.7L451.342 193.048ZM301 175.477C301 174.239 301.993 172.289 305.745 169.936C309.342 167.679 314.748 165.537 321.694 163.694C335.541 160.02 354.838 157.712 376.268 157.712V151.712C354.473 151.712 334.635 154.053 320.155 157.894C312.937 159.809 306.88 162.141 302.557 164.853C298.387 167.469 295 170.982 295 175.477H301ZM376.268 157.712C397.699 157.712 416.995 160.02 430.843 163.694C437.789 165.537 443.194 167.679 446.792 169.936C450.543 172.289 451.536 174.239 451.536 175.477H457.536C457.536 170.982 454.15 167.469 449.98 164.853C445.656 162.141 439.599 159.809 432.382 157.894C417.902 154.053 398.064 151.712 376.268 151.712V157.712ZM448.262 193.725C447.922 195.18 446.349 197.195 442.508 199.412C438.798 201.554 433.528 203.558 426.949 205.27C413.818 208.687 395.986 210.813 376.268 210.813V216.813C396.36 216.813 414.72 214.653 428.461 211.076C435.318 209.292 441.154 207.121 445.507 204.609C449.731 202.171 453.179 199.052 454.105 195.09L448.262 193.725ZM376.268 210.813C356.55 210.813 338.718 208.687 325.587 205.27C319.009 203.558 313.739 201.554 310.028 199.412C306.188 197.195 304.615 195.18 304.274 193.725L298.432 195.09C299.358 199.052 302.806 202.171 307.029 204.609C311.382 207.121 317.219 209.292 324.076 211.076C337.817 214.653 356.176 216.813 376.268 216.813V210.813ZM298.215 193.395L298.373 194.755L304.333 194.06L304.174 192.7L298.215 193.395ZM304.274 193.725C304.22 193.493 304.195 193.269 304.195 193.048H298.195C298.195 193.74 298.276 194.423 298.432 195.09L304.274 193.725ZM454.163 194.755L454.322 193.395L448.362 192.7L448.204 194.06L454.163 194.755ZM448.342 193.048C448.342 193.269 448.316 193.493 448.262 193.725L454.105 195.091C454.261 194.423 454.342 193.74 454.342 193.048H448.342ZM454.294 193.584L457.119 178.043L451.216 176.97L448.39 192.511L454.294 193.584ZM451.585 174.941L451.216 176.97L457.119 178.043L457.488 176.014L451.585 174.941ZM451.536 175.477C451.536 175.789 451.481 176.118 451.35 176.476L456.985 178.536C457.342 177.559 457.536 176.534 457.536 175.477H451.536ZM295.417 178.043L298.243 193.584L304.146 192.511L301.321 176.97L295.417 178.043ZM295.048 176.014L295.417 178.043L301.321 176.97L300.952 174.941L295.048 176.014ZM301.187 176.476C301.056 176.118 301 175.789 301 175.477H295C295 176.534 295.194 177.559 295.551 178.536L301.187 176.476Z" fill="#394A46"/>
<ellipse cx="376.27" cy="175.477" rx="78.2682" ry="20.765" fill="url(#paint1_radial_1359_5932)" stroke="#394A46" stroke-width="6" stroke-linecap="round"/>
<ellipse cx="376.274" cy="149.92" rx="63.8924" ry="12.7785" fill="url(#paint2_radial_1359_5932)" stroke="#394A46" stroke-width="6" stroke-linecap="round"/>
<path d="M376.274 162.699C411.561 162.699 440.166 156.978 440.166 149.92V170.685C440.166 177.743 411.561 183.464 376.274 183.464C340.987 183.464 312.381 177.743 312.381 170.685V149.92C312.381 156.978 340.987 162.699 376.274 162.699Z" fill="#482F1C"/>
<path d="M376.274 162.699C411.561 162.699 440.166 156.978 440.166 149.92V170.685C440.166 177.743 411.561 183.464 376.274 183.464C340.987 183.464 312.381 177.743 312.381 170.685V149.92C312.381 156.978 340.987 162.699 376.274 162.699Z" fill="url(#paint3_radial_1359_5932)" stroke="#394A46" stroke-width="6" stroke-linecap="round"/>
<path d="M395.837 143.979C402.713 143.979 408.288 141.552 408.288 138.558V147.367C408.288 150.361 402.713 152.788 395.837 152.788C388.96 152.788 383.385 150.361 383.385 147.367V138.558C383.385 141.552 388.96 143.979 395.837 143.979Z" fill="url(#paint4_radial_1359_5932)" stroke="#394A46" stroke-width="6" stroke-linecap="round"/>
<ellipse cx="395.837" cy="138.336" rx="12.4518" ry="5.33647" fill="white" stroke="#394A46" stroke-width="6" stroke-linecap="round"/>
<circle cx="333.81" cy="234.654" r="14.2306" fill="#262421"/>
<circle cx="337.365" cy="231.097" r="3.55765" fill="white"/>
<circle cx="342.709" cy="236.433" r="1.77882" fill="white"/>
<circle cx="415.636" cy="234.654" r="14.2306" fill="#262421"/>
<circle cx="419.191" cy="231.097" r="3.55765" fill="white"/>
<circle cx="424.535" cy="236.433" r="1.77882" fill="white"/>
<path d="M351.619 247.967C351.619 246.509 352.801 245.327 354.259 245.327H398.786C400.244 245.327 401.426 246.509 401.426 247.967V255.233C401.426 261.551 396.304 266.673 389.986 266.673H363.059C356.741 266.673 351.619 261.551 351.619 255.233V247.967Z" fill="#262421"/>
<path d="M368.45 265H383.55C388.437 265 392.851 263.505 396 261.1C394.211 258.729 390.782 255 386.847 255H365.153C361.218 255 357.789 258.729 356 261.1C359.149 263.505 363.563 265 368.45 265Z" fill="#F5746B"/>
<path d="M678.54 49.3033C684.775 50.9896 689.15 56.1474 689.664 62.4195L692.05 91.493C692.403 95.797 690.89 100.154 687.865 103.545L667.432 126.448C663.024 131.388 656.126 133.498 649.89 131.812L634.221 127.574C627.986 125.888 623.611 120.73 623.097 114.458L620.712 85.3845C620.359 81.0805 621.872 76.7232 624.897 73.3326L645.33 50.4298C649.738 45.489 656.636 43.3797 662.871 45.0659L678.54 49.3033Z" fill="#394A46" stroke="#394A46" stroke-width="4.30937" stroke-linecap="round" stroke-linejoin="round"/>
<path d="M674.095 77.4276C674.53 77.954 674.113 78.8884 673.426 79.1811C660.396 84.7275 660.784 100.007 649.843 102.141C649.5 102.208 649.182 102.053 649.034 101.728C646.155 95.3904 650.336 85.3738 656.64 80.1674C666.152 72.8224 671.964 74.8466 674.095 77.4276Z" fill="#394A46"/>
<path d="M676.851 83.5855C676.778 83.1931 676.487 82.9532 676.136 82.9505C665.25 82.867 664.83 96.4246 653.784 104.486C653.118 104.972 652.888 106.004 653.463 106.368C655.924 107.924 661.079 108.474 668.448 102.029C676.655 94.8508 677.512 87.1201 676.851 83.5855Z" fill="#394A46"/>
<path d="M649.253 84.405C646.266 89.6973 645.532 95.3186 645.539 97.4677C639.576 95.0136 636.012 86.4774 637.807 81.3094C638.86 78.5706 646.888 79.6897 649.253 84.405Z" fill="#394A46"/>
<path d="M651.446 81.0538C649.972 78.1829 644.172 75.5367 640.702 76.1178C640.405 76.1675 640.193 75.8751 640.342 75.5372C642.536 70.579 652.38 63.785 662.624 73.6906C658.433 74.5292 653.667 78.4992 651.446 81.0538Z" fill="#394A46"/>
<path d="M669.706 46.9143C675.941 48.6005 680.316 53.7584 680.831 60.0304L683.216 89.1039C683.569 93.408 682.056 97.7653 679.031 101.156L658.598 124.059C654.19 128.999 647.292 131.109 641.056 129.423L625.387 125.185C619.152 123.499 614.777 118.341 614.263 112.069L611.878 82.9955C611.525 78.6914 613.038 74.3341 616.063 70.9436L636.496 48.0408C640.904 43.1 647.802 40.9907 654.037 42.6769L669.706 46.9143Z" fill="#F0C9DC" stroke="#394A46" stroke-width="4.30937" stroke-linecap="round" stroke-linejoin="round"/>
<path d="M665.261 75.0387C665.695 75.5651 665.279 76.4995 664.591 76.7922C651.561 82.3386 651.95 97.6179 641.008 99.7525C640.665 99.8194 640.347 99.6642 640.199 99.3389C637.321 93.0015 641.502 82.9848 647.806 77.7785C657.317 70.4335 663.13 72.4577 665.261 75.0387Z" fill="#394A46"/>
<path d="M668.017 81.1966C667.943 80.8042 667.652 80.5643 667.302 80.5616C656.416 80.478 655.995 94.0357 644.949 102.097C644.283 102.583 644.053 103.615 644.628 103.979C647.089 105.536 652.244 106.085 659.613 99.6403C667.821 92.4619 668.678 84.7312 668.017 81.1966Z" fill="#394A46"/>
<path d="M640.419 82.0161C637.432 87.3084 636.698 92.9297 636.704 95.0788C630.741 92.6247 627.178 84.0885 628.972 78.9205C630.026 76.1817 638.053 77.3008 640.419 82.0161Z" fill="#394A46"/>
<path d="M642.611 78.6649C641.138 75.7939 635.337 73.1478 631.867 73.7289C631.57 73.7786 631.358 73.4862 631.508 73.1482C633.702 68.19 643.545 61.3961 653.79 71.3017C649.598 72.1403 644.833 76.1103 642.611 78.6649Z" fill="#394A46"/>
<path d="M536.797 301.156C539.916 302 542.105 304.581 542.363 307.719L543.556 322.265C543.733 324.419 542.976 326.599 541.462 328.295L531.239 339.754C529.033 342.226 525.582 343.281 522.462 342.438L514.623 340.318C511.503 339.474 509.314 336.893 509.057 333.755L507.864 319.209C507.687 317.055 508.444 314.875 509.957 313.179L520.181 301.72C522.386 299.248 525.837 298.193 528.957 299.036L536.797 301.156Z" fill="#394A46" stroke="#394A46" stroke-width="2.1561" stroke-linecap="round" stroke-linejoin="round"/>
<path d="M534.573 315.228C534.79 315.491 534.582 315.959 534.238 316.105C527.719 318.88 527.913 326.525 522.439 327.593C522.267 327.626 522.108 327.549 522.034 327.386C520.594 324.215 522.686 319.204 525.84 316.599C530.599 312.924 533.507 313.937 534.573 315.228Z" fill="#394A46"/>
<path d="M535.952 318.309C535.915 318.112 535.77 317.992 535.594 317.991C530.148 317.949 529.937 324.733 524.411 328.766C524.078 329.009 523.963 329.526 524.25 329.707C525.481 330.486 528.061 330.761 531.748 327.537C535.854 323.945 536.283 320.077 535.952 318.309Z" fill="#394A46"/>
<path d="M522.144 318.719C520.649 321.367 520.282 324.179 520.286 325.254C517.302 324.027 515.519 319.756 516.417 317.17C516.944 315.8 520.961 316.36 522.144 318.719Z" fill="#394A46"/>
<path d="M523.241 317.042C522.504 315.606 519.601 314.282 517.865 314.573C517.717 314.597 517.611 314.451 517.686 314.282C518.783 311.801 523.708 308.402 528.834 313.358C526.737 313.778 524.352 315.764 523.241 317.042Z" fill="#394A46"/>
<path d="M532.377 299.961C535.496 300.805 537.685 303.385 537.943 306.523L539.136 321.07C539.313 323.223 538.556 325.403 537.042 327.1L526.819 338.559C524.614 341.031 521.162 342.086 518.043 341.242L510.203 339.122C507.083 338.279 504.894 335.698 504.637 332.56L503.444 318.014C503.267 315.86 504.024 313.68 505.537 311.984L515.761 300.525C517.966 298.053 521.417 296.997 524.537 297.841L532.377 299.961Z" fill="#F0C9DC" stroke="#394A46" stroke-width="2.1561" stroke-linecap="round" stroke-linejoin="round"/>
<path d="M530.153 314.032C530.37 314.296 530.162 314.763 529.818 314.91C523.298 317.685 523.493 325.329 518.018 326.397C517.847 326.431 517.688 326.353 517.614 326.191C516.174 323.02 518.265 318.008 521.42 315.403C526.178 311.728 529.087 312.741 530.153 314.032Z" fill="#394A46"/>
<path d="M531.532 317.113C531.495 316.917 531.349 316.797 531.174 316.796C525.727 316.754 525.517 323.537 519.99 327.571C519.657 327.814 519.542 328.33 519.83 328.512C521.061 329.291 523.64 329.566 527.327 326.341C531.434 322.75 531.862 318.882 531.532 317.113Z" fill="#394A46"/>
<path d="M517.724 317.523C516.229 320.171 515.862 322.984 515.865 324.059C512.882 322.831 511.099 318.56 511.996 315.975C512.524 314.604 516.54 315.164 517.724 317.523Z" fill="#394A46"/>
<path d="M518.821 315.847C518.083 314.41 515.181 313.086 513.445 313.377C513.297 313.402 513.19 313.256 513.265 313.087C514.363 310.606 519.288 307.207 524.413 312.163C522.316 312.582 519.932 314.569 518.821 315.847Z" fill="#394A46"/>
<g opacity="0.2">
<path d="M79.5438 344.253C80.9619 344.636 81.9568 345.809 82.0738 347.236L82.6163 353.848C82.6966 354.827 82.3525 355.818 81.6645 356.589L77.0176 361.797C76.0151 362.921 74.4464 363.401 73.0283 363.017L69.4648 362.053C68.0468 361.67 67.0519 360.497 66.9349 359.071L66.3924 352.459C66.3121 351.48 66.6562 350.489 67.3441 349.718L71.9911 344.509C72.9935 343.385 74.5623 342.906 75.9804 343.289L79.5438 344.253Z" fill="#394A46" stroke="#394A46" stroke-width="0.980045" stroke-linecap="round" stroke-linejoin="round"/>
<path d="M78.5334 350.649C78.6322 350.769 78.5375 350.981 78.3812 351.048C75.4178 352.309 75.5062 355.784 73.0178 356.27C72.9399 356.285 72.8675 356.249 72.8339 356.175C72.1793 354.734 73.1301 352.456 74.5638 351.272C76.7269 349.602 78.0488 350.062 78.5334 350.649Z" fill="#394A46"/>
<path d="M79.1602 352.05C79.1435 351.96 79.0773 351.906 78.9976 351.905C76.5219 351.886 76.4262 354.969 73.9142 356.803C73.7627 356.913 73.7104 357.148 73.8411 357.231C74.4008 357.585 75.5732 357.71 77.2491 356.244C79.1157 354.611 79.3105 352.853 79.1602 352.05Z" fill="#394A46"/>
<path d="M72.8839 352.236C72.2045 353.439 72.0376 354.718 72.039 355.207C70.6829 354.648 69.8725 352.707 70.2806 351.532C70.5202 350.909 72.3459 351.164 72.8839 352.236Z" fill="#394A46"/>
<path d="M73.3825 351.474C73.0473 350.821 71.7281 350.219 70.939 350.351C70.8715 350.362 70.8232 350.296 70.8572 350.219C71.3562 349.092 73.5949 347.546 75.9247 349.799C74.9715 349.99 73.8877 350.893 73.3825 351.474Z" fill="#394A46"/>
<path d="M77.5351 343.71C78.9531 344.093 79.948 345.266 80.065 346.692L80.6075 353.304C80.6878 354.283 80.3437 355.274 79.6557 356.045L75.0088 361.254C74.0063 362.378 72.4376 362.857 71.0195 362.474L67.456 361.51C66.038 361.127 65.0431 359.954 64.9261 358.527L64.3836 351.915C64.3033 350.936 64.6474 349.945 65.3354 349.174L69.9823 343.966C70.9847 342.842 72.5535 342.362 73.9716 342.746L77.5351 343.71Z" fill="#F0C9DC" stroke="#394A46" stroke-width="0.980045" stroke-linecap="round" stroke-linejoin="round"/>
<path d="M76.5241 350.106C76.6229 350.225 76.5283 350.438 76.3719 350.504C73.4086 351.766 73.4969 355.241 71.0086 355.726C70.9306 355.741 70.8583 355.706 70.8247 355.632C70.17 354.191 71.1208 351.913 72.5545 350.729C74.7176 349.058 76.0395 349.519 76.5241 350.106Z" fill="#394A46"/>
<path d="M77.1509 351.506C77.1342 351.417 77.068 351.362 76.9884 351.362C74.5126 351.343 74.417 354.426 71.9049 356.259C71.7535 356.37 71.7011 356.605 71.8318 356.687C72.3915 357.041 73.5639 357.166 75.2398 355.701C77.1064 354.068 77.3013 352.31 77.1509 351.506Z" fill="#394A46"/>
<path d="M70.8746 351.692C70.1952 352.896 70.0283 354.174 70.0298 354.663C68.6736 354.105 67.8632 352.164 68.2713 350.988C68.5109 350.366 70.3366 350.62 70.8746 351.692Z" fill="#394A46"/>
<path d="M71.3732 350.93C71.038 350.277 69.7188 349.676 68.9297 349.808C68.8622 349.819 68.8139 349.753 68.848 349.676C69.3469 348.548 71.5856 347.003 73.9154 349.256C72.9622 349.446 71.8784 350.349 71.3732 350.93Z" fill="#394A46"/>
</g>
<g opacity="0.3">
<path d="M72.9613 64.554C74.9466 65.0909 76.3394 66.7331 76.5032 68.7301L77.2627 77.9868C77.3751 79.3572 76.8934 80.7445 75.9302 81.8241L69.4246 89.1161C68.0211 90.6892 65.8248 91.3608 63.8395 90.8239L58.8507 89.4748C56.8654 88.9379 55.4725 87.2957 55.3087 85.2987L54.5493 76.042C54.4369 74.6716 54.9186 73.2842 55.8817 72.2047L62.3874 64.9127C63.7909 63.3396 65.9871 62.668 67.9724 63.2049L72.9613 64.554Z" fill="#394A46" stroke="#394A46" stroke-width="1.37206" stroke-linecap="round" stroke-linejoin="round"/>
<path d="M71.5464 73.5085C71.6848 73.6761 71.5523 73.9737 71.3333 74.0668C67.1847 75.8327 67.3084 80.6975 63.8247 81.3772C63.7156 81.3985 63.6143 81.3491 63.5672 81.2455C62.6507 79.2277 63.9819 76.0385 65.989 74.3809C69.0174 72.0423 70.868 72.6868 71.5464 73.5085Z" fill="#394A46"/>
<path d="M72.4239 75.4692C72.4006 75.3442 72.3079 75.2678 72.1964 75.267C68.7304 75.2404 68.5964 79.557 65.0796 82.1238C64.8675 82.2785 64.7943 82.607 64.9773 82.7228C65.7608 83.2185 67.4021 83.3935 69.7484 81.3415C72.3617 79.0559 72.6345 76.5945 72.4239 75.4692Z" fill="#394A46"/>
<path d="M63.6371 75.7301C62.686 77.4151 62.4523 79.2049 62.4544 79.8891C60.5558 79.1078 59.4212 76.3899 59.9925 74.7445C60.328 73.8725 62.8839 74.2288 63.6371 75.7301Z" fill="#394A46"/>
<path d="M64.3352 74.6631C63.866 73.749 62.0191 72.9065 60.9143 73.0915C60.8198 73.1073 60.7522 73.0142 60.7998 72.9066C61.4984 71.328 64.6325 69.1649 67.8942 72.3187C66.5597 72.5857 65.0424 73.8497 64.3352 74.6631Z" fill="#394A46"/>
<path d="M70.1488 63.7934C72.1341 64.3303 73.5269 65.9725 73.6907 67.9695L74.4502 77.2262C74.5626 78.5966 74.0809 79.9839 73.1177 81.0634L66.6121 88.3555C65.2086 89.9286 63.0123 90.6002 61.027 90.0633L56.0382 88.7141C54.0529 88.1773 52.66 86.535 52.4962 84.5381L51.7368 75.2813C51.6244 73.911 52.1061 72.5236 53.0692 71.4441L59.5749 64.1521C60.9784 62.579 63.1746 61.9074 65.1599 62.4443L70.1488 63.7934Z" fill="#F0C9DC" stroke="#394A46" stroke-width="1.37206" stroke-linecap="round" stroke-linejoin="round"/>
<path d="M68.7335 72.7479C68.8718 72.9155 68.7393 73.213 68.5203 73.3062C64.3717 75.0721 64.4954 79.9369 61.0117 80.6166C60.9026 80.6379 60.8013 80.5885 60.7542 80.4849C59.8377 78.4671 61.1689 75.2779 63.1761 73.6202C66.2044 71.2817 68.055 71.9262 68.7335 72.7479Z" fill="#394A46"/>
<path d="M69.6109 74.7085C69.5876 74.5836 69.495 74.5072 69.3834 74.5064C65.9174 74.4798 65.7834 78.7964 62.2666 81.3632C62.0546 81.5179 61.9813 81.8464 62.1643 81.9622C62.9478 82.4578 64.5891 82.6329 66.9354 80.5809C69.5487 78.2953 69.8215 75.8339 69.6109 74.7085Z" fill="#394A46"/>
<path d="M60.8241 74.9694C59.873 76.6545 59.6393 78.4442 59.6414 79.1285C57.7428 78.3471 56.6082 75.6293 57.1795 73.9838C57.515 73.1118 60.0709 73.4682 60.8241 74.9694Z" fill="#394A46"/>
<path d="M61.5222 73.9025C61.053 72.9884 59.2061 72.1459 58.1013 72.3309C58.0068 72.3467 57.9392 72.2536 57.9868 72.146C58.6854 70.5674 61.8195 68.4042 65.0813 71.5581C63.7468 71.8251 62.2294 73.0891 61.5222 73.9025Z" fill="#394A46"/>
</g>
<path d="M128.889 188.628C133.087 189.764 136.032 193.236 136.378 197.458L137.984 217.029C138.221 219.927 137.203 222.86 135.167 225.142L121.412 240.56C118.444 243.886 113.801 245.306 109.603 244.171L99.0556 241.318C94.8581 240.183 91.9132 236.711 91.5669 232.489L89.9612 212.917C89.7235 210.02 90.7421 207.087 92.7783 204.804L106.533 189.387C109.501 186.061 114.144 184.641 118.342 185.776L128.889 188.628Z" fill="#394A46" stroke="#394A46" stroke-width="2.90093" stroke-linecap="round" stroke-linejoin="round"/>
<path d="M125.898 207.561C126.19 207.915 125.91 208.544 125.447 208.741C116.676 212.475 116.937 222.761 109.572 224.198C109.341 224.243 109.127 224.138 109.028 223.919C107.09 219.653 109.904 212.91 114.148 209.405C120.551 204.461 124.464 205.823 125.898 207.561Z" fill="#394A46"/>
<path d="M127.753 211.706C127.704 211.442 127.508 211.281 127.272 211.279C119.944 211.222 119.661 220.349 112.225 225.776C111.777 226.103 111.622 226.798 112.009 227.042C113.665 228.09 117.136 228.461 122.096 224.122C127.622 219.29 128.198 214.086 127.753 211.706Z" fill="#394A46"/>
<path d="M109.175 212.258C107.164 215.82 106.67 219.605 106.675 221.051C102.661 219.399 100.262 213.653 101.47 210.174C102.179 208.33 107.583 209.084 109.175 212.258Z" fill="#394A46"/>
<path d="M110.651 210.002C109.659 208.069 105.754 206.288 103.418 206.679C103.219 206.713 103.076 206.516 103.177 206.288C104.653 202.951 111.28 198.377 118.176 205.045C115.355 205.61 112.147 208.282 110.651 210.002Z" fill="#394A46"/>
<path d="M122.944 187.02C127.141 188.155 130.086 191.628 130.432 195.85L132.038 215.421C132.276 218.318 131.257 221.252 129.221 223.534L115.466 238.952C112.499 242.278 107.855 243.698 103.658 242.562L93.1098 239.71C88.9123 238.575 85.9674 235.103 85.6211 230.881L84.0154 211.309C83.7777 208.412 84.7963 205.479 86.8325 203.196L100.587 187.779C103.555 184.453 108.198 183.033 112.396 184.168L122.944 187.02Z" fill="#F0C9DC" stroke="#394A46" stroke-width="2.90093" stroke-linecap="round" stroke-linejoin="round"/>
<path d="M119.951 205.953C120.243 206.307 119.963 206.936 119.5 207.133C110.729 210.867 110.99 221.152 103.625 222.589C103.394 222.634 103.18 222.53 103.08 222.311C101.143 218.045 103.957 211.302 108.201 207.797C114.603 202.853 118.516 204.215 119.951 205.953Z" fill="#394A46"/>
<path d="M121.806 210.098C121.756 209.834 121.561 209.672 121.325 209.67C113.997 209.614 113.713 218.741 106.278 224.168C105.83 224.495 105.675 225.189 106.062 225.434C107.718 226.482 111.188 226.852 116.149 222.514C121.674 217.681 122.251 212.477 121.806 210.098Z" fill="#394A46"/>
<path d="M103.228 210.65C101.217 214.212 100.723 217.996 100.727 219.443C96.7133 217.791 94.3144 212.045 95.5223 208.566C96.2316 206.722 101.636 207.475 103.228 210.65Z" fill="#394A46"/>
<path d="M104.704 208.394C103.712 206.461 99.8071 204.68 97.4712 205.071C97.2715 205.104 97.1286 204.908 97.2292 204.68C98.7061 201.342 105.333 196.769 112.229 203.437C109.407 204.001 106.199 206.674 104.704 208.394Z" fill="#394A46"/>
<path d="M212.355 287.225C209.641 287.959 207.737 290.204 207.513 292.933L206.475 305.587C206.321 307.46 206.98 309.356 208.296 310.832L217.189 320.8C219.108 322.95 222.11 323.868 224.823 323.134L231.643 321.29C234.357 320.556 236.26 318.311 236.484 315.582L237.522 302.928C237.676 301.055 237.018 299.159 235.701 297.683L226.808 287.715C224.89 285.565 221.888 284.647 219.174 285.381L212.355 287.225Z" fill="#394A46" stroke="#394A46" stroke-width="1.87551" stroke-linecap="round" stroke-linejoin="round"/>
<path d="M214.289 299.465C214.1 299.694 214.281 300.101 214.581 300.228C220.251 302.642 220.082 309.292 224.844 310.221C224.993 310.25 225.132 310.183 225.196 310.041C226.449 307.283 224.629 302.924 221.886 300.658C217.746 297.461 215.217 298.342 214.289 299.465Z" fill="#394A46"/>
<path d="M213.09 302.145C213.122 301.975 213.248 301.87 213.401 301.869C218.139 301.833 218.322 307.733 223.129 311.242C223.419 311.453 223.519 311.902 223.269 312.06C222.198 312.738 219.954 312.977 216.747 310.172C213.175 307.048 212.802 303.684 213.09 302.145Z" fill="#394A46"/>
<path d="M225.101 302.502C226.401 304.805 226.72 307.252 226.717 308.187C229.313 307.119 230.864 303.404 230.083 301.155C229.624 299.963 226.13 300.45 225.101 302.502Z" fill="#394A46"/>
<path d="M224.147 301.043C224.788 299.794 227.312 298.642 228.823 298.895C228.952 298.917 229.044 298.79 228.979 298.643C228.024 296.485 223.74 293.528 219.282 297.839C221.106 298.204 223.18 299.932 224.147 301.043Z" fill="#394A46"/>
<path d="M216.199 286.185C213.486 286.919 211.582 289.164 211.358 291.894L210.32 304.547C210.166 306.42 210.825 308.317 212.141 309.792L221.034 319.76C222.952 321.91 225.954 322.828 228.668 322.094L235.488 320.25C238.201 319.516 240.105 317.271 240.329 314.542L241.367 301.888C241.521 300.015 240.862 298.119 239.546 296.643L230.653 286.676C228.735 284.525 225.733 283.607 223.019 284.341L216.199 286.185Z" fill="#F0C9DC" stroke="#394A46" stroke-width="1.87551" stroke-linecap="round" stroke-linejoin="round"/>
<path d="M228.042 294.308C228.337 294.336 228.498 294.751 228.377 295.053C226.087 300.775 230.92 305.347 228.219 309.377C228.134 309.503 227.988 309.554 227.843 309.499C225.004 308.441 223.198 304.076 223.528 300.533C224.182 295.344 226.591 294.173 228.042 294.308Z" fill="#394A46"/>
<path d="M230.787 295.349C230.644 295.251 230.48 295.267 230.372 295.374C227.004 298.706 231.057 302.999 230.152 308.881C230.097 309.236 230.345 309.624 230.634 309.558C231.869 309.277 233.622 307.856 233.896 303.604C234.202 298.868 232.081 296.23 230.787 295.349Z" fill="#394A46"/>
<path d="M222.567 304.113C223.282 306.659 224.791 308.612 225.456 309.269C222.868 310.355 219.141 308.834 218.097 306.693C217.576 305.528 220.386 303.395 222.567 304.113Z" fill="#394A46"/>
<path d="M222.206 302.408C220.868 301.981 218.271 302.958 217.385 304.206C217.309 304.313 217.154 304.289 217.095 304.139C216.24 301.94 217.166 296.818 223.367 296.699C222.339 298.249 222.1 300.938 222.206 302.408Z" fill="#394A46"/>
<g opacity="0.4">
<path d="M396.355 46.2251C393.641 46.959 391.737 49.2038 391.513 51.9335L390.475 64.5867C390.321 66.4599 390.98 68.3563 392.296 69.8319L401.189 79.7996C403.108 81.9499 406.11 82.8679 408.823 82.1341L415.643 80.2899C418.357 79.556 420.26 77.3112 420.484 74.5815L421.522 61.9282C421.676 60.055 421.018 58.1587 419.701 56.683L410.808 46.7154C408.89 44.5651 405.888 43.647 403.174 44.3809L396.355 46.2251Z" fill="#394A46" stroke="#394A46" stroke-width="1.87551" stroke-linecap="round" stroke-linejoin="round"/>
<path d="M398.289 58.4653C398.1 58.6944 398.281 59.101 398.581 59.2284C404.251 61.6423 404.082 68.2921 408.844 69.2212C408.993 69.2502 409.132 69.1827 409.196 69.0411C410.449 66.283 408.629 61.9236 405.886 59.6577C401.746 56.461 399.217 57.342 398.289 58.4653Z" fill="#394A46"/>
<path d="M397.09 61.1453C397.122 60.9745 397.248 60.8701 397.401 60.8689C402.139 60.8326 402.322 66.7331 407.129 70.2417C407.419 70.4532 407.519 70.9023 407.269 71.0605C406.198 71.738 403.954 71.9773 400.747 69.1723C397.175 66.0482 396.802 62.6836 397.09 61.1453Z" fill="#394A46"/>
<path d="M409.101 61.5019C410.401 63.8053 410.72 66.2517 410.717 67.187C413.313 66.119 414.864 62.4039 414.083 60.1547C413.624 58.9627 410.13 59.4498 409.101 61.5019Z" fill="#394A46"/>
<path d="M408.147 60.0434C408.788 58.794 411.312 57.6423 412.823 57.8952C412.952 57.9168 413.044 57.7896 412.979 57.6425C412.024 55.4846 407.74 52.5278 403.282 56.8389C405.106 57.2038 407.18 58.9317 408.147 60.0434Z" fill="#394A46"/>
<path d="M400.199 45.1853C397.486 45.9192 395.582 48.164 395.358 50.8937L394.32 63.5469C394.166 65.4201 394.825 67.3165 396.141 68.7921L405.034 78.7598C406.952 80.9101 409.954 81.8282 412.668 81.0943L419.488 79.2501C422.201 78.5162 424.105 76.2714 424.329 73.5417L425.367 60.8885C425.521 59.0153 424.862 57.1189 423.546 55.6432L414.653 45.6756C412.735 43.5253 409.733 42.6072 407.019 43.3411L400.199 45.1853Z" fill="#F0C9DC" stroke="#394A46" stroke-width="1.87551" stroke-linecap="round" stroke-linejoin="round"/>
<path d="M412.042 53.3082C412.337 53.3358 412.498 53.7511 412.377 54.053C410.087 59.7752 414.92 64.3465 412.219 68.3769C412.134 68.5032 411.988 68.5537 411.843 68.4994C409.004 67.4415 407.198 63.0764 407.528 59.5334C408.182 54.3444 410.591 53.173 412.042 53.3082Z" fill="#394A46"/>
<path d="M414.787 54.3487C414.644 54.2509 414.48 54.267 414.372 54.3742C411.004 57.7064 415.057 61.9988 414.152 67.8811C414.097 68.2358 414.345 68.6236 414.634 68.5579C415.869 68.2768 417.622 66.8555 417.896 62.6036C418.202 57.8679 416.081 55.23 414.787 54.3487Z" fill="#394A46"/>
<path d="M406.567 63.113C407.282 65.6594 408.791 67.6116 409.456 68.2695C406.868 69.3553 403.141 67.8336 402.097 65.6934C401.576 64.5275 404.386 62.395 406.567 63.113Z" fill="#394A46"/>
<path d="M406.206 61.4078C404.868 60.9809 402.271 61.9577 401.385 63.2065C401.309 63.3132 401.154 63.2889 401.095 63.1391C400.24 60.94 401.166 55.8177 407.367 55.6991C406.339 57.2494 406.1 59.9383 406.206 61.4078Z" fill="#394A46"/>
</g>
<g opacity="0.4">
<path d="M681.854 326.965C679.689 327.55 678.171 329.341 677.992 331.518L677.164 341.61C677.042 343.104 677.567 344.616 678.617 345.793L685.71 353.743C687.24 355.458 689.634 356.19 691.798 355.605L697.237 354.134C699.402 353.549 700.92 351.758 701.099 349.581L701.927 339.489C702.049 337.995 701.524 336.483 700.474 335.306L693.382 327.356C691.852 325.641 689.457 324.909 687.293 325.494L681.854 326.965Z" fill="#394A46" stroke="#394A46" stroke-width="1.49586" stroke-linecap="round" stroke-linejoin="round"/>
<path d="M683.397 336.727C683.246 336.91 683.39 337.235 683.629 337.336C688.152 339.261 688.017 344.565 691.815 345.306C691.934 345.329 692.045 345.275 692.096 345.162C693.095 342.963 691.644 339.486 689.456 337.678C686.154 335.129 684.136 335.832 683.397 336.727Z" fill="#394A46"/>
<path d="M682.44 338.865C682.466 338.729 682.566 338.645 682.688 338.645C686.467 338.616 686.613 343.322 690.447 346.12C690.678 346.289 690.758 346.647 690.559 346.773C689.704 347.313 687.915 347.504 685.357 345.267C682.508 342.775 682.211 340.092 682.44 338.865Z" fill="#394A46"/>
<path d="M692.02 339.149C693.057 340.986 693.311 342.938 693.309 343.684C695.379 342.832 696.616 339.869 695.993 338.075C695.627 337.124 692.841 337.513 692.02 339.149Z" fill="#394A46"/>
<path d="M691.259 337.986C691.77 336.99 693.784 336.071 694.988 336.273C695.091 336.29 695.165 336.189 695.113 336.071C694.351 334.35 690.934 331.992 687.378 335.43C688.833 335.721 690.488 337.099 691.259 337.986Z" fill="#394A46"/>
<path d="M684.92 326.136C682.756 326.721 681.237 328.511 681.059 330.688L680.231 340.78C680.108 342.274 680.633 343.787 681.683 344.964L688.776 352.914C690.306 354.629 692.7 355.361 694.865 354.776L700.304 353.305C702.468 352.72 703.987 350.929 704.165 348.752L704.993 338.66C705.116 337.166 704.591 335.654 703.541 334.477L696.448 326.527C694.918 324.812 692.523 324.079 690.359 324.665L684.92 326.136Z" fill="#F0C9DC" stroke="#394A46" stroke-width="1.49586" stroke-linecap="round" stroke-linejoin="round"/>
<path d="M694.366 332.614C694.601 332.636 694.729 332.967 694.633 333.208C692.807 337.772 696.661 341.418 694.507 344.633C694.439 344.733 694.323 344.774 694.207 344.73C691.943 343.887 690.502 340.405 690.765 337.579C691.287 333.441 693.209 332.506 694.366 332.614Z" fill="#394A46"/>
<path d="M696.555 333.444C696.441 333.366 696.311 333.379 696.224 333.464C693.538 336.122 696.77 339.546 696.049 344.237C696.005 344.52 696.203 344.829 696.433 344.777C697.418 344.553 698.816 343.419 699.035 340.028C699.279 336.251 697.587 334.147 696.555 333.444Z" fill="#394A46"/>
<path d="M689.999 340.434C690.569 342.465 691.773 344.022 692.303 344.547C690.239 345.413 687.266 344.199 686.434 342.492C686.018 341.563 688.26 339.862 689.999 340.434Z" fill="#394A46"/>
<path d="M689.711 339.074C688.644 338.734 686.573 339.513 685.866 340.509C685.806 340.594 685.682 340.575 685.635 340.455C684.952 338.701 685.692 334.616 690.637 334.521C689.817 335.758 689.627 337.902 689.711 339.074Z" fill="#394A46"/>
</g>
<path d="M208.607 50.902C202.982 52.4231 199.036 57.0756 198.572 62.7331L196.42 88.9582C196.102 92.8406 197.467 96.771 200.195 99.8294L218.626 120.488C222.602 124.945 228.825 126.848 234.449 125.327L248.583 121.504C254.207 119.983 258.154 115.331 258.618 109.673L260.769 83.4482C261.088 79.5659 259.723 75.6354 256.994 72.5771L238.563 51.9182C234.587 47.4614 228.365 45.5588 222.74 47.0798L208.607 50.902Z" fill="#394A46" stroke="#394A46" stroke-width="3.88716" stroke-linecap="round" stroke-linejoin="round"/>
<path d="M212.616 76.271C212.224 76.7458 212.6 77.5887 213.22 77.8527C224.973 82.8556 224.623 96.638 234.492 98.5635C234.802 98.6238 235.089 98.4838 235.222 98.1904C237.818 92.4739 234.047 83.4386 228.361 78.7423C219.781 72.117 214.538 73.9429 212.616 76.271Z" fill="#394A46"/>
<path d="M210.13 81.8255C210.196 81.4716 210.459 81.2552 210.775 81.2528C220.594 81.1774 220.974 93.4068 230.937 100.679C231.538 101.117 231.746 102.048 231.227 102.376C229.007 103.78 224.357 104.276 217.71 98.4623C210.307 91.9872 209.534 85.0139 210.13 81.8255Z" fill="#394A46"/>
<path d="M235.024 82.5647C237.718 87.3386 238.38 92.4091 238.375 94.3476C243.753 92.134 246.968 84.4341 245.349 79.7724C244.399 77.302 237.158 78.3115 235.024 82.5647Z" fill="#394A46"/>
<path d="M233.046 79.5419C234.376 76.9522 239.608 74.5653 242.738 75.0895C243.005 75.1343 243.197 74.8706 243.062 74.5657C241.083 70.0933 232.204 63.965 222.963 72.9001C226.744 73.6565 231.043 77.2376 233.046 79.5419Z" fill="#394A46"/>
<path d="M216.575 48.747C210.95 50.268 207.004 54.9206 206.54 60.5781L204.389 86.8032C204.07 90.6855 205.435 94.616 208.163 97.6743L226.595 118.333C230.571 122.79 236.793 124.693 242.417 123.172L256.551 119.349C262.176 117.828 266.122 113.176 266.586 107.518L268.737 81.2932C269.056 77.4108 267.691 73.4804 264.963 70.422L246.531 49.7632C242.555 45.3064 236.333 43.4037 230.709 44.9248L216.575 48.747Z" fill="#F0C9DC" stroke="#394A46" stroke-width="3.88716" stroke-linecap="round" stroke-linejoin="round"/>
<path d="M241.119 65.5824C241.732 65.6396 242.065 66.5003 241.815 67.1262C237.069 78.9858 247.084 88.4604 241.486 96.8138C241.311 97.0754 241.009 97.1801 240.707 97.0675C234.824 94.8749 231.081 85.828 231.764 78.4847C233.121 67.7301 238.113 65.3022 241.119 65.5824Z" fill="#394A46"/>
<path d="M246.81 67.7391C246.512 67.5363 246.174 67.5696 245.949 67.7919C238.968 74.6982 247.368 83.5945 245.493 95.7862C245.38 96.5212 245.893 97.3249 246.491 97.1889C249.053 96.6062 252.685 93.6605 253.254 84.848C253.888 75.0328 249.49 69.5656 246.81 67.7391Z" fill="#394A46"/>
<path d="M229.772 85.9038C231.255 91.1813 234.381 95.2276 235.759 96.5911C230.396 98.8416 222.671 95.6877 220.509 91.252C219.428 88.8355 225.252 84.4156 229.772 85.9038Z" fill="#394A46"/>
<path d="M229.025 82.3696C226.252 81.4848 220.869 83.5094 219.032 86.0975C218.875 86.3187 218.553 86.2684 218.432 85.9578C216.659 81.4 218.579 70.7835 231.431 70.5377C229.3 73.7509 228.805 79.3239 229.025 82.3696Z" fill="#394A46"/>
<path d="M598.261 213.697C594.47 214.723 591.809 217.859 591.497 221.673L590.046 239.351C589.832 241.968 590.752 244.618 592.591 246.679L605.015 260.605C607.696 263.61 611.89 264.892 615.681 263.867L625.209 261.29C629.001 260.265 631.661 257.129 631.973 253.315L633.424 235.637C633.638 233.02 632.718 230.37 630.879 228.308L618.455 214.382C615.774 211.378 611.58 210.095 607.789 211.121L598.261 213.697Z" fill="#394A46" stroke="#394A46" stroke-width="2.62034" stroke-linecap="round" stroke-linejoin="round"/>
<path d="M600.964 230.798C600.7 231.118 600.953 231.687 601.371 231.865C609.294 235.237 609.058 244.528 615.711 245.826C615.919 245.866 616.113 245.772 616.202 245.574C617.953 241.721 615.411 235.63 611.577 232.464C605.794 227.998 602.26 229.229 600.964 230.798Z" fill="#394A46"/>
<path d="M599.288 234.543C599.333 234.304 599.51 234.158 599.723 234.157C606.342 234.106 606.598 242.35 613.314 247.251C613.719 247.547 613.859 248.174 613.51 248.395C612.013 249.342 608.879 249.676 604.398 245.757C599.407 241.393 598.886 236.692 599.288 234.543Z" fill="#394A46"/>
<path d="M616.069 235.041C617.885 238.259 618.332 241.677 618.328 242.984C621.954 241.492 624.12 236.301 623.029 233.159C622.389 231.493 617.507 232.174 616.069 235.041Z" fill="#394A46"/>
<path d="M614.736 233.003C615.632 231.258 619.159 229.649 621.269 230.002C621.449 230.032 621.579 229.854 621.488 229.649C620.154 226.634 614.168 222.503 607.939 228.526C610.487 229.036 613.385 231.45 614.736 233.003Z" fill="#394A46"/>
<path d="M603.633 212.245C599.841 213.27 597.181 216.406 596.868 220.22L595.418 237.898C595.203 240.515 596.123 243.165 597.962 245.227L610.387 259.153C613.067 262.157 617.262 263.44 621.053 262.414L630.581 259.838C634.372 258.812 637.032 255.676 637.345 251.862L638.795 234.184C639.01 231.567 638.09 228.917 636.251 226.856L623.826 212.93C621.146 209.925 616.952 208.643 613.16 209.668L603.633 212.245Z" fill="#F0C9DC" stroke="#394A46" stroke-width="2.62034" stroke-linecap="round" stroke-linejoin="round"/>
<path d="M620.178 223.593C620.591 223.632 620.815 224.212 620.647 224.634C617.447 232.629 624.199 239.015 620.425 244.646C620.307 244.823 620.104 244.893 619.9 244.817C615.934 243.339 613.411 237.241 613.871 232.291C614.786 225.041 618.152 223.404 620.178 223.593Z" fill="#394A46"/>
<path d="M624.014 225.047C623.813 224.91 623.585 224.933 623.434 225.083C618.728 229.738 624.39 235.735 623.126 243.954C623.05 244.449 623.396 244.991 623.799 244.899C625.526 244.507 627.974 242.521 628.358 236.58C628.785 229.964 625.821 226.278 624.014 225.047Z" fill="#394A46"/>
<path d="M612.529 237.292C613.528 240.85 615.636 243.577 616.565 244.496C612.949 246.013 607.742 243.887 606.284 240.897C605.556 239.268 609.482 236.289 612.529 237.292Z" fill="#394A46"/>
<path d="M612.025 234.91C610.156 234.313 606.527 235.678 605.289 237.423C605.183 237.572 604.966 237.538 604.885 237.328C603.689 234.256 604.984 227.099 613.647 226.934C612.21 229.1 611.877 232.856 612.025 234.91Z" fill="#394A46"/>
<rect x="0.177419" y="0.177419" width="759.645" height="399.645" rx="7.82258" stroke="#3A3634" stroke-opacity="0.15" stroke-width="0.354839"/>
<defs>
<radialGradient id="paint0_radial_1359_5932" cx="0" cy="0" r="1" gradientUnits="userSpaceOnUse" gradientTransform="translate(376.268 184.262) rotate(90) scale(29.5503 78.2682)">
<stop stop-color="white"/>
<stop offset="1" stop-color="#CAF0E9"/>
</radialGradient>
<radialGradient id="paint1_radial_1359_5932" cx="0" cy="0" r="1" gradientUnits="userSpaceOnUse" gradientTransform="translate(376.27 175.477) rotate(90) scale(20.765 78.2682)">
<stop stop-color="white"/>
<stop offset="1" stop-color="#CAF0E9"/>
</radialGradient>
<radialGradient id="paint2_radial_1359_5932" cx="0" cy="0" r="1" gradientUnits="userSpaceOnUse" gradientTransform="translate(376.274 149.92) rotate(90) scale(12.7785 63.8924)">
<stop stop-color="white"/>
<stop offset="1" stop-color="#CAF0E9"/>
</radialGradient>
<radialGradient id="paint3_radial_1359_5932" cx="0" cy="0" r="1" gradientUnits="userSpaceOnUse" gradientTransform="translate(376.274 166.692) rotate(90) scale(16.7718 63.8924)">
<stop stop-color="white"/>
<stop offset="1" stop-color="#CAF0E9"/>
</radialGradient>
<radialGradient id="paint4_radial_1359_5932" cx="0" cy="0" r="1" gradientUnits="userSpaceOnUse" gradientTransform="translate(395.837 145.673) rotate(90) scale(7.11529 12.4518)">
<stop stop-color="white"/>
<stop offset="1" stop-color="#CAF0E9"/>
</radialGradient>
</defs>
</svg>
