<svg width="18" height="16" viewBox="0 0 18 16" fill="none" xmlns="http://www.w3.org/2000/svg">
<path d="M4.08641 1.00001V2.60393M7.91266 1.00001V2.60393M11.7389 1.00001V2.60393M14.6087 8.80197H15.0869C16.1435 8.80197 17 9.72695 17 10.868C17 12.009 16.1435 12.934 15.0869 12.934H13.6521C13.4705 12.934 13.2948 12.9067 13.1284 12.8556M14.6087 8.80197L14.7259 8.42229C15.1388 7.08448 14.2168 5.70295 12.911 5.70295H2.91459C1.60877 5.70295 0.686706 7.08448 1.09964 8.42229L2.03984 11.4683C2.69085 13.5774 4.51855 15 6.57722 15H9.24833C10.8139 15 12.2459 14.1773 13.1284 12.8556M14.6087 8.80197L13.7857 11.4683C13.6298 11.9735 13.4063 12.4393 13.1284 12.8556" stroke="current" stroke-width="1.5" stroke-linecap="round" stroke-linejoin="round"/>
</svg>
