<svg width="112" height="40" viewBox="0 0 112 40" fill="none" xmlns="http://www.w3.org/2000/svg">
<path d="M58.1276 35C54.8187 35 52.3035 34.0373 50.5821 32.1119C48.8607 30.1673 48 27.5102 48 24.1408C48 21.8688 48.459 19.8953 49.3771 18.2202C50.2952 16.5259 51.5576 15.2359 53.1642 14.3502C54.7709 13.4452 56.5879 12.9928 58.6153 12.9928C59.4187 12.9928 60.1933 13.0409 60.9392 13.1372C61.6852 13.2142 62.5841 13.3297 63.6361 13.4838C64.5701 13.6368 65.2881 14.4762 65.2376 15.4213L65.0732 18.4959C65.0235 19.4263 64.2546 20.1552 63.3228 20.1552C62.5003 20.1552 61.7885 19.5834 61.6112 18.7802L61.1824 16.838C61.0231 16.1163 60.6717 15.4009 59.9564 15.2147C59.5177 15.1004 58.9655 15.0433 58.2997 15.0433C56.827 15.0433 55.6603 15.7846 54.7996 17.2671C53.958 18.7304 53.5372 20.8869 53.5372 23.7365C53.5372 26.509 53.9484 28.7329 54.7709 30.4079C55.6124 32.083 56.827 32.9206 58.4145 32.9206C59.1987 32.9206 59.7916 32.8436 60.1933 32.6895C60.374 32.6234 60.5424 32.5448 60.6985 32.4537C61.1002 32.2194 61.347 31.8046 61.5263 31.3755L62.0894 30.0276C62.361 29.3775 63.0234 28.9792 63.725 29.044C64.6221 29.127 65.277 29.9291 65.1787 30.8247L65.0687 31.828C64.9369 33.0289 63.9576 33.9763 62.8041 34.3357C62.039 34.5475 61.3122 34.7112 60.6236 34.8267C59.9542 34.9422 59.1222 35 58.1276 35Z" fill="#F9F6F3"/>
<path d="M67.5411 26.7401C67.5411 24.8917 67.9045 23.3321 68.6313 22.0614C69.3581 20.7714 70.3336 19.8087 71.5577 19.1733C72.801 18.5379 74.1589 18.2202 75.6317 18.2202C78.0417 18.2202 79.9257 18.9519 81.2837 20.4152C82.6608 21.8592 83.3493 23.8809 83.3493 26.4801C83.3493 28.3863 82.9859 29.9747 82.2591 31.2455C81.5323 32.5162 80.5568 33.4597 79.3327 34.0758C78.1086 34.6919 76.7411 35 75.23 35C72.8392 35 70.9552 34.278 69.5781 32.8339C68.2201 31.3706 67.5411 29.3393 67.5411 26.7401ZM75.5169 32.9783C76.435 32.9783 77.114 32.4874 77.5539 31.5054C78.013 30.5042 78.2425 28.9446 78.2425 26.8267C78.2425 24.574 78.0225 22.9182 77.5826 21.8592C77.1618 20.781 76.4446 20.2419 75.4309 20.2419C73.5565 20.2419 72.6192 22.2924 72.6192 26.3935C72.6192 28.627 72.8488 30.2828 73.3078 31.361C73.7669 32.4392 74.5032 32.9783 75.5169 32.9783Z" fill="#F9F6F3"/>
<path d="M87.8423 16.8151C87.8423 16.1412 87.3583 15.5646 86.6947 15.4477L86.4555 15.4055C85.9301 15.313 85.547 14.8565 85.547 14.323C85.547 13.7159 86.0392 13.2238 86.6462 13.2238H99.1237C100.554 13.2238 101.736 14.3389 101.819 15.7667L101.896 17.0718C101.945 17.9143 101.275 18.6245 100.431 18.6245C99.8146 18.6245 99.2639 18.2391 99.0527 17.6599L98.8112 16.9973C98.4744 16.0735 97.6227 15.4366 96.6413 15.3749L96.1609 15.3447C94.3118 15.2283 92.7483 16.6966 92.7483 18.5493V21.002C92.7483 22.1692 93.7088 23.1078 94.8757 23.0809L95.1918 23.0736C95.9638 23.0558 96.6237 22.5131 96.7902 21.7591L96.8876 21.3176C97.0003 20.8074 97.4525 20.444 97.9751 20.444C98.5902 20.444 99.0888 20.9427 99.0888 21.5577V27.0558C99.0888 27.663 98.5965 28.1552 97.9893 28.1552C97.4748 28.1552 97.0291 27.7984 96.9165 27.2964L96.8032 26.7911C96.6287 26.0132 95.9496 25.4522 95.1527 25.4277L94.8933 25.4197C93.7194 25.3836 92.7483 26.3254 92.7483 27.4998V30.2579C92.7483 31.4981 93.7061 32.5278 94.9431 32.6173L96.2216 32.7099C96.738 32.7472 97.1379 33.1771 97.1379 33.6948C97.1379 34.2402 96.6957 34.6823 96.1503 34.6823H86.7135C86.1485 34.6823 85.6905 34.2243 85.6905 33.6593C85.6905 33.152 86.0623 32.7213 86.5641 32.6472L86.7664 32.6173C87.3844 32.5261 87.8423 31.9957 87.8423 31.3709V16.8151Z" fill="#F9F6F3"/>
<path d="M107.266 16.1408C106.52 16.1408 105.918 15.9194 105.459 15.4765C105 15.0337 104.77 14.4657 104.77 13.7726C104.77 12.9639 105.019 12.2996 105.516 11.7798C106.032 11.2599 106.721 11 107.582 11C108.442 11 109.102 11.2214 109.561 11.6643C110.02 12.1071 110.25 12.6751 110.25 13.3682C110.25 14.1961 109.992 14.87 109.475 15.3899C108.959 15.8905 108.232 16.1408 107.295 16.1408H107.266ZM105.516 22.6566C105.516 22.065 105.122 21.5446 104.553 21.3822C103.986 21.2204 103.594 20.7019 103.594 20.1124C103.594 19.4446 104.093 18.882 104.755 18.8019L109.332 18.2491C109.369 18.2491 109.406 18.2604 109.437 18.2814L109.717 18.4727C110.068 18.7122 110.279 19.11 110.279 19.5353V31.6458C110.279 32.1462 110.644 32.5715 111.139 32.6462C111.634 32.7209 112 33.1513 112 33.6517C112 34.2176 111.541 34.6823 110.975 34.6823H104.76C104.195 34.6823 103.737 34.2246 103.737 33.66C103.737 33.1525 104.117 32.7207 104.619 32.6473C105.13 32.5727 105.516 32.1336 105.516 31.6174V22.6566Z" fill="#F9F6F3"/>
<path fill-rule="evenodd" clip-rule="evenodd" d="M10.2157 19.6674C9.87624 19.4739 9.73759 19.3368 9.68302 19.2682C9.73759 19.1996 9.87624 19.0626 10.2157 18.8691C10.8153 18.5272 11.7743 18.1732 13.0827 17.8578C14.0904 17.6148 15.259 17.4055 16.5517 17.2403V14.7777C15.0024 14.9623 13.5869 15.2081 12.3568 15.5047C10.9195 15.8513 9.65662 16.2856 8.72072 16.8192C7.84656 17.3176 6.89655 18.1172 6.89655 19.2682V20.4877H5.11156C2.28852 20.4877 0 22.498 0 24.9778V26.9733C0 29.4531 2.28852 31.4634 5.11156 31.4634H7.528C9.28561 36.4111 14.5136 40 20.6897 40H26.2069C33.8246 40 40 34.54 40 27.8048V19.2682C40 18.1172 39.05 17.3176 38.1758 16.8192C37.2399 16.2856 35.977 15.8513 34.5397 15.5047C34.3636 15.4622 34.1836 15.4208 34 15.3804V17.9035C35.2135 18.2072 36.1101 18.5436 36.6809 18.8691C37.0203 19.0625 37.159 19.1996 37.2135 19.2682C37.159 19.3368 37.0203 19.4739 36.6809 19.6674C36.0813 20.0092 35.1222 20.3632 33.8139 20.6786C31.217 21.3048 27.5517 21.7072 23.4483 21.7072C19.3449 21.7072 15.6796 21.3048 13.0827 20.6786C11.7743 20.3632 10.8153 20.0092 10.2157 19.6674ZM9.65517 22.1743V27.8048C9.65517 33.193 14.5955 37.561 20.6897 37.561H26.2069C32.3011 37.561 37.2414 33.193 37.2414 27.8048V22.1743C36.4603 22.5054 35.5424 22.79 34.5397 23.0317C31.6453 23.7297 27.7244 24.1463 23.4483 24.1463C19.1722 24.1463 15.2513 23.7297 12.3568 23.0317C11.3541 22.79 10.4363 22.5054 9.65517 22.1743ZM5.11156 22.9268H6.89655V29.0243H5.11156C3.7951 29.0243 2.75862 28.0911 2.75862 26.9733V24.9778C2.75862 23.86 3.7951 22.9268 5.11156 22.9268Z" fill="#F9F6F3"/>
<path d="M17.4286 30.3834C18.7698 30.3834 19.8571 29.2602 19.8571 27.8747C19.8571 27.6481 19.8281 27.4286 19.7736 27.2199C19.7031 27.2379 19.6294 27.2475 19.5536 27.2475C19.0506 27.2475 18.6428 26.8263 18.6428 26.3067C18.6428 26.1184 18.6964 25.9431 18.7886 25.796C18.4006 25.5245 17.9325 25.366 17.4286 25.366C16.0873 25.366 15 26.4892 15 27.8747C15 29.2602 16.0873 30.3834 17.4286 30.3834Z" fill="#F9F6F3"/>
<path d="M25.9286 31.6378C25.9286 32.3031 25.6727 32.9412 25.2173 33.4117C24.7618 33.8822 24.1441 34.1465 23.5 34.1465C22.8559 34.1465 22.2382 33.8822 21.7827 33.4117C21.3273 32.9412 21.0714 32.3031 21.0714 31.6378H25.9286Z" fill="#F9F6F3"/>
<path d="M29.5714 30.3834C30.9127 30.3834 32 29.2602 32 27.8747C32 27.6481 31.9709 27.4286 31.9164 27.2199C31.846 27.2379 31.7723 27.2475 31.6964 27.2475C31.1934 27.2475 30.7857 26.8263 30.7857 26.3067C30.7857 26.1184 30.8393 25.9431 30.9315 25.796C30.5435 25.5245 30.0754 25.366 29.5714 25.366C28.2302 25.366 27.1429 26.4892 27.1429 27.8747C27.1429 29.2602 28.2302 30.3834 29.5714 30.3834Z" fill="#F9F6F3"/>
<path fill-rule="evenodd" clip-rule="evenodd" d="M17.4286 30.3834C18.7698 30.3834 19.8571 29.2602 19.8571 27.8747C19.8571 27.6481 19.8281 27.4286 19.7736 27.2199C19.7031 27.2379 19.6294 27.2475 19.5536 27.2475C19.0506 27.2475 18.6428 26.8263 18.6428 26.3067C18.6428 26.1184 18.6964 25.9431 18.7886 25.796C18.4006 25.5245 17.9325 25.366 17.4286 25.366C16.0873 25.366 15 26.4892 15 27.8747C15 29.2602 16.0873 30.3834 17.4286 30.3834ZM25.9286 31.6378C25.9286 32.3031 25.6727 32.9412 25.2173 33.4117C24.7618 33.8822 24.1441 34.1465 23.5 34.1465C22.8559 34.1465 22.2382 33.8822 21.7827 33.4117C21.3273 32.9412 21.0714 32.3031 21.0714 31.6378H25.9286ZM29.5714 30.3834C30.9127 30.3834 32 29.2602 32 27.8747C32 27.6481 31.9709 27.4286 31.9164 27.2199C31.846 27.2379 31.7723 27.2475 31.6964 27.2475C31.1934 27.2475 30.7857 26.8263 30.7857 26.3067C30.7857 26.1184 30.8393 25.9431 30.9315 25.796C30.5435 25.5245 30.0754 25.366 29.5714 25.366C28.2302 25.366 27.1429 26.4892 27.1429 27.8747C27.1429 29.2602 28.2302 30.3834 29.5714 30.3834Z" fill="#F9F6F3"/>
<path d="M31.6366 7.83511C29.2748 5.76644 24.934 6.50865 21.805 9.56137C19.2348 12.0688 18.2625 15.374 19.1722 17.7515C20.0448 14.7701 23.0033 13.6031 25.5442 13.0342C26.9911 12.7102 28.2711 12.2044 29.3113 11.3778C30.3214 10.5752 31.1305 9.45012 31.6366 7.83511Z" fill="#F9F6F3"/>
<path d="M19.8391 18.9239C19.9492 19.062 20.0685 19.1941 20.1973 19.3197C22.5154 21.5813 26.9936 20.8791 30.1996 17.7513C33.1398 14.8827 33.9889 10.9702 32.3214 8.59683C31.7612 10.1041 30.9241 11.2249 29.8778 12.0563C28.6955 12.9958 27.2726 13.5449 25.7449 13.887C22.9806 14.506 20.2524 15.7318 19.8637 18.8249C19.8593 18.8595 19.8509 18.8926 19.8391 18.9239Z" fill="#F9F6F3"/>
<path d="M27.1145 5.35121C25.344 5.4737 23.4128 6.2724 21.745 7.68082C21.786 6.20194 21.6027 4.7679 20.9976 3.45204C20.4452 2.25084 19.5522 1.17186 18.2049 0.253872C20.9863 -0.703288 24.6402 1.10951 26.7192 4.62275C26.8618 4.86359 26.9935 5.10669 27.1145 5.35121Z" fill="#F9F6F3"/>
<path d="M20.832 8.54267C20.8303 8.28751 20.8349 8.03564 20.8441 7.78894C20.8978 6.34159 20.7283 5.00441 20.1792 3.81023C19.6459 2.65061 18.7415 1.597 17.2735 0.702074C14.6141 2.39231 14.2254 6.67508 16.438 10.4139C16.9919 11.3499 17.6576 12.1652 18.3888 12.8396C18.7539 11.3713 19.5811 9.86137 20.832 8.54267Z" fill="#F9F6F3"/>
</svg>
