<svg width="110" height="40" viewBox="0 0 110 40" fill="none" xmlns="http://www.w3.org/2000/svg">
<path d="M15.7832 31.238C16.9979 31.238 17.9825 30.2147 17.9825 28.9523C17.9825 28.7459 17.9562 28.5459 17.9068 28.3557C17.843 28.3721 17.7763 28.3809 17.7076 28.3809C17.2521 28.3809 16.8829 27.9971 16.8829 27.5237C16.8829 27.3522 16.9314 27.1924 17.0149 27.0583C16.6635 26.811 16.2396 26.6666 15.7832 26.6666C14.5686 26.6666 13.5839 27.6899 13.5839 28.9523C13.5839 30.2147 14.5686 31.238 15.7832 31.238Z" fill="white"/>
<path d="M23.4808 32.3809C23.4808 32.9871 23.249 33.5685 22.8366 33.9971C22.4242 34.4258 21.8647 34.6666 21.2815 34.6666C20.6982 34.6666 20.1388 34.4258 19.7263 33.9971C19.3139 33.5685 19.0822 32.9871 19.0822 32.3809H23.4808Z" fill="white"/>
<path d="M26.7797 31.238C27.9943 31.238 28.979 30.2147 28.979 28.9523C28.979 28.7459 28.9527 28.5459 28.9033 28.3557C28.8395 28.3721 28.7728 28.3809 28.7041 28.3809C28.2486 28.3809 27.8794 27.9971 27.8794 27.5237C27.8794 27.3522 27.9279 27.1924 28.0114 27.0583C27.66 26.811 27.2361 26.6666 26.7797 26.6666C25.5651 26.6666 24.5804 27.6899 24.5804 28.9523C24.5804 30.2147 25.5651 31.238 26.7797 31.238Z" fill="white"/>
<path fill-rule="evenodd" clip-rule="evenodd" d="M15.7832 31.238C16.9979 31.238 17.9825 30.2147 17.9825 28.9523C17.9825 28.7459 17.9562 28.5459 17.9068 28.3557C17.843 28.3721 17.7763 28.3809 17.7076 28.3809C17.2521 28.3809 16.8829 27.9971 16.8829 27.5237C16.8829 27.3522 16.9314 27.1924 17.0149 27.0583C16.6635 26.811 16.2396 26.6666 15.7832 26.6666C14.5686 26.6666 13.5839 27.6899 13.5839 28.9523C13.5839 30.2147 14.5686 31.238 15.7832 31.238ZM23.4808 32.3809C23.4808 32.9871 23.249 33.5685 22.8366 33.9971C22.4242 34.4258 21.8647 34.6666 21.2815 34.6666C20.6982 34.6666 20.1388 34.4258 19.7263 33.9971C19.3139 33.5685 19.0822 32.9871 19.0822 32.3809H23.4808ZM26.7797 31.238C27.9943 31.238 28.979 30.2147 28.979 28.9523C28.979 28.7459 28.9527 28.5459 28.9033 28.3557C28.8395 28.3721 28.7728 28.3809 28.7041 28.3809C28.2486 28.3809 27.8794 27.9971 27.8794 27.5237C27.8794 27.3522 27.9279 27.1924 28.0114 27.0583C27.66 26.811 27.2361 26.6666 26.7797 26.6666C25.5651 26.6666 24.5804 27.6899 24.5804 28.9523C24.5804 30.2147 25.5651 31.238 26.7797 31.238Z" fill="white"/>
<path fill-rule="evenodd" clip-rule="evenodd" d="M9.25123 21.4745C8.94387 21.2982 8.8183 21.1733 8.76889 21.1108C8.8183 21.0483 8.94387 20.9235 9.25123 20.7472C9.79425 20.4357 10.6628 20.1132 11.8476 19.8258C12.7602 19.6044 13.8185 19.4137 14.9891 19.2632L14.1728 17.1255C13.0866 17.2779 12.0844 17.4649 11.1903 17.6818C9.88864 17.9976 8.74498 18.3934 7.89743 18.8795C7.1058 19.3336 6.24548 20.0622 6.24548 21.1108V22.2219H4.629C2.07247 22.2219 0 24.0535 0 26.3129V28.1311C0 30.3904 2.07247 32.222 4.629 32.222H6.81732C8.40899 36.7299 13.1434 39.9998 18.7364 39.9998H23.7328C30.6314 39.9998 36.2238 35.0252 36.2238 28.8886V21.1108C36.2238 20.0622 35.3634 19.3336 34.5718 18.8795C33.816 18.446 32.8246 18.0843 31.6958 17.7872L30.7902 19.8674C31.8892 20.1442 32.7011 20.4507 33.218 20.7472C33.5254 20.9235 33.6509 21.0483 33.7003 21.1108C33.6509 21.1733 33.5254 21.2982 33.218 21.4745C32.675 21.786 31.8065 22.1085 30.6216 22.3959C28.2699 22.9664 24.9506 23.3331 21.2346 23.3331C17.5186 23.3331 14.1993 22.9664 11.8476 22.3959C10.6628 22.1085 9.79425 21.786 9.25123 21.4745ZM8.74367 23.7586V28.8886C8.74367 33.7979 13.2176 37.7776 18.7364 37.7776H23.7328C29.2517 37.7776 33.7256 33.7979 33.7256 28.8886V23.7586C33.0182 24.0603 32.187 24.3195 31.279 24.5398C28.6578 25.1757 25.107 25.5553 21.2346 25.5553C17.3622 25.5553 13.8115 25.1757 11.1903 24.5398C10.2822 24.3195 9.45105 24.0603 8.74367 23.7586ZM4.629 24.4442H6.24548V29.9998H4.629C3.43682 29.9998 2.49819 29.1495 2.49819 28.1311V26.3129C2.49819 25.2944 3.43682 24.4442 4.629 24.4442Z" fill="white"/>
<path fill-rule="evenodd" clip-rule="evenodd" d="M17.9825 28.9523C17.9825 30.2147 16.9979 31.238 15.7832 31.238C14.5686 31.238 13.5839 30.2147 13.5839 28.9523C13.5839 27.6899 14.5686 26.6666 15.7832 26.6666C16.2396 26.6666 16.6635 26.811 17.0149 27.0583C16.9314 27.1924 16.8829 27.3522 16.8829 27.5237C16.8829 27.9971 17.2521 28.3809 17.7076 28.3809C17.7763 28.3809 17.843 28.3721 17.9068 28.3557C17.9562 28.5459 17.9825 28.7459 17.9825 28.9523ZM22.8366 33.9971C23.249 33.5685 23.4808 32.9871 23.4808 32.3809H19.0822C19.0822 32.9871 19.3139 33.5685 19.7263 33.9971C20.1388 34.4258 20.6982 34.6666 21.2815 34.6666C21.8647 34.6666 22.4242 34.4258 22.8366 33.9971ZM28.979 28.9523C28.979 30.2147 27.9943 31.238 26.7797 31.238C25.5651 31.238 24.5804 30.2147 24.5804 28.9523C24.5804 27.6899 25.5651 26.6666 26.7797 26.6666C27.2361 26.6666 27.66 26.811 28.0114 27.0583C27.9279 27.1924 27.8794 27.3522 27.8794 27.5237C27.8794 27.9971 28.2486 28.3809 28.7041 28.3809C28.7728 28.3809 28.8395 28.3721 28.9033 28.3557C28.9527 28.5459 28.979 28.7459 28.979 28.9523Z" fill="white"/>
<path d="M55.6399 35.4614C53.3795 35.4614 51.438 35.0348 49.8151 34.1814C48.1923 33.3281 46.9462 32.1239 46.0768 30.569C45.2268 29.014 44.8018 27.1935 44.8018 25.1076C44.8018 23.0217 45.2268 21.2107 46.0768 19.6747C46.9462 18.1197 48.1923 16.9156 49.8151 16.0622C51.438 15.2089 53.3795 14.7822 55.6399 14.7822C56.9923 14.7822 58.2963 14.9908 59.5521 15.408C60.8078 15.8062 61.8221 16.3372 62.5949 17.0009L61.001 21.1254C60.151 20.5185 59.3009 20.0729 58.4509 19.7885C57.6008 19.4851 56.7315 19.3334 55.8428 19.3334C54.0461 19.3334 52.6937 19.8359 51.7857 20.8409C50.8777 21.827 50.4237 23.2492 50.4237 25.1076C50.4237 26.9849 50.8777 28.4261 51.7857 29.4312C52.6937 30.4173 54.0461 30.9103 55.8428 30.9103C56.7315 30.9103 57.6008 30.7681 58.4509 30.4836C59.3009 30.1802 60.151 29.7251 61.001 29.1183L62.5949 33.2427C61.8221 33.9065 60.8078 34.4469 59.5521 34.8641C58.2963 35.2623 56.9923 35.4614 55.6399 35.4614Z" fill="white"/>
<path d="M74.3635 35.4614C72.2963 35.4614 70.4803 35.0348 68.9155 34.1814C67.3699 33.3091 66.1625 32.0955 65.2931 30.5405C64.4237 28.9855 63.989 27.1746 63.989 25.1076C63.989 23.0217 64.4141 21.2107 65.2641 19.6747C66.1335 18.1197 67.3506 16.9156 68.9155 16.0622C70.4803 15.2089 72.2963 14.7822 74.3635 14.7822C76.4307 14.7822 78.237 15.2089 79.7826 16.0622C81.3475 16.9156 82.5646 18.1197 83.4339 19.6747C84.3033 21.2107 84.738 23.0217 84.738 25.1076C84.738 27.1746 84.3033 28.9855 83.4339 30.5405C82.5646 32.0955 81.3475 33.3091 79.7826 34.1814C78.237 35.0348 76.4307 35.4614 74.3635 35.4614ZM74.3635 31.081C75.8704 31.081 77.0489 30.5595 77.899 29.5165C78.7683 28.4546 79.203 26.9849 79.203 25.1076C79.203 23.2303 78.778 21.7701 77.9279 20.7271C77.0779 19.6842 75.8897 19.1627 74.3635 19.1627C72.8373 19.1627 71.6492 19.6842 70.7991 20.7271C69.949 21.7701 69.524 23.2303 69.524 25.1076C69.524 26.9849 69.949 28.4546 70.7991 29.5165C71.6492 30.5595 72.8373 31.081 74.3635 31.081Z" fill="white"/>
<path d="M87.8863 35.1485V15.0951H102.144V19.1342H93.2184V23.1734H101.506V27.1841H93.2184V35.1485H87.8863Z" fill="white"/>
<path d="M104.668 35.1485V15.0951H110V35.1485H104.668Z" fill="white"/>
<path d="M25.1825 18.8974L27.742 14.5417L26.319 10.609L27.4863 11.2705L29.3084 15.5778L26.7489 19.9334L22.3173 20.0649L21.1471 19.4018L25.1825 18.8974Z" fill="white"/>
<path fill-rule="evenodd" clip-rule="evenodd" d="M25.1825 18.8974L27.742 14.5417L26.319 10.609L27.4863 11.2705L29.3084 15.5778L26.7489 19.9334L22.3173 20.0649L21.1471 19.4018L25.1825 18.8974ZM26.1363 19.0596L28.2652 15.4368L28.2974 15.5129L26.2146 19.0573L26.1363 19.0596Z" fill="white"/>
<path fill-rule="evenodd" clip-rule="evenodd" d="M25.755 11.5685L27.0453 14.4707L24.9177 18.0878L21.712 18.442L20.4216 15.5399L22.5492 11.9227L25.755 11.5685ZM21.9914 11.0871L26.3194 10.6089L28.0615 14.5271L25.4756 18.9235L21.1475 19.4017L19.4054 15.4835L21.9914 11.0871Z" fill="white"/>
<path d="M14.628 13.5639L12.0685 9.20824L13.4915 5.27549L12.3242 5.93702L10.5021 10.2443L13.0616 14.5999L17.4933 14.7314L18.6634 14.0683L14.628 13.5639Z" fill="white"/>
<path fill-rule="evenodd" clip-rule="evenodd" d="M14.628 13.5639L12.0685 9.20824L13.4915 5.27549L12.3242 5.93702L10.5021 10.2443L13.0616 14.5999L17.4933 14.7314L18.6634 14.0683L14.628 13.5639ZM13.6743 13.7261L11.5454 10.1033L11.5131 10.1794L13.5959 13.7238L13.6743 13.7261Z" fill="white"/>
<path fill-rule="evenodd" clip-rule="evenodd" d="M14.0566 6.23501L12.7662 9.13717L14.8938 12.7543L18.0996 13.1086L19.3899 10.2064L17.2623 6.58923L14.0566 6.23501ZM17.8201 5.7536L13.4921 5.27538L11.75 9.19356L14.336 13.59L18.664 14.0682L20.4061 10.15L17.8201 5.7536Z" fill="white"/>
<path d="M24.2241 8.65163L26.4366 4.88648L25.2065 1.48689L26.2156 2.05874L27.7907 5.78206L25.5781 9.54721L21.7473 9.6609L20.7358 9.08766L24.2241 8.65163Z" fill="white"/>
<path fill-rule="evenodd" clip-rule="evenodd" d="M27.7907 5.78206L25.5781 9.54721L21.7473 9.6609L20.7358 9.08766L24.2241 8.65163L26.4366 4.88648L25.2065 1.48689L26.2156 2.05874L27.7907 5.78206Z" fill="white"/>
<path fill-rule="evenodd" clip-rule="evenodd" d="M24.642 2.44646L25.6962 4.81743L23.9192 7.83859L21.3002 8.12797L20.246 5.757L22.023 2.73584L24.642 2.44646ZM21.4652 1.90022L25.2065 1.48683L26.7124 4.87383L24.477 8.67421L20.7357 9.0876L19.2298 5.7006L21.4652 1.90022Z" fill="white"/>
</svg>
