<svg width="24" height="24" viewBox="0 0 24 24" fill="none" xmlns="http://www.w3.org/2000/svg">
<path d="M6.11666 0.912835C6.6659 0.357771 7.41315 0.0436247 8.19401 0.0395077L15.6797 4.09779e-05C16.4605 -0.00407598 17.211 0.302172 17.7661 0.851415L23.0872 6.11666C23.6422 6.6659 23.9564 7.41315 23.9605 8.19401L24 15.6797C24.0041 16.4605 23.6978 17.211 23.1486 17.7661L17.8833 23.0872C17.3341 23.6422 16.5869 23.9564 15.806 23.9605L8.32034 24C7.53948 24.0041 6.78896 23.6978 6.23389 23.1486L0.912835 17.8833C0.357771 17.3341 0.0436247 16.5869 0.0395077 15.806L4.09779e-05 8.32034C-0.00407598 7.53948 0.302172 6.78896 0.851415 6.23389L6.11666 0.912835Z" fill="#394A46"/>
<path d="M11.8247 1.26562L7.875 7.78125L11.8247 5.97656V1.26562Z" fill="#FFECF5"/>
<path d="M11.8247 6.42188L7.875 8.20312L11.8247 10.6172V6.42188Z" fill="#FFECF5"/>
<path d="M12.1753 10.6172V6.42188L16.125 8.20312L12.1753 10.6172Z" fill="#FFECF5"/>
<path d="M12.1753 1.26562V5.97656L16.125 7.78125L12.1753 1.26562Z" fill="#FFECF5"/>
<path d="M8.15545 9.70312L11.8247 11.9062V15.0469L8.15545 9.70312Z" fill="#FFECF5"/>
<path d="M15.8913 9.70312L12.1753 11.9062V15.0469L15.8913 9.70312Z" fill="#FFECF5"/>
<path d="M15.1944 16.5523C15.3353 16.6249 15.3144 16.8109 15.1806 16.8959C12.6459 18.5072 13.9457 21.2029 11.6173 22.1078C11.5444 22.1361 11.4594 22.1238 11.3999 22.0731C10.2406 21.0856 10.401 19.1053 11.4273 17.8775C13.0162 16.1158 14.5035 16.1961 15.1944 16.5523Z" fill="#FFECF5"/>
<path d="M16.3116 17.5138C16.2637 17.4476 16.1783 17.419 16.0981 17.4353C13.6066 17.9435 14.5852 20.3722 12.7028 22.335C12.5893 22.4533 12.6186 22.6477 12.7786 22.6846C13.4637 22.843 14.684 22.693 15.8553 21.194C17.1598 19.5245 16.7427 18.1099 16.3116 17.5138Z" fill="#FFECF5"/>
<path d="M10.077 18.9852C9.81461 20.0689 10.0926 21.1028 10.2644 21.4842C8.70879 21.3347 7.21878 19.9895 7.21875 18.9852C7.24218 18.448 9.16331 18.2612 10.077 18.9852Z" fill="#FFECF5"/>
<path d="M10.3119 18.2845C9.74792 17.8453 8.2141 17.6539 7.46809 17.9239C7.40433 17.9469 7.33268 17.9052 7.34003 17.838C7.44784 16.8518 9.15632 15.1719 12.2799 16.4395C11.3896 16.7898 10.6164 17.724 10.3119 18.2845Z" fill="#FFECF5"/>
</svg>
