<svg width="20" height="20" viewBox="0 0 20 20" fill="none" xmlns="http://www.w3.org/2000/svg">
<g clip-path="url(#clip0_103_540)">
<path fill-rule="evenodd" clip-rule="evenodd" d="M6.30137 0.0456535C5.99299 0.129322 5.6928 0.26354 5.46601 0.419147C5.34655 0.501109 4.20103 1.61898 2.8659 2.9564C0.317807 5.50894 0.315842 5.51116 0.116707 6.07378L0.0139738 6.36393L0.00418801 9.89591C-0.00665277 13.8008 -0.0146197 13.6479 0.226788 14.165C0.293761 14.3084 0.423559 14.5238 0.515269 14.6436C0.606943 14.7635 1.72667 15.9008 3.00359 17.171C4.71957 18.878 5.38216 19.5143 5.5435 19.6102C5.82962 19.7802 6.10518 19.8868 6.40749 19.9446L6.65304 19.9916V18.6545C6.65304 17.3423 6.66749 17.1544 6.77357 17.0871C6.79732 17.072 6.98202 17.0594 7.18399 17.0591C7.49401 17.0586 7.56061 17.0689 7.61144 17.125C7.66528 17.1843 7.67164 17.3399 7.67164 18.5957V20H8.14456H8.61748V18.6587C8.61748 17.3423 8.63189 17.1544 8.738 17.0871C8.76176 17.072 9.23548 17.0594 9.79069 17.0591C10.7521 17.0586 10.8036 17.062 10.8729 17.1312C10.9432 17.2013 10.9457 17.2522 10.9457 18.6019V20H11.4368H11.9279V18.6587C11.9279 17.3423 11.9423 17.1544 12.0484 17.0871C12.0722 17.072 12.2569 17.0594 12.4589 17.0591C12.7689 17.0586 12.8355 17.0689 12.8863 17.125C12.9402 17.1843 12.9465 17.3399 12.9465 18.5957V20H13.1299C13.3594 20 13.8073 19.9091 14.052 19.8129C14.5126 19.6319 14.6115 19.5432 16.9961 17.171C18.2731 15.9008 19.3928 14.7635 19.4845 14.6436C19.5762 14.5238 19.706 14.3084 19.7729 14.165C20.0148 13.647 20.0067 13.802 19.9957 9.87706L19.9858 6.32762L19.8817 6.05526C19.6675 5.49485 19.6641 5.49093 17.1156 2.94006C15.535 1.35795 14.635 0.483533 14.4895 0.388643C14.3678 0.309224 14.1305 0.191311 13.9621 0.126598L13.6559 0.00890328L10.0726 0.00178565C7.09253 -0.0041336 6.45769 0.00323824 6.30137 0.0456535ZM10.5819 3.45405V4.01221L11.1731 4.03124C11.5607 4.04369 11.8268 4.06995 11.9461 4.10742C12.3975 4.24938 12.7255 4.55769 12.8785 4.98398C12.9443 5.1673 12.9594 5.30703 12.9738 5.86461L12.9909 6.52734H12.1138H11.2367L11.2362 6.15512C11.2359 5.95042 11.2233 5.76351 11.2081 5.73979C11.1396 5.63219 10.9524 5.61948 9.43363 5.61948C8.5846 5.61948 7.88991 5.63234 7.88991 5.64803C7.88991 5.66375 8.05362 5.81188 8.2537 5.97725L8.61748 6.2779V6.49688C8.61748 6.76687 8.69879 6.89703 8.91808 6.97819C9.00284 7.00956 9.62895 7.15744 10.3094 7.3068C10.9898 7.45612 11.6406 7.61064 11.7556 7.65011C12.4777 7.89814 12.9507 8.33853 13.0789 8.88244C13.1382 9.1337 13.1462 10.6432 13.0901 10.994C13.0091 11.5017 12.7317 11.8924 12.3154 12.0855C12.022 12.2215 11.7311 12.2644 11.1003 12.2647L10.5819 12.265V12.8279V13.3908H9.87254H9.16316V12.8326V12.2745L8.57201 12.2554C8.18436 12.243 7.91825 12.2167 7.79897 12.1793C7.34766 12.0373 7.01985 11.7292 6.8664 11.3027C6.79947 11.1167 6.78553 10.9824 6.77124 10.3858L6.75447 9.6867H7.63141H8.50835V10.1017C8.50835 10.562 8.52886 10.6112 8.73688 10.6497C8.80127 10.6617 9.38336 10.6664 10.0304 10.6603L11.2069 10.649L11.2764 10.5633C11.3369 10.4886 11.3459 10.4161 11.3457 10.0004C11.3456 9.46558 11.3049 9.34309 11.0909 9.23259C11.0289 9.2006 10.4184 9.05236 9.73416 8.90318C9.04995 8.754 8.38375 8.59763 8.2537 8.55565C7.64694 8.35981 7.17853 8.00581 6.97201 7.58693L6.85313 7.34587V6.25571C6.85313 5.19776 6.85564 5.15934 6.93803 4.95558C7.10778 4.53579 7.40048 4.25773 7.80959 4.12758C7.99727 4.06788 8.18174 4.04554 8.60839 4.03094L9.16316 4.01192V3.45391V2.8959H9.87254H10.5819V3.45405ZM14.4017 14.9029C14.4017 14.9156 14.3095 15.0643 14.1969 15.2332C13.9426 15.6148 13.5377 16.0252 13.2739 16.1688L13.0738 16.2778H9.87254H6.67123L6.52321 16.1987C6.26136 16.0588 6.01086 15.835 5.77043 15.5261C5.5479 15.2403 5.34342 14.9397 5.34342 14.8985C5.34342 14.8882 7.38152 14.8797 9.87254 14.8797C12.3636 14.8797 14.4017 14.8901 14.4017 14.9029Z" fill="#345EEB"/>
</g>
<defs>
<clipPath id="clip0_103_540">
<rect width="20" height="20" fill="white"/>
</clipPath>
</defs>
</svg>
