<svg width="20" height="20" viewBox="0 0 20 20" fill="none" xmlns="http://www.w3.org/2000/svg">
<g clip-path="url(#clip0_103_542)">
<path d="M19.0109 1L11.1978 6.78107L12.6507 3.3741L19.0109 1Z" fill="#E17726" stroke="#E17726" stroke-width="0.25" stroke-linecap="round" stroke-linejoin="round"/>
<path d="M0.989166 1L8.73261 6.83503L7.34931 3.37409L0.989166 1Z" fill="#E27625" stroke="#E27625" stroke-width="0.25" stroke-linecap="round" stroke-linejoin="round"/>
<path d="M16.1977 14.4043L14.1189 17.58L18.5702 18.8056L19.8453 14.4737L16.1977 14.4043Z" fill="#E27625" stroke="#E27625" stroke-width="0.25" stroke-linecap="round" stroke-linejoin="round"/>
<path d="M0.162231 14.4737L1.42961 18.8056L5.87322 17.58L3.80211 14.4043L0.162231 14.4737Z" fill="#E27625" stroke="#E27625" stroke-width="0.25" stroke-linecap="round" stroke-linejoin="round"/>
<path d="M5.6336 9.03956L4.39715 10.9049L8.80209 11.1053L8.65528 6.36487L5.6336 9.03956Z" fill="#E27625" stroke="#E27625" stroke-width="0.25" stroke-linecap="round" stroke-linejoin="round"/>
<path d="M14.3662 9.03963L11.2982 6.31097L11.1977 11.1054L15.6026 10.905L14.3662 9.03963Z" fill="#E27625" stroke="#E27625" stroke-width="0.25" stroke-linecap="round" stroke-linejoin="round"/>
<path d="M5.87328 17.5801L8.5394 16.2929L6.24423 14.5046L5.87328 17.5801Z" fill="#E27625" stroke="#E27625" stroke-width="0.25" stroke-linecap="round" stroke-linejoin="round"/>
<path d="M11.4606 16.2929L14.119 17.5801L13.7558 14.5046L11.4606 16.2929Z" fill="#E27625" stroke="#E27625" stroke-width="0.25" stroke-linecap="round" stroke-linejoin="round"/>
<path d="M14.119 17.5802L11.4606 16.293L11.677 18.0196L11.6538 18.7518L14.119 17.5802Z" fill="#D5BFB2" stroke="#D5BFB2" stroke-width="0.25" stroke-linecap="round" stroke-linejoin="round"/>
<path d="M5.87328 17.5802L8.34625 18.7518L8.33078 18.0196L8.5394 16.293L5.87328 17.5802Z" fill="#D5BFB2" stroke="#D5BFB2" stroke-width="0.25" stroke-linecap="round" stroke-linejoin="round"/>
<path d="M8.39252 13.3638L6.1823 12.7164L7.74335 11.9995L8.39252 13.3638Z" fill="#233447" stroke="#233447" stroke-width="0.25" stroke-linecap="round" stroke-linejoin="round"/>
<path d="M11.6074 13.3638L12.2566 11.9995L13.8254 12.7164L11.6074 13.3638Z" fill="#233447" stroke="#233447" stroke-width="0.25" stroke-linecap="round" stroke-linejoin="round"/>
<path d="M5.87322 17.58L6.25964 14.4043L3.80214 14.4737L5.87322 17.58Z" fill="#CC6228" stroke="#CC6228" stroke-width="0.25" stroke-linecap="round" stroke-linejoin="round"/>
<path d="M13.7402 14.4043L14.1189 17.58L16.1977 14.4737L13.7402 14.4043Z" fill="#CC6228" stroke="#CC6228" stroke-width="0.25" stroke-linecap="round" stroke-linejoin="round"/>
<path d="M15.6026 10.9048L11.1977 11.1053L11.6073 13.3638L12.2565 11.9994L13.8252 12.7163L15.6026 10.9048Z" fill="#CC6228" stroke="#CC6228" stroke-width="0.25" stroke-linecap="round" stroke-linejoin="round"/>
<path d="M6.18231 12.7163L7.74335 11.9994L8.39253 13.3638L8.80209 11.1053L4.39715 10.9048L6.18231 12.7163Z" fill="#CC6228" stroke="#CC6228" stroke-width="0.25" stroke-linecap="round" stroke-linejoin="round"/>
<path d="M4.39729 10.9048L6.24429 14.5046L6.18243 12.7163L4.39729 10.9048Z" fill="#E27525" stroke="#E27525" stroke-width="0.25" stroke-linecap="round" stroke-linejoin="round"/>
<path d="M13.8254 12.7163L13.7558 14.5046L15.6028 10.9048L13.8254 12.7163Z" fill="#E27525" stroke="#E27525" stroke-width="0.25" stroke-linecap="round" stroke-linejoin="round"/>
<path d="M8.80232 11.1052L8.3927 13.3637L8.91047 16.0307L9.02641 12.5158L8.80232 11.1052Z" fill="#E27525" stroke="#E27525" stroke-width="0.25" stroke-linecap="round" stroke-linejoin="round"/>
<path d="M11.1978 11.1052L10.9814 12.5082L11.0896 16.0307L11.6074 13.3637L11.1978 11.1052Z" fill="#E27525" stroke="#E27525" stroke-width="0.25" stroke-linecap="round" stroke-linejoin="round"/>
<path d="M11.6074 13.3638L11.0896 16.0308L11.4606 16.2929L13.7558 14.5046L13.8254 12.7163L11.6074 13.3638Z" fill="#F5841F" stroke="#F5841F" stroke-width="0.25" stroke-linecap="round" stroke-linejoin="round"/>
<path d="M6.1823 12.7163L6.24417 14.5046L8.53934 16.2929L8.91029 16.0308L8.39252 13.3638L6.1823 12.7163Z" fill="#F5841F" stroke="#F5841F" stroke-width="0.25" stroke-linecap="round" stroke-linejoin="round"/>
<path d="M11.6538 18.7517L11.677 18.0194L11.4761 17.8498H8.52399L8.33078 18.0194L8.34625 18.7517L5.87328 17.5801L6.7388 18.2892L8.49306 19.4994H11.4992L13.2612 18.2892L14.119 17.5801L11.6538 18.7517Z" fill="#C0AC9D" stroke="#C0AC9D" stroke-width="0.25" stroke-linecap="round" stroke-linejoin="round"/>
<path d="M11.4605 16.2928L11.0896 16.0308H8.9103L8.5394 16.2928L8.33072 18.0195L8.52393 17.8499H11.476L11.677 18.0195L11.4605 16.2928Z" fill="#161616" stroke="#161616" stroke-width="0.25" stroke-linecap="round" stroke-linejoin="round"/>
<path d="M19.3431 7.15875L20 3.96762L19.0108 1L11.4606 6.58839L14.3663 9.03953L18.4698 10.2343L19.374 9.17832L18.9799 8.89308L19.6058 8.32272L19.1267 7.95272L19.7527 7.4748L19.3431 7.15875Z" fill="#763E1A" stroke="#763E1A" stroke-width="0.25" stroke-linecap="round" stroke-linejoin="round"/>
<path d="M0 3.96762L0.664606 7.15875L0.23957 7.4748L0.873261 7.95272L0.394127 8.32272L1.02009 8.89308L0.625964 9.17832L1.53014 10.2343L5.63372 9.03953L8.5394 6.58839L0.989182 1L0 3.96762Z" fill="#763E1A" stroke="#763E1A" stroke-width="0.25" stroke-linecap="round" stroke-linejoin="round"/>
<path d="M18.4699 10.2343L14.3663 9.03955L15.6028 10.9049L13.7558 14.5046L16.1979 14.4738H19.8454L18.4699 10.2343Z" fill="#F5841F" stroke="#F5841F" stroke-width="0.25" stroke-linecap="round" stroke-linejoin="round"/>
<path d="M5.63361 9.03955L1.53008 10.2343L0.162231 14.4738H3.80211L6.24412 14.5046L4.39716 10.9049L5.63361 9.03955Z" fill="#F5841F" stroke="#F5841F" stroke-width="0.25" stroke-linecap="round" stroke-linejoin="round"/>
<path d="M11.1978 11.1053L11.4605 6.58833L12.6506 3.37408H7.34925L8.53934 6.58833L8.80209 11.1053L8.90256 12.5236L8.91029 16.0308H11.0896L11.0973 12.5236L11.1978 11.1053Z" fill="#F5841F" stroke="#F5841F" stroke-width="0.25" stroke-linecap="round" stroke-linejoin="round"/>
</g>
<defs>
<clipPath id="clip0_103_542">
<rect width="20" height="20" fill="white"/>
</clipPath>
</defs>
</svg>
