<svg width="28" height="28" viewBox="0 0 28 28" fill="none" xmlns="http://www.w3.org/2000/svg">
<g clip-path="url(#clip0_103_545)">
<path fill-rule="evenodd" clip-rule="evenodd" d="M8.82192 0.0639149C8.39019 0.181051 7.96992 0.368956 7.65242 0.586806C7.48517 0.701553 5.88144 2.26657 4.01226 4.13896C0.44493 7.71252 0.442179 7.71562 0.163389 8.50329L0.0195633 8.9095L0.00586322 13.8543C-0.00931388 19.3211 -0.0204676 19.1071 0.317503 19.8309C0.411265 20.0318 0.592983 20.3333 0.721377 20.5011C0.84972 20.6688 2.41734 22.2611 4.20503 24.0394C6.60739 26.4292 7.53503 27.3201 7.7609 27.4542C8.16146 27.6922 8.54726 27.8416 8.97049 27.9225L9.31426 27.9882V26.1163C9.31426 24.2792 9.33448 24.0161 9.48299 23.9219C9.51625 23.9008 9.77482 23.8832 10.0576 23.8827C10.4916 23.882 10.5849 23.8964 10.656 23.9749C10.7314 24.0581 10.7403 24.2759 10.7403 26.034V28H11.4024H12.0645V26.1222C12.0645 24.2792 12.0846 24.0162 12.2332 23.9219C12.2665 23.9008 12.9297 23.8832 13.707 23.8827C15.0529 23.882 15.1251 23.8868 15.2221 23.9836C15.3205 24.0818 15.324 24.1531 15.324 26.0427V28H16.0115H16.6991V26.1222C16.6991 24.2792 16.7193 24.0162 16.8678 23.9219C16.9011 23.9008 17.1596 23.8832 17.4424 23.8827C17.8764 23.882 17.9697 23.8964 18.0408 23.9749C18.1162 24.0581 18.1251 24.2759 18.1251 26.034V28H18.3819C18.7031 28 19.3302 27.8728 19.6728 27.7381C20.3177 27.4846 20.456 27.3605 23.7946 24.0394C25.5823 22.2611 27.1499 20.6688 27.2782 20.5011C27.4066 20.3333 27.5884 20.0318 27.6821 19.8309C28.0207 19.1058 28.0094 19.3228 27.994 13.8279L27.9801 8.85866L27.8343 8.47736C27.5346 7.69279 27.5297 7.6873 23.9619 4.11608C21.749 1.90113 20.489 0.676946 20.2854 0.544101C20.115 0.432913 19.7826 0.267835 19.5469 0.177238L19.1183 0.0124646L14.1017 0.00249991C9.92955 -0.00578705 9.04077 0.00453353 8.82192 0.0639149ZM14.8147 4.83568V5.61709L15.6423 5.64373C16.185 5.66117 16.5576 5.69793 16.7246 5.75039C17.3565 5.94913 17.8157 6.38076 18.0299 6.97757C18.122 7.23422 18.1432 7.42985 18.1633 8.21045L18.1872 9.13828H16.9593H15.7314L15.7307 8.61717C15.7302 8.33058 15.7126 8.06891 15.6914 8.03571C15.5954 7.88507 15.3333 7.86728 13.2071 7.86728C12.0184 7.86728 11.0459 7.88527 11.0459 7.90724C11.0459 7.92925 11.2751 8.13663 11.5552 8.36816L12.0645 8.78906V9.09563C12.0645 9.47362 12.1783 9.65584 12.4853 9.76946C12.604 9.81339 13.4805 10.0204 14.4331 10.2295C15.3858 10.4386 16.2968 10.6549 16.4578 10.7102C17.4688 11.0574 18.1309 11.6739 18.3105 12.4354C18.3934 12.7872 18.4047 14.9005 18.3262 15.3916C18.2127 16.1023 17.8243 16.6494 17.2415 16.9196C16.8307 17.1101 16.4236 17.1702 15.5404 17.1706L14.8147 17.171V17.9591V18.7471H13.8216H12.8284V17.9657V17.1843L12.0008 17.1576C11.4581 17.1402 11.0856 17.1034 10.9186 17.051C10.2867 16.8523 9.82779 16.4209 9.61297 15.8238C9.51926 15.5634 9.49975 15.3754 9.47973 14.5401L9.45625 13.5614H10.684H11.9117V14.1424C11.9117 14.7867 11.9404 14.8556 12.2316 14.9096C12.3218 14.9263 13.1367 14.933 14.0426 14.9244L15.6896 14.9086L15.7869 14.7886C15.8717 14.684 15.8842 14.5826 15.884 14.0006C15.8838 13.2518 15.8269 13.0803 15.5272 12.9256C15.4404 12.8808 14.5857 12.6733 13.6278 12.4645C12.6699 12.2556 11.7372 12.0367 11.5552 11.9779C10.7057 11.7037 10.0499 11.2081 9.76082 10.6217L9.59438 10.2842V8.758C9.59438 7.27687 9.59789 7.22308 9.71325 6.93782C9.95089 6.3501 10.3607 5.96082 10.9334 5.77861C11.1962 5.69503 11.4544 5.66376 12.0517 5.64332L12.8284 5.61668V4.83547V4.05426H13.8216H14.8147V4.83568ZM20.1623 20.864C20.1623 20.8819 20.0333 21.09 19.8757 21.3265C19.5196 21.8607 18.9528 22.4353 18.5835 22.6364L18.3034 22.7889H13.8216H9.33973L9.13249 22.6781C8.7659 22.4823 8.4152 22.1689 8.0786 21.7365C7.76706 21.3364 7.48079 20.9156 7.48079 20.858C7.48079 20.8434 10.3341 20.8315 13.8216 20.8315C17.309 20.8315 20.1623 20.8461 20.1623 20.864Z" fill="#345EEB"/>
</g>
<defs>
<clipPath id="clip0_103_545">
<rect width="28" height="28" fill="white"/>
</clipPath>
</defs>
</svg>
