<svg width="36" height="36" viewBox="0 0 36 36" fill="none" xmlns="http://www.w3.org/2000/svg">
<path d="M18.6666 7.14103C18.7955 7.19436 18.9278 7.23324 19.0616 7.27265C19.1394 7.29695 19.2136 7.32482 19.2889 7.3561C19.3948 7.4001 19.5011 7.43546 19.6111 7.46825C19.7706 7.51595 19.9241 7.57352 20.0789 7.63459C20.2027 7.68098 20.3286 7.71811 20.4552 7.75586C20.5572 7.78813 20.6547 7.82791 20.7534 7.8689C20.8368 7.90109 20.9211 7.92691 21.0067 7.95246C21.1663 8.00016 21.3198 8.05773 21.4746 8.1188C21.5984 8.16519 21.7243 8.20232 21.8509 8.24007C21.9528 8.2723 22.0501 8.31202 22.1487 8.353C22.234 8.38588 22.3202 8.41227 22.4078 8.43845C22.5195 8.47186 22.6276 8.50764 22.7353 8.55238C22.8413 8.59638 22.9476 8.63174 23.0575 8.66453C23.219 8.7128 23.3746 8.7711 23.5314 8.83287C23.6074 8.86158 23.6826 8.8861 23.7607 8.90842C23.8709 8.93992 23.9763 8.97856 24.0829 9.02057C24.207 9.0693 24.3308 9.11246 24.4585 9.15052C24.6183 9.19812 24.772 9.256 24.927 9.31708C25.0252 9.35415 25.1241 9.38342 25.2249 9.41221C25.3453 9.44993 25.4617 9.49785 25.5791 9.54394C25.6562 9.57292 25.7324 9.5979 25.8115 9.62049C25.9216 9.65199 26.0271 9.69064 26.1337 9.73264C26.2578 9.78137 26.3815 9.82453 26.5093 9.8626C26.6671 9.90962 26.8187 9.96677 26.9718 10.0272C27.0956 10.0735 27.2215 10.1107 27.3481 10.1484C27.4501 10.1807 27.5475 10.2204 27.6462 10.2615C27.7302 10.2938 27.8151 10.3195 27.9014 10.345C28.0546 10.3908 28.1987 10.4481 28.3453 10.5114C28.4658 10.5598 28.5891 10.5956 28.7136 10.6324C28.8195 10.6656 28.9209 10.7064 29.0234 10.7489C29.1097 10.783 29.1966 10.8076 29.2864 10.831C29.2864 10.8498 29.2864 10.8686 29.2864 10.888C27.8754 10.893 26.4644 10.8976 25.0534 10.902C24.9698 10.9022 24.8861 10.9025 24.8025 10.9027C21.6239 10.9125 18.4452 10.9181 12.5906 10.9183C12.4882 10.9182 12.3859 10.9182 12.2835 10.9182C10.5551 10.9179 8.82663 10.9173 7.09819 10.9165C7.09819 10.8883 7.09819 10.8601 7.09819 10.831C7.21089 10.7899 7.32365 10.749 7.43642 10.7082C7.468 10.6967 7.49958 10.6852 7.53211 10.6733C7.69735 10.6135 7.86252 10.5578 8.0312 10.5086C8.1273 10.4794 8.22049 10.4437 8.31405 10.4073C8.49346 10.3389 8.67411 10.2763 8.85656 10.2163C9.00971 10.1657 9.16212 10.113 9.31452 10.0602C9.3553 10.0462 9.3553 10.0462 9.39691 10.0318C9.52721 9.9866 9.65613 9.93953 9.78393 9.88763C9.88906 9.84495 9.99402 9.80864 10.1031 9.77715C10.2149 9.74374 10.323 9.70796 10.4307 9.66322C10.5689 9.60577 10.7102 9.56366 10.8535 9.5208C10.9565 9.48816 11.0549 9.44822 11.1546 9.40676C11.2386 9.37439 11.3235 9.34873 11.4098 9.3232C11.564 9.27725 11.7095 9.2205 11.8563 9.15475C11.9396 9.12231 12.0226 9.10111 12.1095 9.08047C12.2049 9.05543 12.2954 9.01924 12.3871 8.98319C12.5289 8.92855 12.6703 8.87844 12.8161 8.83543C12.9358 8.79997 13.0489 8.75876 13.1633 8.70904C13.3198 8.64135 13.4782 8.5961 13.6425 8.55138C13.7414 8.52191 13.8297 8.48278 13.9225 8.43845C14.0425 8.38858 14.1687 8.35893 14.2939 8.32474C14.3954 8.29438 14.4875 8.25633 14.5819 8.20859C14.6569 8.1777 14.7333 8.16076 14.812 8.14193C14.9186 8.11308 15.0194 8.07056 15.1215 8.02901C15.304 7.9562 15.4864 7.89273 15.6751 7.83731C15.7755 7.80605 15.8712 7.76657 15.9683 7.72627C16.0517 7.69408 16.1359 7.66826 16.2216 7.64271C16.3494 7.60452 16.4732 7.56168 16.5972 7.51276C16.7514 7.45196 16.9068 7.40247 17.0655 7.35521C17.1453 7.32994 17.2214 7.30106 17.2986 7.26887C17.4201 7.21831 17.5419 7.18504 17.6694 7.15283C17.759 7.12576 17.8403 7.08906 17.9253 7.04991C18.2057 6.93176 18.3998 7.02909 18.6666 7.14103Z" fill="#1A1F71"/>
<path d="M2.39851 28.8322C12.7848 28.8322 23.1711 28.8322 33.8721 28.8322C34.043 29.1455 34.043 29.1455 34.043 29.2025C34.0618 29.2025 34.0806 29.2025 34.1 29.2025C34.1854 29.3627 34.1854 29.3627 34.1854 29.4588C34.2042 29.4588 34.223 29.4588 34.2424 29.4588C34.2846 29.533 34.3267 29.6071 34.3688 29.6814C34.3868 29.7129 34.3868 29.7129 34.4051 29.7451C34.4166 29.7653 34.4281 29.7856 34.4399 29.8065C34.4505 29.8252 34.4611 29.8438 34.472 29.863C34.4987 29.9146 34.4987 29.9146 34.5272 30C23.718 30 12.9087 30 1.77188 30C1.83593 29.8079 1.83593 29.8079 1.88749 29.725C1.89848 29.707 1.90948 29.6891 1.92081 29.6706C1.93217 29.6524 1.94354 29.6342 1.95524 29.6155C2.03324 29.4895 2.10504 29.364 2.17065 29.231C2.1992 29.182 2.22826 29.1333 2.25787 29.085C2.30897 29.0015 2.35461 28.92 2.39851 28.8322Z" fill="#1A1F71"/>
<path d="M18.8496 6.17705C18.9843 6.23196 19.1213 6.27951 19.2589 6.32662C19.3533 6.35914 19.4458 6.39302 19.5372 6.43307C19.6133 6.46566 19.6846 6.4909 19.7642 6.51229C19.9045 6.55282 20.0358 6.60783 20.1698 6.66527C20.2551 6.70009 20.3405 6.72969 20.4282 6.75795C20.5461 6.79598 20.6596 6.8391 20.7735 6.8879C20.8759 6.93163 20.9762 6.96978 21.0833 7.00005C21.1873 7.02956 21.2848 7.06605 21.3841 7.10865C21.5851 7.19463 21.7907 7.26543 21.9971 7.33709C22.1812 7.40113 22.3634 7.46915 22.5448 7.54031C22.8722 7.66873 23.2019 7.7886 23.5364 7.89727C23.6865 7.94661 23.8322 8.00462 23.9784 8.06416C24.0712 8.10178 24.1637 8.13749 24.2591 8.16785C24.3723 8.20396 24.482 8.2478 24.592 8.29247C24.816 8.38319 25.0427 8.46466 25.271 8.5439C25.4862 8.61863 25.7001 8.6945 25.9111 8.78024C26.0793 8.84852 26.2487 8.91066 26.4201 8.97037C26.7139 9.07284 27.008 9.17683 27.2961 9.29471C27.5418 9.39489 27.7944 9.48184 28.0474 9.56174C28.1937 9.60947 28.3344 9.67155 28.4763 9.73094C28.6227 9.79173 28.7701 9.84402 28.9212 9.89218C29.0064 9.9212 29.088 9.95517 29.1707 9.99076C29.3202 10.0548 29.4714 10.1023 29.6273 10.1483C29.7252 10.1796 29.8156 10.2199 29.9085 10.2635C29.9728 10.291 30.0361 10.3103 30.1035 10.329C30.2236 10.363 30.3347 10.4085 30.4488 10.4589C30.61 10.5299 30.7706 10.5843 30.9395 10.6335C31.0368 10.6642 31.1263 10.7043 31.2185 10.7476C31.2839 10.7757 31.3488 10.7956 31.4172 10.815C31.5585 10.8551 31.6906 10.9106 31.8255 10.9682C31.9124 11.0042 31.9998 11.0339 32.0894 11.0625C32.2078 11.1024 32.3244 11.1474 32.4413 11.1916C32.5718 11.2409 32.7027 11.2884 32.8343 11.3348C32.9324 11.3695 33.0295 11.4042 33.1244 11.4469C33.2473 11.4989 33.3736 11.5352 33.5018 11.5716C33.5018 11.6186 33.5018 11.6656 33.5018 11.714C23.4257 11.714 13.3496 11.714 2.96817 11.714C2.96817 11.6576 2.96817 11.6012 2.96817 11.5431C2.98377 11.5389 2.99938 11.5347 3.01545 11.5304C3.18641 11.482 3.35009 11.4204 3.51438 11.3533C3.67041 11.2898 3.82839 11.2331 3.98732 11.1773C4.09237 11.1395 4.1955 11.098 4.29885 11.0559C4.36095 11.0315 4.42323 11.01 4.48666 10.9894C4.5896 10.956 4.69024 10.9184 4.79107 10.8791C4.93854 10.8217 5.08684 10.7677 5.23612 10.7153C5.25697 10.708 5.27783 10.7007 5.29932 10.6931C5.33972 10.6789 5.38012 10.6648 5.42052 10.6506C5.62656 10.5783 5.83039 10.5013 6.03364 10.4216C6.26499 10.3309 6.49836 10.2472 6.73303 10.1655C6.93843 10.0939 7.14137 10.0168 7.34385 9.93735C7.57508 9.84671 7.80833 9.76304 8.04287 9.68141C8.25819 9.60635 8.47031 9.52488 8.68167 9.43935C8.79438 9.39403 8.90731 9.3536 9.02301 9.31685C9.11627 9.28451 9.20718 9.24667 9.29849 9.20926C9.4653 9.14106 9.63309 9.08565 9.80607 9.03469C9.9035 9.00364 9.99394 8.96378 10.0864 8.92054C10.1448 8.89465 10.2026 8.87432 10.2633 8.855C10.3827 8.81696 10.4982 8.77065 10.614 8.72327C10.7557 8.66549 10.897 8.61581 11.0443 8.57451C11.1569 8.53888 11.2639 8.49028 11.3724 8.44378C11.4473 8.41349 11.5208 8.38915 11.5985 8.36723C11.7359 8.32837 11.8641 8.274 11.9952 8.21781C12.108 8.17175 12.2229 8.13501 12.3388 8.09765C12.4274 8.06715 12.5128 8.03208 12.5989 7.99518C12.7013 7.95144 12.8016 7.9133 12.9087 7.88302C13.014 7.85321 13.1125 7.8159 13.2131 7.77265C13.362 7.70876 13.5133 7.65674 13.6673 7.60701C13.788 7.56753 13.902 7.52083 14.0169 7.46702C14.0815 7.43939 14.1459 7.41976 14.2136 7.4006C14.3527 7.36103 14.4825 7.30645 14.6153 7.2495C14.7299 7.20273 14.8468 7.16542 14.9646 7.12745C15.0588 7.09495 15.148 7.05562 15.2377 7.01229C15.3013 6.98581 15.3013 6.98581 15.3926 6.96011C15.5164 6.9243 15.6339 6.87872 15.7534 6.83094C15.9047 6.77061 16.0561 6.71465 16.2109 6.66405C16.3178 6.6276 16.4202 6.5808 16.5235 6.53532C16.6079 6.50296 16.6917 6.48185 16.7795 6.46099C16.8835 6.43257 16.9809 6.38929 17.0797 6.34673C17.2212 6.28715 17.3614 6.22912 17.508 6.18306C17.617 6.14781 17.7247 6.1091 17.8327 6.0708C18.2269 5.931 18.4716 6.01498 18.8496 6.17705ZM17.8932 6.47312C17.8525 6.4874 17.8115 6.50108 17.7704 6.51407C17.6626 6.54897 17.5573 6.5887 17.4517 6.62978C17.328 6.67791 17.2041 6.72249 17.0778 6.76329C16.9931 6.7923 16.9102 6.82498 16.8269 6.85764C16.7167 6.90062 16.6078 6.93972 16.494 6.97157C16.3621 7.00914 16.2427 7.06468 16.1188 7.123C16.0483 7.15386 15.9805 7.17695 15.9065 7.19766C15.7672 7.2367 15.6355 7.28962 15.5017 7.34444C15.3408 7.40985 15.1778 7.46807 15.0135 7.52435C14.9208 7.55635 14.8299 7.58986 14.7399 7.62924C14.6638 7.66186 14.5923 7.68715 14.5126 7.70857C14.4076 7.73904 14.3087 7.77559 14.2082 7.81894C13.9187 7.94285 13.6183 8.04183 13.319 8.13926C13.1956 8.18025 13.0764 8.22908 12.9568 8.28001C12.7874 8.35108 12.6178 8.41397 12.4427 8.46971C12.3509 8.50107 12.2645 8.54008 12.1775 8.58286C12.1015 8.61322 12.0241 8.63036 11.9447 8.64939C11.8407 8.67804 11.7435 8.72142 11.6448 8.76421C11.4922 8.82883 11.3423 8.88594 11.1824 8.92999C11.0695 8.96504 10.9623 9.0135 10.8537 9.05984C10.7672 9.09576 10.6802 9.12577 10.5911 9.15452C10.277 9.25707 9.96853 9.37255 9.66278 9.49789C9.51221 9.55929 9.36054 9.61297 9.20592 9.66321C8.9177 9.76034 8.63399 9.86673 8.35257 9.9821C8.20199 10.0435 8.05029 10.0971 7.89571 10.1474C7.62484 10.2394 7.35715 10.3384 7.09101 10.4433C6.88459 10.5242 6.67581 10.5976 6.46645 10.6705C6.26104 10.7421 6.0581 10.8192 5.85562 10.8987C5.62501 10.9891 5.39241 11.0725 5.15848 11.1538C5.03557 11.1969 4.91333 11.2418 4.79107 11.2867C4.79107 11.2961 4.79107 11.3055 4.79107 11.3152C6.48713 11.3203 8.1832 11.3249 9.87926 11.3292C9.9799 11.3295 10.0805 11.3297 10.1812 11.33C12.7913 11.3366 15.4015 11.3428 25.0743 11.3455C25.1578 11.3455 25.2413 11.3455 25.3248 11.3455C27.4619 11.3451 29.5989 11.3446 31.7359 11.3437C31.6676 11.2754 31.6178 11.2635 31.5258 11.2351C31.4036 11.1959 31.2858 11.1526 31.168 11.1016C31.0185 11.0376 30.8673 10.9901 30.7114 10.944C30.6135 10.9127 30.5231 10.8725 30.4301 10.8289C30.3659 10.8013 30.3025 10.782 30.2352 10.7634C30.1151 10.7293 30.004 10.6839 29.8899 10.6334C29.7286 10.5624 29.5678 10.508 29.3989 10.4587C29.3246 10.4353 29.257 10.4083 29.1867 10.3753C29.0548 10.3133 28.9182 10.2742 28.7788 10.2326C28.6772 10.201 28.5801 10.1629 28.4818 10.1224C28.1844 10.0013 27.881 9.89566 27.5777 9.79046C27.4395 9.74233 27.3032 9.69163 27.168 9.63561C27.0414 9.58589 26.9127 9.54206 26.7841 9.49781C26.6886 9.46466 26.5946 9.43014 26.5018 9.38984C26.4319 9.35956 26.3646 9.33334 26.2921 9.31073C26.183 9.27542 26.0766 9.23513 25.9699 9.19324C25.8603 9.15054 25.7519 9.11131 25.6388 9.07931C25.5355 9.04968 25.4385 9.013 25.3397 8.97072C25.1387 8.88473 24.9331 8.81393 24.7267 8.74227C24.498 8.6627 24.2726 8.57579 24.0472 8.48732C23.8747 8.42002 23.7008 8.35727 23.5256 8.29721C23.4342 8.26568 23.3448 8.2325 23.2562 8.19378C23.1823 8.16207 23.1135 8.13708 23.0362 8.11623C22.7813 8.04205 22.5347 7.94143 22.2877 7.84486C22.2653 7.8361 22.2428 7.82733 22.2197 7.8183C22.1768 7.80148 22.1339 7.78459 22.091 7.76762C21.9877 7.72704 21.8843 7.68901 21.7788 7.65449C21.6658 7.61746 21.5563 7.57438 21.4464 7.52877C21.2797 7.46047 21.1118 7.40516 20.9389 7.3542C20.8414 7.32315 20.751 7.28329 20.6585 7.24005C20.6002 7.21416 20.5424 7.19383 20.4816 7.17451C20.364 7.13702 20.2504 7.09137 20.1362 7.04456C19.9698 6.97659 19.8025 6.92076 19.63 6.86977C19.5296 6.83853 19.4336 6.80024 19.3365 6.75995C19.2438 6.7228 19.1499 6.68968 19.0557 6.65648C18.8519 6.58459 18.8519 6.58459 18.7548 6.54077C18.6534 6.49786 18.5519 6.46609 18.446 6.4364C18.3774 6.41616 18.3774 6.41616 18.2777 6.37521C18.1285 6.35122 18.0277 6.41243 17.8932 6.47312Z" fill="#1A1F71"/>
<path d="M2.9112 12.3406C13.0531 12.3406 23.195 12.3406 33.6443 12.3406C33.6727 12.4542 33.677 12.5559 33.6763 12.6717C33.6765 12.7008 33.6765 12.7008 33.6766 12.7305C33.6764 12.8746 33.6764 12.8746 33.6443 12.9387C23.5118 12.9387 13.3792 12.9387 2.93968 12.9387C2.87656 12.7494 2.9112 12.5402 2.9112 12.3406Z" fill="#1A1F71"/>
<path d="M2.79726 27.8068C12.9392 27.8068 23.0811 27.8068 33.5303 27.8068C33.5303 28.0042 33.5303 28.2016 33.5303 28.4049C23.3884 28.4049 13.2465 28.4049 2.79726 28.4049C2.79726 28.2075 2.79726 28.0102 2.79726 27.8068Z" fill="#1A1F71"/>
<path d="M26.7192 13.1913C26.7457 13.1912 26.7722 13.1912 26.7994 13.1911C26.8888 13.1909 26.9781 13.1909 27.0674 13.191C27.1312 13.1909 27.195 13.1908 27.2588 13.1907C27.4325 13.1904 27.6062 13.1904 27.7799 13.1903C27.9248 13.1903 28.0696 13.1902 28.2144 13.1901C28.5365 13.1899 28.8585 13.1898 29.1806 13.1898C29.2096 13.1898 29.2096 13.1898 29.2392 13.1898C29.2585 13.1898 29.2779 13.1898 29.2978 13.1898C29.6116 13.1898 29.9254 13.1896 30.2392 13.1892C30.5611 13.1888 30.8831 13.1886 31.2051 13.1886C31.386 13.1886 31.5668 13.1885 31.7477 13.1882C31.9177 13.1879 32.0878 13.1879 32.2578 13.1881C32.3203 13.1882 32.3829 13.1881 32.4454 13.1879C32.5305 13.1877 32.6157 13.1878 32.7008 13.1881C32.7381 13.1878 32.7381 13.1878 32.7762 13.1876C32.8105 13.1878 32.8105 13.1878 32.8454 13.188C32.865 13.188 32.8847 13.188 32.9049 13.188C32.9707 13.1964 33.0172 13.2197 33.0746 13.2521C33.0608 13.4176 33.0137 13.5355 32.9322 13.6793C32.9229 13.6968 32.9136 13.7143 32.904 13.7324C32.8105 13.8967 32.6825 14.0296 32.5538 14.1664C32.4756 14.2499 32.4005 14.3353 32.3264 14.4223C32.3101 14.4403 32.2938 14.4583 32.2771 14.4768C32.257 14.5057 32.237 14.5346 32.2164 14.5644C32.0962 14.6825 31.9498 14.6696 31.7907 14.6699C31.7475 14.6695 31.7043 14.669 31.6611 14.6685C31.6154 14.6686 31.5697 14.6688 31.524 14.669C31.4 14.6694 31.2761 14.6687 31.1522 14.6679C31.0223 14.6671 30.8925 14.6673 30.7626 14.6673C30.5446 14.6672 30.3265 14.6665 30.1085 14.6653C29.8566 14.664 29.6047 14.6635 29.3528 14.6636C29.0844 14.6636 28.816 14.6631 28.5476 14.6623C28.4704 14.6621 28.3931 14.662 28.3159 14.662C28.1944 14.6619 28.0729 14.6614 27.9514 14.6605C27.9069 14.6603 27.8624 14.6602 27.8179 14.6602C27.757 14.6603 27.6961 14.6598 27.6351 14.6592C27.6011 14.659 27.5671 14.6589 27.532 14.6587C27.3133 14.6339 27.1545 14.5215 27.0077 14.3629C26.9061 14.2348 26.8143 14.0996 26.7229 13.9641C26.6923 13.9201 26.6923 13.9201 26.661 13.8752C26.6138 13.8009 26.5838 13.7324 26.552 13.6508C26.5074 13.5785 26.4609 13.5079 26.4137 13.4372C26.3744 13.3514 26.3783 13.3116 26.4096 13.2236C26.5054 13.1757 26.6138 13.1911 26.7192 13.1913Z" fill="#1A1F71"/>
<path d="M11.2304 13.1911C11.2555 13.1912 11.2806 13.1912 11.3065 13.1913C11.333 13.1912 11.3594 13.1911 11.3867 13.1911C11.4761 13.1909 11.5655 13.1909 11.6549 13.1909C11.7187 13.1909 11.7825 13.1908 11.8463 13.1906C12.0201 13.1904 12.194 13.1903 12.3678 13.1903C12.5127 13.1903 12.6576 13.1902 12.8025 13.1901C13.1247 13.1899 13.4469 13.1898 13.7691 13.1898C13.7885 13.1898 13.8078 13.1898 13.8278 13.1898C13.8568 13.1898 13.8568 13.1898 13.8865 13.1898C14.2005 13.1898 14.5144 13.1895 14.8284 13.1891C15.1505 13.1887 15.4726 13.1885 15.7947 13.1886C15.9757 13.1886 16.1566 13.1885 16.3376 13.1882C16.5077 13.1879 16.6779 13.1879 16.8481 13.1881C16.9106 13.1881 16.9732 13.1881 17.0357 13.1879C17.1209 13.1877 17.2062 13.1878 17.2914 13.188C17.3163 13.1879 17.3412 13.1877 17.3669 13.1876C17.3897 13.1877 17.4125 13.1879 17.4361 13.188C17.4557 13.188 17.4754 13.188 17.4957 13.188C17.5615 13.1964 17.6079 13.2197 17.6653 13.252C17.6505 13.4043 17.6142 13.516 17.5443 13.6544C17.5277 13.6879 17.5111 13.7215 17.494 13.7561C17.437 13.851 17.3752 13.9169 17.2951 13.9926C17.281 14.0167 17.2669 14.0408 17.2523 14.0656C17.2021 14.1473 17.1417 14.1893 17.0672 14.2489C17.0461 14.2842 17.0461 14.2842 17.0245 14.3201C16.974 14.4043 16.9171 14.446 16.8393 14.5053C16.8183 14.5296 16.7972 14.5539 16.7755 14.579C16.6778 14.6645 16.6322 14.6655 16.5038 14.6654C16.4848 14.6656 16.4657 14.6658 16.4461 14.666C16.3824 14.6664 16.3188 14.6658 16.2551 14.6652C16.2094 14.6653 16.1637 14.6655 16.118 14.6657C15.9939 14.6661 15.8699 14.6656 15.7458 14.665C15.6159 14.6644 15.486 14.6646 15.3561 14.6646C15.1378 14.6646 14.9196 14.6641 14.7014 14.6631C14.4493 14.6621 14.1972 14.6618 13.9451 14.662C13.7024 14.6622 13.4598 14.6619 13.2171 14.6614C13.1139 14.6611 13.0107 14.661 12.9075 14.6611C12.7859 14.6611 12.6643 14.6607 12.5427 14.66C12.4981 14.6598 12.4536 14.6597 12.409 14.6598C12.348 14.6599 12.2871 14.6595 12.2261 14.6589C12.192 14.6588 12.1579 14.6587 12.1228 14.6586C11.9749 14.642 11.8652 14.5882 11.7409 14.5053C11.7409 14.4865 11.7409 14.4677 11.7409 14.4483C11.7221 14.4483 11.7033 14.4483 11.6839 14.4483C11.6839 14.4295 11.6839 14.4107 11.6839 14.3914C11.6416 14.3773 11.6416 14.3773 11.5985 14.3629C11.4846 14.2392 11.4846 14.2392 11.4846 14.135C11.4658 14.135 11.447 14.135 11.4276 14.135C11.3235 14.0066 11.2421 13.86 11.1717 13.7109C11.1501 13.666 11.127 13.6219 11.1032 13.5783C11.0898 13.5534 11.0764 13.5286 11.0627 13.503C11.0501 13.4803 11.0376 13.4576 11.0247 13.4342C10.9952 13.3517 11.0032 13.3063 11.0288 13.2236C11.0822 13.1702 11.1594 13.1914 11.2304 13.1911Z" fill="#1A1F71"/>
<path d="M3.65398 13.1911C3.67908 13.1912 3.70419 13.1912 3.73006 13.1913C3.75652 13.1912 3.78298 13.1911 3.81025 13.1911C3.89964 13.1909 3.98903 13.1909 4.07842 13.1909C4.14222 13.1909 4.20602 13.1908 4.26982 13.1906C4.44366 13.1904 4.6175 13.1903 4.79134 13.1903C4.93624 13.1903 5.08114 13.1902 5.22603 13.1901C5.54825 13.1899 5.87047 13.1898 6.19269 13.1898C6.21204 13.1898 6.23139 13.1898 6.25133 13.1898C6.28039 13.1898 6.28039 13.1898 6.31004 13.1898C6.624 13.1898 6.93796 13.1895 7.25191 13.1891C7.57403 13.1887 7.89615 13.1885 8.21827 13.1886C8.39922 13.1886 8.58016 13.1885 8.7611 13.1882C8.93128 13.1879 9.10144 13.1879 9.27161 13.1881C9.33417 13.1881 9.39672 13.1881 9.45928 13.1879C9.54449 13.1877 9.6297 13.1878 9.71491 13.188C9.73983 13.1879 9.76475 13.1877 9.79042 13.1876C9.81325 13.1877 9.83608 13.1879 9.8596 13.188C9.87927 13.188 9.89894 13.188 9.9192 13.188C9.985 13.1964 10.0314 13.2197 10.0889 13.252C10.0741 13.4043 10.0378 13.516 9.96784 13.6544C9.95125 13.6879 9.93465 13.7215 9.91755 13.7561C9.86054 13.851 9.79871 13.9169 9.71862 13.9926C9.70452 14.0167 9.69042 14.0408 9.67589 14.0656C9.62561 14.1473 9.56527 14.1893 9.49075 14.2489C9.4696 14.2842 9.4696 14.2842 9.44803 14.3201C9.39754 14.4043 9.34065 14.446 9.26289 14.5053C9.24183 14.5296 9.22077 14.5539 9.19908 14.579C9.1013 14.6645 9.0557 14.6655 8.92735 14.6654C8.9083 14.6656 8.88924 14.6658 8.86961 14.666C8.80594 14.6664 8.74233 14.6658 8.67867 14.6652C8.63295 14.6653 8.58723 14.6655 8.54151 14.6657C8.41745 14.6661 8.29341 14.6656 8.16935 14.665C8.03944 14.6644 7.90952 14.6646 7.77961 14.6646C7.56138 14.6646 7.34316 14.6641 7.12493 14.6631C6.87284 14.6621 6.62076 14.6618 6.36866 14.662C6.12599 14.6622 5.88332 14.6619 5.64064 14.6614C5.53746 14.6611 5.43428 14.661 5.33109 14.6611C5.20947 14.6611 5.08786 14.6607 4.96625 14.66C4.92169 14.6598 4.87712 14.6597 4.83256 14.6598C4.77158 14.6599 4.71062 14.6595 4.64963 14.6589C4.61555 14.6588 4.58148 14.6587 4.54637 14.6586C4.28856 14.6296 4.11913 14.4697 3.95083 14.2845C3.9081 14.2205 3.9081 14.2205 3.9081 14.135C3.8893 14.135 3.87051 14.135 3.85114 14.135C3.74708 14.0066 3.66563 13.86 3.59524 13.7109C3.57365 13.666 3.55055 13.6219 3.5267 13.5783C3.51333 13.5534 3.49997 13.5286 3.4862 13.503C3.47368 13.4803 3.46116 13.4576 3.44826 13.4342C3.41879 13.3517 3.42679 13.3063 3.45238 13.2236C3.50577 13.1702 3.58291 13.1914 3.65398 13.1911Z" fill="#1A1F71"/>
<path d="M19.0847 13.1913C19.1111 13.1912 19.1374 13.1912 19.1646 13.1911C19.2535 13.1909 19.3424 13.1909 19.4313 13.191C19.4949 13.1909 19.5584 13.1908 19.6219 13.1907C19.7949 13.1904 19.9678 13.1904 20.1408 13.1903C20.285 13.1903 20.4291 13.1902 20.5733 13.1901C20.894 13.1899 21.2146 13.1898 21.5353 13.1898C21.5641 13.1898 21.5641 13.1898 21.5936 13.1898C21.6129 13.1898 21.6321 13.1898 21.652 13.1898C21.9644 13.1898 22.2768 13.1896 22.5892 13.1892C22.9097 13.1888 23.2303 13.1886 23.5509 13.1886C23.731 13.1886 23.911 13.1885 24.0911 13.1882C24.2604 13.1879 24.4297 13.1879 24.599 13.1881C24.6612 13.1882 24.7234 13.1881 24.7857 13.1879C24.8704 13.1877 24.9552 13.1878 25.04 13.1881C25.0648 13.1879 25.0896 13.1878 25.1151 13.1876C25.1378 13.1878 25.1605 13.1879 25.1839 13.188C25.2035 13.188 25.2231 13.188 25.2432 13.188C25.3089 13.1964 25.3553 13.2198 25.4127 13.2521C25.3979 13.4041 25.3619 13.5147 25.2916 13.6526C25.275 13.6858 25.2585 13.7191 25.2414 13.7533C25.1664 13.8819 25.0799 13.9846 24.973 14.0888C24.9132 14.15 24.8649 14.2088 24.8146 14.2775C24.7453 14.3717 24.6729 14.4542 24.5867 14.5338C24.5657 14.5536 24.5448 14.5735 24.5232 14.5939C24.4251 14.6608 24.3692 14.662 24.2512 14.662C24.2226 14.6622 24.2226 14.6622 24.1934 14.6625C24.1298 14.6629 24.0661 14.6625 24.0025 14.662C23.9568 14.6621 23.911 14.6623 23.8653 14.6625C23.7413 14.6629 23.6172 14.6626 23.4932 14.6621C23.3632 14.6617 23.2333 14.6619 23.1034 14.662C22.8852 14.6621 22.667 14.6617 22.4487 14.661C22.1966 14.6603 21.9446 14.6602 21.6925 14.6606C21.4498 14.6609 21.2071 14.6607 20.9644 14.6603C20.8613 14.6601 20.7581 14.6601 20.6549 14.6603C20.5333 14.6604 20.4117 14.6601 20.2901 14.6595C20.2455 14.6593 20.2009 14.6593 20.1564 14.6595C20.0954 14.6596 20.0344 14.6593 19.9734 14.6588C19.9394 14.6587 19.9053 14.6586 19.8702 14.6586C19.6523 14.6343 19.4933 14.5201 19.3458 14.3629C19.3026 14.2984 19.2683 14.2325 19.2319 14.1635C19.2147 14.1473 19.1975 14.1311 19.1798 14.1145C19.0977 14.0283 19.0465 13.9329 18.9898 13.8289C18.979 13.8095 18.9683 13.7902 18.9572 13.7703C18.9248 13.7118 18.8931 13.6529 18.8616 13.5939C18.845 13.5629 18.845 13.5629 18.8281 13.5313C18.8124 13.5012 18.8124 13.5012 18.7964 13.4705C18.787 13.4524 18.7775 13.4344 18.7678 13.4158C18.7385 13.3431 18.746 13.2947 18.7762 13.2236C18.8717 13.1758 18.9796 13.1911 19.0847 13.1913Z" fill="#1A1F71"/>
<path d="M27.321 26.0978C27.9313 26.0965 28.5416 26.0955 29.152 26.0949C29.4353 26.0946 29.7187 26.0942 30.0021 26.0935C30.249 26.093 30.496 26.0926 30.743 26.0925C30.8737 26.0924 31.0045 26.0922 31.1353 26.0918C31.2584 26.0914 31.3815 26.0913 31.5046 26.0914C31.5497 26.0914 31.5949 26.0913 31.6401 26.091C31.7018 26.0908 31.7635 26.0908 31.8252 26.091C31.877 26.0909 31.877 26.0909 31.9298 26.0908C32.0194 26.0977 32.0824 26.1164 32.1631 26.1548C32.1631 26.1736 32.1631 26.1924 32.1631 26.2118C32.179 26.2182 32.1949 26.2247 32.2112 26.2313C32.3289 26.2981 32.4113 26.4001 32.496 26.5037C32.5535 26.5825 32.5535 26.5825 32.6189 26.6105C32.6479 26.6672 32.6762 26.7243 32.7043 26.7814C32.7301 26.8249 32.7562 26.8682 32.7826 26.9114C32.8529 27.0278 32.9213 27.145 32.9874 27.2638C33.0047 27.2947 33.0219 27.3255 33.0398 27.3572C33.0746 27.4365 33.0746 27.4365 33.0461 27.522C32.9327 27.5598 32.824 27.5545 32.7057 27.5543C32.6793 27.5543 32.6529 27.5544 32.6257 27.5545C32.5369 27.5546 32.4481 27.5546 32.3592 27.5546C32.2957 27.5547 32.2322 27.5548 32.1687 27.5549C31.9958 27.5551 31.823 27.5552 31.6502 27.5552C31.506 27.5552 31.3619 27.5554 31.2178 27.5555C30.8973 27.5557 30.5768 27.5558 30.2563 27.5557C30.2275 27.5557 30.2275 27.5557 30.1981 27.5557C30.1788 27.5557 30.1595 27.5557 30.1397 27.5557C29.8275 27.5557 29.5153 27.556 29.2031 27.5564C28.8826 27.5568 28.5622 27.557 28.2417 27.557C28.0618 27.557 27.8818 27.5571 27.7019 27.5574C27.5327 27.5576 27.3635 27.5576 27.1943 27.5574C27.1321 27.5574 27.0699 27.5575 27.0078 27.5576C26.923 27.5579 26.8383 27.5577 26.7536 27.5575C26.7289 27.5576 26.7041 27.5578 26.6786 27.5579C26.6559 27.5578 26.6332 27.5577 26.6098 27.5575C26.5902 27.5576 26.5707 27.5576 26.5506 27.5576C26.4849 27.5492 26.4384 27.5258 26.3811 27.4935C26.4098 27.1192 26.6452 26.8291 26.9037 26.5727C26.9855 26.4903 27.0646 26.4059 27.143 26.3204C27.1571 26.3052 27.1712 26.29 27.1856 26.2743C27.2621 26.1924 27.2621 26.1924 27.321 26.0978Z" fill="#1A1F71"/>
<path d="M20.1678 26.0669C20.2132 26.0668 20.2586 26.0666 20.304 26.0662C20.4267 26.0657 20.5494 26.0667 20.6721 26.0681C20.8008 26.0693 20.9295 26.0691 21.0583 26.0691C21.2744 26.0692 21.4904 26.0704 21.7065 26.0722C21.956 26.0743 22.2054 26.0751 22.4549 26.0752C22.7211 26.0752 22.9872 26.0762 23.2534 26.0774C23.3298 26.0777 23.4063 26.0778 23.4828 26.0779C23.6031 26.0782 23.7234 26.079 23.8438 26.0802C23.8878 26.0806 23.9318 26.0808 23.9759 26.0808C24.3111 26.0808 24.5147 26.1315 24.7667 26.362C24.8238 26.4207 24.8612 26.4816 24.9 26.5535C24.9217 26.5782 24.9435 26.6029 24.9659 26.6283C25.0497 26.7266 25.1071 26.8359 25.167 26.9499C25.2 27.0125 25.2339 27.0746 25.2685 27.1363C25.2867 27.169 25.3049 27.2017 25.3237 27.2354C25.3491 27.2807 25.3491 27.2807 25.3751 27.3269C25.4127 27.408 25.4127 27.408 25.4127 27.522C25.3345 27.544 25.2651 27.554 25.184 27.554C25.1613 27.5541 25.1386 27.5542 25.1152 27.5543C25.0905 27.5542 25.0657 27.5541 25.0402 27.5541C25.0005 27.5541 25.0005 27.5541 24.9601 27.5542C24.8713 27.5543 24.7825 27.5542 24.6937 27.5541C24.6301 27.5542 24.5665 27.5542 24.5029 27.5543C24.3301 27.5544 24.1573 27.5544 23.9844 27.5543C23.8038 27.5542 23.6232 27.5543 23.4425 27.5543C23.1197 27.5544 22.7969 27.5543 22.4741 27.5541C22.1813 27.554 21.8885 27.554 21.5957 27.5542C21.2558 27.5543 20.9159 27.5544 20.576 27.5543C20.396 27.5542 20.2161 27.5542 20.0361 27.5543C19.867 27.5544 19.6978 27.5544 19.5287 27.5542C19.4665 27.5542 19.4043 27.5542 19.3421 27.5542C19.2574 27.5543 19.1728 27.5542 19.0881 27.5541C19.0509 27.5542 19.0509 27.5542 19.0129 27.5543C18.9173 27.5539 18.839 27.5524 18.7477 27.522C18.7193 27.2524 18.8692 27.0397 19.0288 26.8374C19.1512 26.6866 19.279 26.5389 19.4159 26.401C19.4624 26.353 19.4624 26.353 19.5081 26.2907C19.6984 26.0622 19.8902 26.0619 20.1678 26.0669Z" fill="#1A1F71"/>
<path d="M12.1267 26.087C12.1553 26.0868 12.1553 26.0868 12.1844 26.0866C12.2483 26.0863 12.3122 26.0865 12.3761 26.0868C12.4218 26.0867 12.4676 26.0865 12.5133 26.0863C12.6378 26.0859 12.7622 26.0861 12.8866 26.0864C13.0167 26.0866 13.1469 26.0864 13.277 26.0863C13.4957 26.0861 13.7144 26.0863 13.9331 26.0867C14.1858 26.0872 14.4386 26.087 14.6913 26.0866C14.9083 26.0862 15.1252 26.0861 15.3422 26.0863C15.4718 26.0865 15.6013 26.0865 15.7309 26.0862C15.8529 26.086 15.9748 26.0861 16.0967 26.0866C16.1414 26.0867 16.1861 26.0867 16.2308 26.0865C16.2919 26.0863 16.353 26.0866 16.4142 26.087C16.4483 26.087 16.4825 26.0871 16.5177 26.0871C16.6828 26.106 16.7954 26.1859 16.9159 26.2954C16.9478 26.324 16.9478 26.324 16.9803 26.3532C17.0353 26.4077 17.0817 26.4604 17.1242 26.5251C17.1242 26.5439 17.1242 26.5627 17.1242 26.5821C17.1524 26.5915 17.1806 26.6009 17.2096 26.6105C17.2598 26.6855 17.2598 26.6855 17.3147 26.785C17.3244 26.8026 17.3341 26.8201 17.3441 26.8382C17.3648 26.8757 17.3853 26.9132 17.4057 26.9508C17.4378 27.0099 17.4704 27.0689 17.503 27.1278C17.5239 27.166 17.5448 27.2043 17.5657 27.2425C17.5756 27.2606 17.5856 27.2787 17.5959 27.2973C17.6394 27.3784 17.6653 27.4285 17.6653 27.522C17.5872 27.544 17.5178 27.554 17.4367 27.5541C17.414 27.5541 17.3913 27.5542 17.3679 27.5543C17.3431 27.5542 17.3183 27.5542 17.2928 27.5541C17.2532 27.5542 17.2532 27.5542 17.2127 27.5542C17.1239 27.5543 17.0351 27.5543 16.9463 27.5542C16.8827 27.5542 16.8192 27.5543 16.7556 27.5543C16.5827 27.5544 16.4099 27.5544 16.2371 27.5543C16.0564 27.5542 15.8758 27.5543 15.6952 27.5543C15.3724 27.5544 15.0496 27.5543 14.7268 27.5542C14.434 27.554 14.1412 27.5541 13.8484 27.5542C13.5085 27.5543 13.1686 27.5544 12.8287 27.5543C12.6487 27.5543 12.4687 27.5543 12.2888 27.5544C12.1196 27.5544 11.9505 27.5544 11.7813 27.5542C11.7191 27.5542 11.6569 27.5542 11.5947 27.5543C11.5101 27.5543 11.4254 27.5542 11.3408 27.5541C11.3035 27.5542 11.3035 27.5542 11.2655 27.5543C11.17 27.554 11.0916 27.5524 11.0003 27.522C10.9791 27.1826 11.1672 26.9536 11.3814 26.7079C11.4473 26.6344 11.5143 26.562 11.5818 26.49C11.6613 26.4049 11.7379 26.3178 11.8139 26.2295C11.8274 26.2142 11.8409 26.199 11.8548 26.1833C11.8659 26.1685 11.877 26.1536 11.8885 26.1384C11.9661 26.0776 12.0291 26.0871 12.1267 26.087Z" fill="#1A1F71"/>
<path d="M4.54344 26.0938C4.56242 26.0938 4.5814 26.0937 4.60095 26.0936C4.66502 26.0933 4.72908 26.0933 4.79315 26.0933C4.8389 26.0931 4.88465 26.093 4.93039 26.0928C5.05504 26.0924 5.17969 26.0923 5.30434 26.0921C5.38218 26.0921 5.46002 26.0919 5.53787 26.0918C5.78132 26.0914 6.02477 26.0911 6.26822 26.091C6.54942 26.0909 6.83061 26.0904 7.11181 26.0896C7.329 26.089 7.5462 26.0887 7.7634 26.0886C7.89318 26.0886 8.02296 26.0884 8.15274 26.0879C8.27489 26.0875 8.39704 26.0874 8.51919 26.0877C8.564 26.0877 8.6088 26.0876 8.6536 26.0873C8.71485 26.0869 8.77608 26.0871 8.83733 26.0874C8.87158 26.0873 8.90583 26.0873 8.94112 26.0872C9.10637 26.1059 9.21887 26.1858 9.33943 26.2954C9.37132 26.324 9.37132 26.324 9.40385 26.3532C9.45882 26.4077 9.50519 26.4604 9.54772 26.5251C9.54772 26.5439 9.54772 26.5627 9.54772 26.5821C9.57591 26.5915 9.60411 26.6009 9.63316 26.6105C9.68334 26.6855 9.68334 26.6855 9.7382 26.785C9.74792 26.8026 9.75765 26.8201 9.76768 26.8382C9.78834 26.8757 9.80885 26.9132 9.82925 26.9508C9.86138 27.0099 9.89395 27.0689 9.92656 27.1278C9.94747 27.166 9.96835 27.2042 9.9892 27.2425C9.99918 27.2606 10.0092 27.2787 10.0194 27.2973C10.0629 27.3783 10.0889 27.4285 10.0889 27.522C10.0107 27.544 9.94134 27.554 9.8602 27.5541C9.83751 27.5541 9.81481 27.5542 9.79143 27.5543C9.76666 27.5542 9.74189 27.5542 9.71637 27.5541C9.67671 27.5542 9.67671 27.5542 9.63625 27.5542C9.54745 27.5543 9.45866 27.5542 9.36986 27.5542C9.30628 27.5542 9.2427 27.5542 9.17912 27.5543C9.00629 27.5544 8.83346 27.5544 8.66062 27.5543C8.47998 27.5542 8.29934 27.5543 8.1187 27.5543C7.79591 27.5544 7.47311 27.5543 7.15032 27.5542C6.85752 27.554 6.56473 27.5541 6.27194 27.5542C5.93203 27.5543 5.59212 27.5544 5.25221 27.5543C5.07224 27.5543 4.89227 27.5543 4.7123 27.5544C4.54316 27.5544 4.37401 27.5544 4.20487 27.5542C4.14267 27.5542 4.08047 27.5542 4.01827 27.5542C3.93362 27.5543 3.84896 27.5542 3.76431 27.5541C3.72706 27.5542 3.72706 27.5542 3.68906 27.5543C3.5935 27.554 3.51519 27.5524 3.42389 27.522C3.40269 27.1828 3.59033 26.9546 3.80407 26.7088C3.86882 26.6363 3.93481 26.565 4.00134 26.494C4.07696 26.4133 4.15116 26.3315 4.22497 26.2492C4.36379 26.0943 4.36379 26.0943 4.54344 26.0938Z" fill="#1A1F71"/>
<path d="M28.4889 14.9895C28.5731 14.988 28.6574 14.9869 28.7416 14.986C28.7656 14.9855 28.7896 14.985 28.8143 14.9845C28.8372 14.9843 28.8602 14.9842 28.8838 14.984C28.905 14.9837 28.9262 14.9834 28.948 14.9831C29.0015 14.9895 29.0015 14.9895 29.0585 15.0465C29.0656 15.122 29.0656 15.122 29.0657 15.2202C29.0658 15.2574 29.066 15.2947 29.0661 15.3331C29.066 15.3749 29.0659 15.4167 29.0657 15.4585C29.0658 15.5025 29.0659 15.5466 29.066 15.5907C29.0663 15.7122 29.0661 15.8337 29.066 15.9553C29.0658 16.0862 29.066 16.2171 29.0662 16.348C29.0664 16.6046 29.0664 16.8612 29.0662 17.1178C29.0661 17.3263 29.0661 17.5348 29.0661 17.7433C29.0661 17.7729 29.0661 17.8025 29.0662 17.833C29.0662 17.8932 29.0662 17.9533 29.0662 18.0135C29.0664 18.5783 29.0662 19.143 29.0659 19.7078C29.0656 20.1928 29.0657 20.6779 29.0659 21.163C29.0662 21.7256 29.0664 22.2883 29.0662 22.851C29.0662 22.9109 29.0661 22.9709 29.0661 23.0308C29.0661 23.0603 29.0661 23.0898 29.0661 23.1202C29.0661 23.3285 29.0661 23.5369 29.0663 23.7452C29.0664 23.9989 29.0664 24.2527 29.0661 24.5064C29.0659 24.636 29.0659 24.7655 29.0661 24.8951C29.0662 25.0136 29.0661 25.132 29.0658 25.2504C29.0658 25.2935 29.0658 25.3365 29.0659 25.3795C29.0661 25.4376 29.0659 25.4958 29.0657 25.5539C29.0657 25.5863 29.0657 25.6187 29.0656 25.6521C29.0585 25.7276 29.0585 25.7276 29.0015 25.7846C28.9201 25.7917 28.8427 25.7951 28.7612 25.7952C28.7391 25.7959 28.717 25.7966 28.6942 25.7973C28.5317 25.7982 28.5317 25.7982 28.4683 25.7379C28.4213 25.6511 28.4212 25.5905 28.4212 25.4919C28.421 25.4549 28.4208 25.418 28.4206 25.3799C28.4208 25.3388 28.421 25.2976 28.4212 25.2565C28.4211 25.2129 28.421 25.1693 28.4209 25.1257C28.4206 25.0057 28.4208 24.8857 28.4211 24.7657C28.4214 24.6363 28.4211 24.507 28.421 24.3776C28.4207 24.1242 28.4209 23.8707 28.4212 23.6172C28.4216 23.3222 28.4216 23.0272 28.4215 22.7322C28.4214 22.206 28.4218 21.6798 28.4223 21.1535C28.4229 20.6425 28.4231 20.1316 28.4229 19.6206C28.4227 19.0645 28.4227 18.5085 28.423 17.9525C28.4231 17.8932 28.4231 17.8339 28.4232 17.7747C28.4232 17.7455 28.4232 17.7164 28.4232 17.6863C28.4233 17.4806 28.4233 17.2748 28.4233 17.069C28.4232 16.8184 28.4233 16.5677 28.4238 16.317C28.424 16.1891 28.4241 16.0611 28.4239 15.9331C28.4238 15.8161 28.424 15.6991 28.4243 15.582C28.4244 15.5396 28.4244 15.4971 28.4243 15.4547C28.4241 15.3972 28.4244 15.3397 28.4246 15.2822C28.4247 15.2502 28.4247 15.2182 28.4247 15.1852C28.4318 15.1049 28.4471 15.0577 28.4889 14.9895Z" fill="#1A1F71"/>
<path d="M13.0796 14.9895C13.1639 14.988 13.2481 14.9869 13.3324 14.986C13.3564 14.9855 13.3803 14.985 13.405 14.9845C13.428 14.9843 13.4509 14.9842 13.4746 14.984C13.4958 14.9837 13.5169 14.9834 13.5388 14.9831C13.5923 14.9895 13.5923 14.9895 13.6493 15.0465C13.6564 15.122 13.6564 15.122 13.6564 15.2202C13.6566 15.2574 13.6567 15.2947 13.6569 15.3331C13.6568 15.3749 13.6566 15.4167 13.6565 15.4585C13.6566 15.5025 13.6566 15.5466 13.6568 15.5907C13.657 15.7122 13.6569 15.8337 13.6567 15.9553C13.6566 16.0862 13.6568 16.2171 13.6569 16.348C13.6572 16.6046 13.6571 16.8612 13.657 17.1178C13.6568 17.3263 13.6568 17.5348 13.6569 17.7433C13.6569 17.7729 13.6569 17.8025 13.6569 17.833C13.6569 17.8932 13.6569 17.9533 13.657 18.0135C13.6571 18.5783 13.6569 19.143 13.6566 19.7078C13.6564 20.1928 13.6564 20.6779 13.6567 21.163C13.657 21.7256 13.6571 22.2883 13.6569 22.851C13.6569 22.9109 13.6569 22.9709 13.6569 23.0308C13.6569 23.0603 13.6569 23.0898 13.6569 23.1202C13.6568 23.3285 13.6569 23.5369 13.657 23.7452C13.6572 23.9989 13.6571 24.2527 13.6568 24.5064C13.6567 24.636 13.6566 24.7655 13.6568 24.8951C13.657 25.0136 13.6569 25.132 13.6566 25.2504C13.6565 25.2935 13.6566 25.3365 13.6567 25.3795C13.6569 25.4376 13.6567 25.4958 13.6564 25.5539C13.6564 25.5863 13.6564 25.6187 13.6564 25.6521C13.6493 25.7276 13.6493 25.7276 13.5923 25.7846C13.5109 25.7917 13.4334 25.7951 13.352 25.7952C13.3298 25.7959 13.3077 25.7966 13.2849 25.7973C13.1224 25.7982 13.1224 25.7982 13.059 25.7379C13.0121 25.6511 13.012 25.5905 13.012 25.4919C13.0118 25.4549 13.0115 25.418 13.0113 25.3799C13.0115 25.3388 13.0118 25.2976 13.012 25.2565C13.0119 25.2129 13.0118 25.1693 13.0116 25.1257C13.0113 25.0057 13.0116 24.8857 13.0119 24.7657C13.0121 24.6363 13.0119 24.507 13.0117 24.3776C13.0114 24.1242 13.0116 23.8707 13.012 23.6172C13.0124 23.3222 13.0123 23.0272 13.0123 22.7322C13.0122 22.206 13.0125 21.6798 13.0131 21.1535C13.0136 20.6425 13.0138 20.1316 13.0136 19.6206C13.0135 19.0645 13.0135 18.5085 13.0138 17.9525C13.0138 17.8932 13.0139 17.8339 13.0139 17.7747C13.0139 17.7455 13.0139 17.7164 13.014 17.6863C13.0141 17.4806 13.0141 17.2748 13.014 17.069C13.0139 16.8184 13.0141 16.5677 13.0145 16.317C13.0147 16.1891 13.0148 16.0611 13.0147 15.9331C13.0146 15.8161 13.0147 15.6991 13.0151 15.582C13.0152 15.5396 13.0152 15.4971 13.015 15.4547C13.0149 15.3972 13.0151 15.3397 13.0154 15.2822C13.0154 15.2502 13.0154 15.2182 13.0155 15.1852C13.0225 15.1049 13.0379 15.0577 13.0796 14.9895Z" fill="#1A1F71"/>
<path d="M23.8702 14.9829C23.9144 14.9831 23.9586 14.9835 24.0028 14.9842C24.0363 14.9842 24.0363 14.9842 24.0705 14.9842C24.2369 14.9855 24.2369 14.9855 24.3019 15.018C24.3331 15.1117 24.334 15.1805 24.3341 15.2792C24.3342 15.3162 24.3343 15.3532 24.3344 15.3914C24.3344 15.4327 24.3344 15.4741 24.3343 15.5154C24.3344 15.5591 24.3345 15.6028 24.3346 15.6465C24.3348 15.767 24.3349 15.8874 24.3349 16.0079C24.335 16.1377 24.3352 16.2674 24.3354 16.3972C24.3357 16.6811 24.3359 16.965 24.336 17.2489C24.3361 17.426 24.3362 17.6031 24.3364 17.7802C24.3367 18.2703 24.337 18.7604 24.3371 19.2505C24.3371 19.2819 24.3371 19.3133 24.3371 19.3456C24.3371 19.3771 24.3371 19.4085 24.3371 19.4409C24.3372 19.5047 24.3372 19.5684 24.3372 19.6321C24.3372 19.6638 24.3372 19.6954 24.3372 19.7279C24.3373 20.2407 24.3378 20.7534 24.3385 21.2661C24.3392 21.792 24.3395 22.318 24.3395 22.8439C24.3396 23.1394 24.3397 23.4349 24.3402 23.7304C24.3407 23.9819 24.3408 24.2334 24.3406 24.4849C24.3405 24.6134 24.3405 24.7418 24.3409 24.8702C24.3413 24.9876 24.3412 25.1051 24.3409 25.2225C24.3408 25.2651 24.3409 25.3077 24.3412 25.3503C24.3415 25.408 24.3412 25.4657 24.3409 25.5233C24.341 25.5554 24.341 25.5875 24.341 25.6206C24.3303 25.6991 24.3303 25.6991 24.2935 25.7521C24.2097 25.808 24.1143 25.7968 24.017 25.7952C23.9964 25.7955 23.9758 25.7959 23.9545 25.7962C23.8055 25.7954 23.8055 25.7954 23.7405 25.7521C23.687 25.675 23.693 25.6158 23.693 25.5224C23.6928 25.4851 23.6926 25.4479 23.6924 25.4095C23.6926 25.3679 23.6928 25.3263 23.6931 25.2848C23.693 25.2408 23.6929 25.1968 23.6927 25.1529C23.6924 25.0317 23.6926 24.9105 23.693 24.7894C23.6932 24.6589 23.693 24.5283 23.6928 24.3978C23.6925 24.142 23.6927 23.8861 23.6931 23.6303C23.6935 23.3326 23.6934 23.035 23.6933 22.7373C23.6933 22.2064 23.6936 21.6754 23.6941 21.1445C23.6947 20.6288 23.6949 20.1131 23.6947 19.5974C23.6946 19.0363 23.6946 18.4753 23.6949 17.9143C23.6949 17.8545 23.695 17.7947 23.695 17.7349C23.695 17.7055 23.695 17.6761 23.695 17.6458C23.6952 17.4381 23.6951 17.2304 23.6951 17.0227C23.695 16.7698 23.6952 16.5168 23.6956 16.2639C23.6958 16.1347 23.6959 16.0055 23.6958 15.8764C23.6957 15.7583 23.6958 15.6402 23.6962 15.5221C23.6963 15.4793 23.6962 15.4364 23.6961 15.3935C23.696 15.3355 23.6962 15.2776 23.6965 15.2196C23.6965 15.1873 23.6965 15.155 23.6965 15.1218C23.7086 14.9951 23.7466 14.9903 23.8702 14.9829Z" fill="#1A1F71"/>
<path d="M8.54636 14.9829C8.59057 14.9831 8.63478 14.9835 8.67899 14.9842C8.71253 14.9842 8.71253 14.9842 8.74675 14.9842C8.91309 14.9855 8.91309 14.9855 8.97806 15.018C9.00925 15.1116 9.01018 15.1801 9.01029 15.2787C9.01039 15.3156 9.0105 15.3525 9.01062 15.3905C9.01059 15.4317 9.01057 15.4729 9.01054 15.5141C9.01062 15.5577 9.0107 15.6013 9.0108 15.6449C9.01103 15.7649 9.01108 15.885 9.0111 16.0051C9.01115 16.1344 9.01137 16.2638 9.01156 16.3932C9.01195 16.6762 9.01212 16.9592 9.01224 17.2422C9.01232 17.4188 9.01244 17.5954 9.01257 17.772C9.01292 18.2606 9.01321 18.7493 9.01331 19.2379C9.01331 19.2692 9.01332 19.3005 9.01333 19.3327C9.01333 19.3641 9.01334 19.3954 9.01335 19.4277C9.01336 19.4913 9.01337 19.5548 9.01338 19.6184C9.01339 19.6499 9.0134 19.6814 9.0134 19.7139C9.01352 20.2251 9.01401 20.7362 9.01468 21.2473C9.01535 21.7717 9.01571 22.2961 9.01574 22.8204C9.01577 23.115 9.01593 23.4096 9.01645 23.7042C9.01688 23.9549 9.01703 24.2057 9.0168 24.4565C9.01668 24.5845 9.01671 24.7125 9.01711 24.8405C9.01747 24.9576 9.01744 25.0747 9.01709 25.1918C9.01704 25.2343 9.01713 25.2767 9.01737 25.3192C9.01769 25.3767 9.01743 25.4342 9.01714 25.4918C9.01715 25.5238 9.01717 25.5558 9.01719 25.5888C9.00519 25.681 8.98828 25.7207 8.92109 25.7845C8.83572 25.7945 8.76218 25.7979 8.67721 25.7952C8.65498 25.7952 8.63274 25.7951 8.60984 25.7951C8.44489 25.7925 8.44489 25.7925 8.37992 25.7276C8.37278 25.6521 8.37278 25.6521 8.37275 25.5539C8.3726 25.5166 8.37245 25.4793 8.3723 25.4409C8.37242 25.3991 8.37255 25.3574 8.37268 25.3156C8.37262 25.2715 8.37253 25.2275 8.37241 25.1834C8.37218 25.0619 8.3723 24.9403 8.37247 24.8188C8.3726 24.6879 8.3724 24.557 8.37224 24.4261C8.37199 24.1694 8.37205 23.9128 8.37221 23.6562C8.37234 23.4477 8.37236 23.2393 8.3723 23.0308C8.37229 23.0012 8.37228 22.9716 8.37227 22.941C8.37225 22.8809 8.37223 22.8207 8.37221 22.7605C8.37205 22.1958 8.37224 21.631 8.37254 21.0663C8.3728 20.5812 8.37275 20.0962 8.37249 19.6111C8.37219 19.0484 8.37207 18.4858 8.37224 17.9231C8.37226 17.8631 8.37228 17.8032 8.3723 17.7432C8.3723 17.7137 8.37231 17.6842 8.37232 17.6538C8.37237 17.4455 8.37229 17.2372 8.37215 17.0288C8.37199 16.7751 8.37204 16.5214 8.37234 16.2677C8.37249 16.1381 8.37255 16.0085 8.37236 15.8789C8.37219 15.7605 8.37228 15.6421 8.37259 15.5236C8.37265 15.4806 8.37262 15.4376 8.37248 15.3946C8.37231 15.3364 8.37252 15.2783 8.37275 15.2201C8.37276 15.1877 8.37277 15.1553 8.37278 15.122C8.38477 14.9951 8.42264 14.9904 8.54636 14.9829Z" fill="#1A1F71"/>
<path d="M16.1228 14.9829C16.167 14.9831 16.2112 14.9835 16.2554 14.9842C16.289 14.9842 16.289 14.9842 16.3232 14.9842C16.4895 14.9855 16.4895 14.9855 16.5545 15.018C16.5857 15.1116 16.5866 15.1801 16.5867 15.2787C16.5868 15.3156 16.587 15.3525 16.5871 15.3905C16.587 15.4317 16.587 15.4729 16.587 15.5141C16.5871 15.5577 16.5872 15.6013 16.5873 15.6449C16.5875 15.7649 16.5875 15.885 16.5876 16.0051C16.5876 16.1344 16.5878 16.2638 16.588 16.3932C16.5884 16.6762 16.5886 16.9592 16.5887 17.2422C16.5888 17.4188 16.5889 17.5954 16.589 17.772C16.5894 18.2606 16.5897 18.7493 16.5898 19.2379C16.5898 19.2692 16.5898 19.3005 16.5898 19.3327C16.5898 19.3641 16.5898 19.3954 16.5898 19.4277C16.5898 19.4913 16.5898 19.5548 16.5898 19.6184C16.5898 19.6499 16.5899 19.6814 16.5899 19.7139C16.59 20.2251 16.5905 20.7362 16.5911 21.2473C16.5918 21.7717 16.5922 22.2961 16.5922 22.8204C16.5922 23.115 16.5924 23.4096 16.5929 23.7042C16.5933 23.9549 16.5935 24.2057 16.5932 24.4565C16.5931 24.5845 16.5932 24.7125 16.5936 24.8405C16.5939 24.9576 16.5939 25.0747 16.5935 25.1918C16.5935 25.2343 16.5936 25.2767 16.5938 25.3192C16.5941 25.3767 16.5939 25.4342 16.5936 25.4918C16.5936 25.5238 16.5936 25.5558 16.5936 25.5888C16.5817 25.6808 16.5643 25.7206 16.4975 25.7845C16.4173 25.7946 16.3495 25.7979 16.2697 25.7952C16.249 25.7952 16.2284 25.7951 16.2072 25.7951C16.0997 25.7933 16.0476 25.7884 15.9564 25.7276C15.9457 25.6521 15.9457 25.6521 15.9457 25.5539C15.9455 25.5166 15.9453 25.4793 15.9451 25.4409C15.9453 25.3991 15.9455 25.3574 15.9457 25.3156C15.9456 25.2715 15.9455 25.2275 15.9454 25.1834C15.9451 25.0619 15.9453 24.9403 15.9456 24.8188C15.9459 24.6879 15.9456 24.557 15.9455 24.4261C15.9452 24.1694 15.9454 23.9128 15.9457 23.6562C15.9461 23.3577 15.9461 23.0591 15.946 22.7605C15.9459 22.228 15.9462 21.6955 15.9468 21.1629C15.9473 20.6457 15.9475 20.1284 15.9474 19.6111C15.9472 19.0484 15.9472 18.4858 15.9475 17.9231C15.9476 17.8631 15.9476 17.8032 15.9476 17.7432C15.9477 17.7137 15.9477 17.6842 15.9477 17.6538C15.9478 17.4455 15.9478 17.2372 15.9477 17.0288C15.9477 16.7751 15.9478 16.5214 15.9482 16.2677C15.9484 16.1381 15.9486 16.0085 15.9484 15.8789C15.9483 15.7605 15.9485 15.6421 15.9488 15.5236C15.9489 15.4806 15.9489 15.4376 15.9488 15.3946C15.9486 15.3364 15.9489 15.2783 15.9491 15.2201C15.9491 15.1877 15.9492 15.1553 15.9492 15.122C15.9612 14.9952 15.9991 14.9904 16.1228 14.9829Z" fill="#1A1F71"/>
<path d="M30.6802 14.9842C30.7041 14.9838 30.7279 14.9835 30.7525 14.9831C30.7867 14.983 30.7867 14.983 30.8217 14.9829C30.8427 14.9828 30.8637 14.9827 30.8853 14.9826C30.9384 14.9895 30.9384 14.9895 30.9953 15.0465C31.0025 15.122 31.0025 15.122 31.0025 15.2201C31.0027 15.2574 31.0028 15.2947 31.003 15.3331C31.0028 15.3749 31.0027 15.4167 31.0026 15.4584C31.0026 15.5025 31.0027 15.5466 31.0028 15.5906C31.0031 15.7122 31.003 15.8337 31.0028 15.9553C31.0027 16.0862 31.0029 16.2171 31.003 16.348C31.0033 16.6046 31.0032 16.8612 31.003 17.1178C31.0029 17.3263 31.0029 17.5348 31.003 17.7432C31.003 17.7729 31.003 17.8025 31.003 17.833C31.003 17.8932 31.003 17.9533 31.003 18.0135C31.0032 18.5782 31.003 19.143 31.0027 19.7078C31.0025 20.1928 31.0025 20.6779 31.0028 21.1629C31.0031 21.7256 31.0032 22.2883 31.003 22.851C31.003 22.9109 31.003 22.9709 31.003 23.0308C31.003 23.0603 31.0029 23.0898 31.0029 23.1202C31.0029 23.3285 31.003 23.5369 31.0031 23.7452C31.0033 23.9989 31.0032 24.2527 31.0029 24.5064C31.0028 24.636 31.0027 24.7655 31.0029 24.8951C31.0031 25.0135 31.003 25.132 31.0027 25.2504C31.0026 25.2934 31.0026 25.3365 31.0028 25.3795C31.0029 25.4376 31.0027 25.4958 31.0025 25.5539C31.0025 25.5863 31.0025 25.6187 31.0025 25.6521C30.9953 25.7276 30.9953 25.7276 30.9384 25.7845C30.8565 25.7902 30.7781 25.7925 30.6963 25.7917C30.6739 25.7919 30.6515 25.7921 30.6285 25.7923C30.4614 25.7917 30.4614 25.7917 30.3972 25.7276C30.3901 25.6519 30.3901 25.6519 30.3901 25.5534C30.39 25.516 30.3898 25.4786 30.3897 25.44C30.3899 25.3981 30.39 25.3562 30.3902 25.3143C30.3901 25.2701 30.39 25.2259 30.3899 25.1817C30.3898 25.0598 30.3899 24.9379 30.3902 24.816C30.3904 24.6846 30.3902 24.5533 30.3901 24.422C30.39 24.1646 30.3901 23.9072 30.3904 23.6498C30.3907 23.3504 30.3907 23.0509 30.3907 22.7515C30.3907 22.2174 30.3909 21.6833 30.3913 21.1492C30.3917 20.6304 30.3919 20.1115 30.3919 19.5926C30.3919 19.5607 30.3919 19.5287 30.3919 19.4958C30.3919 19.4479 30.3919 19.4479 30.3919 19.3991C30.3919 18.8093 30.3921 18.2194 30.3923 17.6296C30.3924 17.4206 30.3924 17.2116 30.3924 17.0026C30.3925 16.7482 30.3926 16.4937 30.3929 16.2392C30.393 16.1092 30.3931 15.9793 30.393 15.8493C30.393 15.7305 30.3931 15.6117 30.3933 15.4929C30.3934 15.4498 30.3934 15.4066 30.3933 15.3635C30.3933 15.3052 30.3934 15.2469 30.3935 15.1886C30.3936 15.1561 30.3936 15.1236 30.3936 15.0901C30.4015 14.9313 30.5556 14.9843 30.6802 14.9842Z" fill="#1A1F71"/>
<path d="M21.8769 14.9826C21.9084 14.9828 21.9084 14.9828 21.9406 14.9829C21.9634 14.983 21.9862 14.983 22.0097 14.9831C22.0336 14.9834 22.0574 14.9838 22.082 14.9842C22.1179 14.9842 22.1179 14.9842 22.1546 14.9842C22.3325 14.9855 22.3325 14.9855 22.365 15.018C22.3678 15.075 22.3686 15.132 22.3686 15.1891C22.3687 15.2265 22.3688 15.264 22.3688 15.3026C22.3688 15.3447 22.3687 15.3868 22.3686 15.4289C22.3687 15.4732 22.3687 15.5175 22.3688 15.5618C22.3689 15.6841 22.3688 15.8064 22.3687 15.9287C22.3687 16.0604 22.3688 16.192 22.3689 16.3237C22.369 16.5819 22.369 16.8401 22.3689 17.0983C22.3688 17.308 22.3688 17.5178 22.3688 17.7275C22.3688 17.7573 22.3688 17.7871 22.3688 17.8178C22.3689 17.8783 22.3689 17.9388 22.3689 17.9993C22.369 18.5674 22.3689 19.1355 22.3687 19.7036C22.3686 20.1916 22.3686 20.6796 22.3687 21.1677C22.3689 21.7336 22.3689 22.2996 22.3689 22.8656C22.3688 22.9259 22.3688 22.9862 22.3688 23.0465C22.3688 23.0762 22.3688 23.1058 22.3688 23.1364C22.3688 23.346 22.3688 23.5556 22.3689 23.7652C22.369 24.0205 22.369 24.2758 22.3688 24.531C22.3687 24.6614 22.3687 24.7918 22.3688 24.9222C22.3689 25.0413 22.3688 25.1605 22.3687 25.2796C22.3687 25.3229 22.3687 25.3662 22.3687 25.4095C22.3688 25.468 22.3687 25.5264 22.3686 25.5849C22.3686 25.6175 22.3686 25.6501 22.3686 25.6837C22.365 25.756 22.365 25.756 22.3365 25.7845C22.2566 25.7889 22.1779 25.7911 22.098 25.7916C22.0646 25.7925 22.0646 25.7925 22.0306 25.7934C21.8676 25.7945 21.8676 25.7945 21.8032 25.7523C21.7504 25.6749 21.7562 25.6155 21.7562 25.5223C21.756 25.4851 21.7558 25.4479 21.7556 25.4095C21.7558 25.3679 21.756 25.3263 21.7562 25.2848C21.7561 25.2408 21.756 25.1968 21.7559 25.1528C21.7556 25.0317 21.7558 24.9105 21.7561 24.7894C21.7564 24.6588 21.7561 24.5283 21.756 24.3978C21.7557 24.1419 21.7559 23.8861 21.7562 23.6303C21.7566 23.3326 21.7566 23.035 21.7565 22.7373C21.7564 22.2063 21.7567 21.6754 21.7573 21.1445C21.7578 20.6288 21.758 20.1131 21.7579 19.5973C21.7577 19.0363 21.7577 18.4753 21.758 17.9142C21.7581 17.8545 21.7581 17.7947 21.7581 17.7349C21.7582 17.7055 21.7582 17.6761 21.7582 17.6458C21.7583 17.4381 21.7583 17.2304 21.7582 17.0227C21.7582 16.7697 21.7583 16.5168 21.7587 16.2638C21.759 16.1347 21.7591 16.0055 21.7589 15.8763C21.7588 15.7583 21.759 15.6402 21.7593 15.5221C21.7594 15.4792 21.7594 15.4364 21.7593 15.3935C21.7591 15.3355 21.7594 15.2776 21.7596 15.2196C21.7597 15.1873 21.7597 15.155 21.7597 15.1217C21.7681 15.0336 21.7845 14.9946 21.8769 14.9826Z" fill="#1A1F71"/>
<path d="M5.50314 14.9895C5.58741 14.988 5.67165 14.9869 5.75593 14.986C5.7799 14.9855 5.80388 14.985 5.82858 14.9845C5.85153 14.9843 5.87448 14.9842 5.89812 14.984C5.92989 14.9835 5.92989 14.9835 5.96231 14.9831C6.01584 14.9895 6.01584 14.9895 6.0728 15.0465C6.07994 15.122 6.07994 15.122 6.07997 15.2202C6.08012 15.2574 6.08027 15.2947 6.08042 15.3331C6.0803 15.3749 6.08017 15.4167 6.08004 15.4585C6.0801 15.5025 6.08019 15.5466 6.0803 15.5907C6.08054 15.7122 6.08042 15.8337 6.08025 15.9553C6.08012 16.0862 6.08032 16.2171 6.08048 16.348C6.08073 16.6046 6.08067 16.8612 6.08051 17.1178C6.08038 17.3263 6.08036 17.5348 6.08042 17.7433C6.08043 17.7729 6.08044 17.8025 6.08045 17.833C6.08047 17.8932 6.08049 17.9533 6.08051 18.0135C6.08067 18.5783 6.08048 19.143 6.08018 19.7078C6.07992 20.1928 6.07997 20.6779 6.08023 21.163C6.08053 21.7256 6.08065 22.2883 6.08048 22.851C6.08046 22.9109 6.08044 22.9709 6.08042 23.0308C6.08042 23.0603 6.08041 23.0898 6.0804 23.1202C6.08035 23.3285 6.08043 23.5369 6.08057 23.7452C6.08073 23.9989 6.08068 24.2527 6.08038 24.5064C6.08023 24.636 6.08017 24.7655 6.08036 24.8951C6.08053 25.0136 6.08044 25.132 6.08013 25.2504C6.08007 25.2935 6.0801 25.3365 6.08024 25.3795C6.08041 25.4376 6.0802 25.4958 6.07997 25.5539C6.07996 25.5863 6.07995 25.6187 6.07994 25.6521C6.0728 25.7276 6.0728 25.7276 6.01584 25.7845C5.93399 25.7902 5.85552 25.7925 5.77373 25.7917C5.75137 25.7919 5.72901 25.7921 5.70597 25.7923C5.53884 25.7918 5.53884 25.7918 5.47466 25.7276C5.46755 25.6521 5.46755 25.6521 5.46757 25.5539C5.46744 25.5166 5.46731 25.4794 5.46717 25.4409C5.46732 25.3992 5.46747 25.3574 5.46762 25.3156C5.46757 25.2716 5.4675 25.2275 5.46741 25.1834C5.46723 25.0619 5.4674 24.9403 5.46763 24.8188C5.46782 24.6879 5.46768 24.557 5.46758 24.4261C5.46743 24.1695 5.4676 23.9129 5.46786 23.6562C5.46815 23.3577 5.46815 23.0591 5.46814 22.7606C5.46812 22.228 5.46839 21.6955 5.4688 21.163C5.4692 20.6457 5.4694 20.1284 5.46938 19.6111C5.46938 19.5793 5.46938 19.5474 5.46938 19.5146C5.46938 19.4828 5.46938 19.451 5.46938 19.4182C5.46936 18.8301 5.46952 18.242 5.46978 17.6539C5.46986 17.4455 5.46989 17.2372 5.46991 17.0289C5.46993 16.7751 5.47005 16.5214 5.47032 16.2677C5.47045 16.1381 5.47053 16.0085 5.4705 15.879C5.47047 15.7605 5.47057 15.6421 5.47077 15.5236C5.47083 15.4806 5.47083 15.4376 5.47078 15.3946C5.47072 15.3365 5.47085 15.2783 5.471 15.2202C5.47102 15.1878 5.47104 15.1554 5.47106 15.122C5.47466 15.0465 5.47466 15.0465 5.50314 14.9895Z" fill="#1A1F71"/>
<path d="M27.775 14.9824C27.7988 14.9818 27.8227 14.9812 27.8473 14.9806C27.8701 14.9804 27.8929 14.9803 27.9164 14.9801C27.9479 14.9797 27.9479 14.9797 27.98 14.9793C27.9976 14.9827 28.0151 14.986 28.0331 14.9895C28.1002 15.0902 28.0972 15.1313 28.0973 15.2506C28.0974 15.2876 28.0976 15.3246 28.0977 15.3627C28.0976 15.4041 28.0975 15.4454 28.0973 15.4867C28.0974 15.5304 28.0975 15.5741 28.0976 15.6178C28.0978 15.7382 28.0977 15.8586 28.0975 15.979C28.0974 16.1087 28.0976 16.2384 28.0978 16.3681C28.098 16.6224 28.098 16.8766 28.0978 17.1309C28.0977 17.3375 28.0976 17.544 28.0977 17.7506C28.0977 17.78 28.0977 17.8094 28.0977 17.8396C28.0978 17.8992 28.0978 17.9589 28.0978 18.0185C28.098 18.5783 28.0978 19.1381 28.0975 19.6978C28.0972 20.1785 28.0972 20.6591 28.0975 21.1397C28.0978 21.6974 28.0979 22.2551 28.0978 22.8127C28.0977 22.8722 28.0977 22.9316 28.0977 22.9911C28.0977 23.0203 28.0977 23.0496 28.0977 23.0797C28.0976 23.2861 28.0977 23.4925 28.0979 23.6989C28.098 23.9503 28.098 24.2018 28.0977 24.4532C28.0975 24.5816 28.0975 24.7099 28.0976 24.8383C28.0978 24.9557 28.0977 25.0731 28.0974 25.1905C28.0974 25.2331 28.0974 25.2757 28.0975 25.3182C28.0977 25.3759 28.0975 25.4336 28.0973 25.4913C28.0972 25.5234 28.0972 25.5555 28.0972 25.5886C28.0902 25.6691 28.0749 25.7162 28.0331 25.7845C27.9536 25.786 27.8741 25.7872 27.7946 25.7881C27.772 25.7885 27.7493 25.789 27.726 25.7895C27.667 25.79 27.6079 25.7874 27.5489 25.7845C27.4919 25.7275 27.4919 25.7275 27.4848 25.6518C27.4848 25.6193 27.4848 25.5868 27.4849 25.5533C27.4847 25.5159 27.4846 25.4785 27.4845 25.44C27.4846 25.3981 27.4847 25.3562 27.4849 25.3143C27.4849 25.2701 27.4848 25.2259 27.4847 25.1817C27.4845 25.0598 27.4847 24.9378 27.4849 24.8159C27.4851 24.6846 27.485 24.5533 27.4849 24.422C27.4847 24.1646 27.4849 23.9072 27.4851 23.6498C27.4854 23.3503 27.4854 23.0509 27.4854 22.7514C27.4854 22.2174 27.4857 21.6833 27.4861 21.1492C27.4865 20.6303 27.4867 20.1115 27.4867 19.5926C27.4867 19.5606 27.4867 19.5287 27.4867 19.4958C27.4867 19.4479 27.4867 19.4479 27.4867 19.3991C27.4866 18.8092 27.4868 18.2194 27.4871 17.6296C27.4871 17.4206 27.4872 17.2116 27.4872 17.0026C27.4872 16.7481 27.4873 16.4936 27.4876 16.2392C27.4877 16.1092 27.4878 15.9792 27.4878 15.8492C27.4878 15.7305 27.4879 15.6117 27.4881 15.4929C27.4881 15.4497 27.4881 15.4066 27.4881 15.3634C27.488 15.3051 27.4881 15.2468 27.4883 15.1886C27.4883 15.1561 27.4883 15.1236 27.4883 15.0901C27.4963 14.9316 27.6503 14.9831 27.775 14.9824Z" fill="#1A1F71"/>
<path d="M14.13 14.9831C14.1512 14.9834 14.1724 14.9837 14.1942 14.984C14.2286 14.9842 14.2286 14.9842 14.2638 14.9845C14.2997 14.9852 14.2997 14.9852 14.3364 14.986C14.3727 14.9864 14.3727 14.9864 14.4097 14.9867C14.4696 14.9874 14.5294 14.9884 14.5892 14.9895C14.6204 15.0832 14.6213 15.152 14.6213 15.2507C14.6214 15.2877 14.6215 15.3247 14.6216 15.3628C14.6216 15.4041 14.6215 15.4454 14.6215 15.4867C14.6215 15.5304 14.6216 15.5741 14.6217 15.6178C14.6219 15.7382 14.6218 15.8586 14.6218 15.979C14.6218 16.1087 14.622 16.2385 14.6221 16.3682C14.6223 16.6224 14.6224 16.8767 14.6224 17.1309C14.6224 17.3375 14.6225 17.5441 14.6226 17.7507C14.6228 18.3359 14.623 18.9212 14.623 19.5064C14.623 19.538 14.623 19.5696 14.623 19.6021C14.623 19.6337 14.6229 19.6653 14.6229 19.6979C14.6229 20.2104 14.6232 20.7229 14.6236 21.2354C14.624 21.7612 14.6242 22.287 14.6242 22.8128C14.6242 23.1082 14.6243 23.4035 14.6246 23.6989C14.6248 23.9504 14.6249 24.2018 14.6247 24.4533C14.6246 24.5816 14.6246 24.71 14.6248 24.8383C14.6251 24.9558 14.625 25.0732 14.6248 25.1906C14.6247 25.2332 14.6248 25.2757 14.6249 25.3183C14.6251 25.376 14.625 25.4337 14.6248 25.4914C14.6248 25.5235 14.6248 25.5556 14.6248 25.5886C14.6178 25.6692 14.6025 25.7163 14.5607 25.7846C14.4812 25.7861 14.4017 25.7872 14.3222 25.7881C14.2995 25.7886 14.2769 25.7891 14.2536 25.7896C14.1946 25.7901 14.1355 25.7875 14.0765 25.7846C13.9984 25.7064 14.0124 25.6634 14.0124 25.5539C14.0122 25.5166 14.0121 25.4794 14.0119 25.4409C14.012 25.3992 14.0122 25.3574 14.0123 25.3156C14.0122 25.2716 14.0121 25.2275 14.012 25.1834C14.0118 25.0619 14.0119 24.9403 14.0121 24.8188C14.0122 24.6879 14.012 24.557 14.0119 24.4261C14.0116 24.1695 14.0117 23.9129 14.0118 23.6562C14.012 23.4478 14.012 23.2393 14.0119 23.0308C14.0119 23.0012 14.0119 22.9716 14.0119 22.9411C14.0119 22.8809 14.0118 22.8207 14.0118 22.7606C14.0117 22.1958 14.0119 21.6311 14.0122 21.0663C14.0124 20.5812 14.0124 20.0962 14.0121 19.6111C14.0118 19.0484 14.0117 18.4858 14.0119 17.9231C14.0119 17.8632 14.0119 17.8032 14.0119 17.7433C14.0119 17.7138 14.0119 17.6843 14.0119 17.6539C14.012 17.4455 14.0119 17.2372 14.0118 17.0289C14.0116 16.7751 14.0117 16.5214 14.012 16.2677C14.0121 16.1381 14.0122 16.0085 14.012 15.879C14.0118 15.7605 14.0119 15.6421 14.0122 15.5236C14.0123 15.4806 14.0122 15.4376 14.0121 15.3946C14.0119 15.3365 14.0121 15.2783 14.0124 15.2202C14.0124 15.1878 14.0124 15.1554 14.0124 15.122C14.0208 15.0335 14.0371 14.9943 14.13 14.9831Z" fill="#1A1F71"/>
<path d="M6.55357 14.9831C6.57476 14.9834 6.59594 14.9837 6.61776 14.984C6.65218 14.9842 6.65218 14.9842 6.6873 14.9845C6.72326 14.9852 6.72326 14.9852 6.75995 14.986C6.79624 14.9864 6.79624 14.9864 6.83327 14.9867C6.8931 14.9874 6.95292 14.9884 7.01274 14.9895C7.04397 15.0832 7.04482 15.152 7.04488 15.2507C7.04498 15.2877 7.04507 15.3247 7.04516 15.3628C7.04512 15.4041 7.04508 15.4454 7.04503 15.4867C7.04508 15.5304 7.04515 15.5741 7.04522 15.6178C7.0454 15.7382 7.04539 15.8586 7.04536 15.979C7.04535 16.1087 7.04551 16.2385 7.04565 16.3682C7.04588 16.6224 7.04596 16.8767 7.04598 17.1309C7.04599 17.3375 7.04605 17.5441 7.04614 17.7507C7.04639 18.3359 7.04652 18.9212 7.0465 19.5064C7.0465 19.538 7.0465 19.5696 7.0465 19.6021C7.0465 19.6337 7.0465 19.6653 7.04649 19.6979C7.04648 20.2104 7.04675 20.7229 7.04716 21.2354C7.04757 21.7612 7.04776 22.287 7.04774 22.8128C7.04773 23.1082 7.04781 23.4035 7.04811 23.6989C7.04837 23.9504 7.04843 24.2018 7.04824 24.4533C7.04815 24.5816 7.04815 24.71 7.04839 24.8383C7.04862 24.9558 7.04858 25.0732 7.04833 25.1906C7.04828 25.2332 7.04834 25.2757 7.0485 25.3183C7.0487 25.376 7.04851 25.4337 7.04831 25.4914C7.04831 25.5235 7.04832 25.5556 7.04833 25.5886C7.04135 25.6692 7.02608 25.7163 6.98425 25.7846C6.90473 25.7861 6.82524 25.7872 6.74571 25.7881C6.72309 25.7886 6.70047 25.7891 6.67717 25.7896C6.61811 25.7901 6.55904 25.7875 6.50004 25.7846C6.42193 25.7064 6.43594 25.6634 6.43591 25.5539C6.43576 25.5166 6.43561 25.4794 6.43546 25.4409C6.43558 25.3992 6.43571 25.3574 6.43584 25.3156C6.43578 25.2716 6.43569 25.2275 6.43558 25.1834C6.43534 25.0619 6.43546 24.9403 6.43563 24.8188C6.43576 24.6879 6.43556 24.557 6.4354 24.4261C6.43515 24.1695 6.43521 23.9129 6.43537 23.6562C6.4355 23.4478 6.43552 23.2393 6.43546 23.0308C6.43545 23.0012 6.43544 22.9716 6.43543 22.9411C6.43541 22.8809 6.43539 22.8207 6.43537 22.7606C6.43521 22.1958 6.4354 21.6311 6.4357 21.0663C6.43596 20.5812 6.43591 20.0962 6.43565 19.6111C6.43535 19.0484 6.43523 18.4858 6.4354 17.9231C6.43542 17.8632 6.43544 17.8032 6.43546 17.7433C6.43546 17.7138 6.43547 17.6843 6.43548 17.6539C6.43553 17.4455 6.43545 17.2372 6.43531 17.0289C6.43515 16.7751 6.4352 16.5214 6.4355 16.2677C6.43565 16.1381 6.43571 16.0085 6.43552 15.879C6.43535 15.7605 6.43544 15.6421 6.43575 15.5236C6.43581 15.4806 6.43578 15.4376 6.43564 15.3946C6.43547 15.3365 6.43568 15.2783 6.43591 15.2202C6.43592 15.1878 6.43593 15.1554 6.43594 15.122C6.44431 15.0335 6.46064 14.9943 6.55357 14.9831Z" fill="#1A1F71"/>
<path d="M15.0449 14.9895C15.128 14.9816 15.2041 14.9789 15.287 14.9806C15.3206 14.9804 15.3206 14.9804 15.3548 14.9803C15.5215 14.9819 15.5215 14.9819 15.5861 15.0465C15.5932 15.1219 15.5932 15.1219 15.5933 15.2201C15.5934 15.2574 15.5936 15.2947 15.5937 15.3331C15.5936 15.3749 15.5935 15.4166 15.5933 15.4584C15.5934 15.5025 15.5935 15.5465 15.5936 15.5906C15.5938 15.7122 15.5937 15.8337 15.5935 15.9552C15.5934 16.0861 15.5936 16.217 15.5938 16.3479C15.594 16.6046 15.594 16.8612 15.5938 17.1178C15.5937 17.3263 15.5937 17.5347 15.5937 17.7432C15.5937 17.7728 15.5937 17.8025 15.5937 17.833C15.5938 17.8931 15.5938 17.9533 15.5938 18.0135C15.594 18.5782 15.5938 19.143 15.5935 19.7077C15.5932 20.1928 15.5933 20.6779 15.5935 21.1629C15.5938 21.7256 15.5939 22.2883 15.5938 22.8509C15.5937 22.9109 15.5937 22.9708 15.5937 23.0308C15.5937 23.0603 15.5937 23.0898 15.5937 23.1202C15.5936 23.3285 15.5937 23.5368 15.5939 23.7452C15.594 23.9989 15.594 24.2526 15.5937 24.5064C15.5935 24.6359 15.5935 24.7655 15.5936 24.8951C15.5938 25.0135 15.5937 25.132 15.5934 25.2504C15.5934 25.2934 15.5934 25.3364 15.5935 25.3794C15.5937 25.4376 15.5935 25.4957 15.5933 25.5539C15.5933 25.5863 15.5932 25.6187 15.5932 25.652C15.5861 25.7275 15.5861 25.7275 15.5291 25.7845C15.4463 25.7886 15.3662 25.7898 15.2835 25.7881C15.2606 25.7878 15.2378 25.7876 15.2143 25.7873C15.1578 25.7866 15.1014 25.7856 15.0449 25.7845C14.9841 25.6852 14.9808 25.6066 14.9808 25.4913C14.9806 25.4542 14.9805 25.4172 14.9803 25.3789C14.9805 25.3377 14.9806 25.2964 14.9807 25.2552C14.9807 25.2115 14.9806 25.1677 14.9804 25.124C14.9802 25.0036 14.9803 24.8832 14.9805 24.7628C14.9806 24.6331 14.9804 24.5033 14.9803 24.3735C14.98 24.1193 14.9801 23.865 14.9802 23.6108C14.9804 23.4042 14.9804 23.1976 14.9803 22.9911C14.9803 22.9617 14.9803 22.9323 14.9803 22.9021C14.9803 22.8424 14.9803 22.7828 14.9802 22.7231C14.9801 22.1634 14.9803 21.6037 14.9806 21.044C14.9808 20.5633 14.9808 20.0827 14.9805 19.6021C14.9802 19.0444 14.9801 18.4866 14.9803 17.9289C14.9803 17.8695 14.9803 17.8101 14.9803 17.7506C14.9803 17.7214 14.9803 17.6922 14.9804 17.662C14.9804 17.4556 14.9803 17.2492 14.9802 17.0428C14.98 16.7913 14.9801 16.5399 14.9804 16.2885C14.9805 16.1602 14.9806 16.0318 14.9804 15.9034C14.9802 15.7861 14.9803 15.6687 14.9806 15.5513C14.9807 15.5087 14.9807 15.4661 14.9805 15.4235C14.9803 15.3659 14.9806 15.3083 14.9808 15.2506C14.9808 15.2185 14.9808 15.1864 14.9808 15.1534C14.988 15.0749 14.988 15.0749 15.0449 14.9895Z" fill="#1A1F71"/>
<path d="M12.314 14.9803C12.3364 14.9804 12.3587 14.9805 12.3818 14.9806C12.4041 14.9802 12.4265 14.9797 12.4495 14.9792C12.5144 14.9792 12.5144 14.9792 12.6239 14.9895C12.691 15.0902 12.688 15.1314 12.688 15.2506C12.6882 15.2876 12.6883 15.3247 12.6885 15.3628C12.6883 15.4041 12.6882 15.4454 12.6881 15.4867C12.6881 15.5304 12.6882 15.5741 12.6883 15.6178C12.6886 15.7382 12.6885 15.8586 12.6883 15.979C12.6882 16.1087 12.6884 16.2384 12.6885 16.3682C12.6888 16.6224 12.6887 16.8767 12.6885 17.1309C12.6884 17.3375 12.6884 17.5441 12.6885 17.7507C12.6885 17.78 12.6885 17.8094 12.6885 17.8396C12.6885 17.8993 12.6885 17.9589 12.6885 18.0186C12.6887 18.5783 12.6885 19.1381 12.6882 19.6979C12.688 20.1785 12.688 20.6591 12.6883 21.1398C12.6886 21.6974 12.6887 22.2551 12.6885 22.8128C12.6885 22.8722 12.6885 22.9317 12.6885 22.9911C12.6885 23.0203 12.6884 23.0496 12.6884 23.0797C12.6884 23.2861 12.6885 23.4925 12.6886 23.6989C12.6888 23.9503 12.6887 24.2018 12.6884 24.4532C12.6883 24.5816 12.6882 24.71 12.6884 24.8383C12.6886 24.9557 12.6885 25.0732 12.6882 25.1906C12.6881 25.2331 12.6881 25.2757 12.6883 25.3183C12.6884 25.376 12.6882 25.4337 12.688 25.4913C12.688 25.5234 12.688 25.5555 12.688 25.5886C12.681 25.6691 12.6657 25.7163 12.6239 25.7845C12.5443 25.7861 12.4649 25.7872 12.3853 25.7881C12.3627 25.7886 12.3401 25.7891 12.3168 25.7895C12.2577 25.79 12.1987 25.7875 12.1397 25.7845C12.0615 25.7064 12.0756 25.6633 12.0755 25.5539C12.0754 25.5166 12.0752 25.4793 12.0751 25.4409C12.0752 25.3992 12.0753 25.3574 12.0755 25.3156C12.0754 25.2715 12.0753 25.2275 12.0752 25.1834C12.075 25.0619 12.0751 24.9403 12.0752 24.8188C12.0754 24.6879 12.0752 24.557 12.075 24.4261C12.0748 24.1695 12.0748 23.9128 12.075 23.6562C12.0751 23.4478 12.0751 23.2393 12.0751 23.0308C12.0751 23.0012 12.0751 22.9716 12.075 22.941C12.075 22.8809 12.075 22.8207 12.075 22.7606C12.0748 22.1958 12.075 21.631 12.0753 21.0663C12.0756 20.5812 12.0755 20.0962 12.0753 19.6111C12.075 19.0484 12.0748 18.4858 12.075 17.9231C12.075 17.8631 12.0751 17.8032 12.0751 17.7432C12.0751 17.7137 12.0751 17.6842 12.0751 17.6539C12.0751 17.4455 12.0751 17.2372 12.0749 17.0289C12.0748 16.7751 12.0748 16.5214 12.0751 16.2677C12.0753 16.1381 12.0753 16.0085 12.0751 15.879C12.075 15.7605 12.0751 15.6421 12.0754 15.5236C12.0754 15.4806 12.0754 15.4376 12.0753 15.3946C12.0751 15.3364 12.0753 15.2783 12.0755 15.2201C12.0755 15.1877 12.0755 15.1554 12.0756 15.122C12.09 14.9689 12.1809 14.9816 12.314 14.9803Z" fill="#1A1F71"/>
<path d="M4.73755 14.9803C4.75991 14.9804 4.78228 14.9805 4.80531 14.9806C4.82767 14.9802 4.85003 14.9797 4.87307 14.9792C4.93794 14.9792 4.93794 14.9792 5.04742 14.9895C5.11453 15.0902 5.11152 15.1314 5.11155 15.2506C5.1117 15.2876 5.11185 15.3247 5.112 15.3628C5.11188 15.4041 5.11175 15.4454 5.11162 15.4867C5.11168 15.5304 5.11177 15.5741 5.11189 15.6178C5.11212 15.7382 5.11201 15.8586 5.11183 15.979C5.1117 16.1087 5.1119 16.2384 5.11206 16.3682C5.11231 16.6224 5.11226 16.8767 5.11209 17.1309C5.11196 17.3375 5.11194 17.5441 5.11201 17.7507C5.11201 17.78 5.11202 17.8094 5.11203 17.8396C5.11205 17.8993 5.11207 17.9589 5.11209 18.0186C5.11225 18.5783 5.11206 19.1381 5.11176 19.6979C5.1115 20.1785 5.11155 20.6591 5.11181 21.1398C5.11211 21.6974 5.11223 22.2551 5.11206 22.8128C5.11204 22.8722 5.11202 22.9317 5.11201 22.9911C5.112 23.0203 5.11199 23.0496 5.11198 23.0797C5.11193 23.2861 5.11201 23.4925 5.11215 23.6989C5.11231 23.9503 5.11226 24.2018 5.11196 24.4532C5.11181 24.5816 5.11175 24.71 5.11194 24.8383C5.11211 24.9557 5.11202 25.0732 5.11171 25.1906C5.11165 25.2331 5.11168 25.2757 5.11182 25.3183C5.11199 25.376 5.11178 25.4337 5.11155 25.4913C5.11154 25.5234 5.11153 25.5555 5.11152 25.5886C5.10451 25.6691 5.08924 25.7163 5.04742 25.7845C4.9679 25.7861 4.8884 25.7872 4.80887 25.7881C4.78626 25.7886 4.76364 25.7891 4.74034 25.7895C4.68127 25.79 4.6222 25.7875 4.56321 25.7845C4.48509 25.7064 4.4991 25.6633 4.49907 25.5539C4.49893 25.5166 4.49878 25.4793 4.49862 25.4409C4.49875 25.3992 4.49888 25.3574 4.49901 25.3156C4.49894 25.2715 4.49885 25.2275 4.49874 25.1834C4.4985 25.0619 4.49862 24.9403 4.4988 24.8188C4.49892 24.6879 4.49873 24.557 4.49857 24.4261C4.49831 24.1695 4.49837 23.9128 4.49854 23.6562C4.49866 23.4478 4.49868 23.2393 4.49862 23.0308C4.49861 23.0012 4.4986 22.9716 4.49859 22.941C4.49857 22.8809 4.49856 22.8207 4.49854 22.7606C4.49837 22.1958 4.49856 21.631 4.49887 21.0663C4.49912 20.5812 4.49908 20.0962 4.49882 19.6111C4.49851 19.0484 4.49839 18.4858 4.49857 17.9231C4.49858 17.8631 4.4986 17.8032 4.49862 17.7432C4.49863 17.7137 4.49864 17.6842 4.49865 17.6539C4.4987 17.4455 4.49861 17.2372 4.49848 17.0289C4.49832 16.7751 4.49836 16.5214 4.49866 16.2677C4.49882 16.1381 4.49887 16.0085 4.49868 15.879C4.49852 15.7605 4.49861 15.6421 4.49891 15.5236C4.49898 15.4806 4.49894 15.4376 4.4988 15.3946C4.49863 15.3364 4.49884 15.2783 4.49907 15.2201C4.49908 15.1877 4.49909 15.1554 4.4991 15.122C4.51358 14.9689 4.60448 14.9816 4.73755 14.9803Z" fill="#1A1F71"/>
<path d="M31.5341 14.9839C31.5788 14.9843 31.6235 14.985 31.6683 14.986C31.6911 14.9862 31.7139 14.9865 31.7375 14.9867C31.7939 14.9874 31.8504 14.9884 31.9068 14.9895C31.9675 15.0886 31.9709 15.167 31.9709 15.2822C31.9711 15.3191 31.9712 15.3561 31.9714 15.3942C31.9713 15.4353 31.9711 15.4764 31.971 15.5175C31.9711 15.5612 31.9712 15.6048 31.9713 15.6484C31.9715 15.7684 31.9714 15.8884 31.9712 16.0084C31.9711 16.1377 31.9713 16.2671 31.9714 16.3964C31.9717 16.6499 31.9716 16.9034 31.9715 17.1568C31.9713 17.3628 31.9713 17.5687 31.9714 17.7747C31.9714 17.8039 31.9714 17.8332 31.9714 17.8634C31.9714 17.9229 31.9715 17.9823 31.9715 18.0418C31.9716 18.5999 31.9714 19.158 31.9711 19.716C31.9709 20.1952 31.9709 20.6743 31.9712 21.1535C31.9715 21.7095 31.9716 22.2656 31.9714 22.8216C31.9714 22.8809 31.9714 22.9401 31.9714 22.9994C31.9714 23.0285 31.9714 23.0577 31.9714 23.0877C31.9713 23.2935 31.9714 23.4993 31.9715 23.705C31.9717 23.9557 31.9716 24.2064 31.9713 24.457C31.9712 24.585 31.9711 24.713 31.9713 24.8409C31.9715 24.958 31.9714 25.075 31.9711 25.192C31.971 25.2345 31.9711 25.2769 31.9712 25.3193C31.9714 25.3769 31.9712 25.4344 31.9709 25.4919C31.9709 25.5239 31.9709 25.5559 31.9709 25.5888C31.9639 25.6692 31.9485 25.7164 31.9068 25.7845C31.8273 25.7861 31.7478 25.7872 31.6683 25.7881C31.6456 25.7886 31.623 25.789 31.5997 25.7895C31.5407 25.79 31.4816 25.7875 31.4226 25.7845C31.3445 25.7064 31.3585 25.6633 31.3585 25.5539C31.3583 25.5166 31.3582 25.4793 31.358 25.4409C31.3581 25.3991 31.3583 25.3574 31.3584 25.3156C31.3583 25.2715 31.3582 25.2275 31.3581 25.1834C31.3579 25.0619 31.358 24.9403 31.3582 24.8188C31.3583 24.6879 31.3581 24.557 31.3579 24.4261C31.3577 24.1695 31.3578 23.9128 31.3579 23.6562C31.358 23.4477 31.3581 23.2393 31.358 23.0308C31.358 23.0012 31.358 22.9716 31.358 22.941C31.358 22.8809 31.3579 22.8207 31.3579 22.7606C31.3578 22.1958 31.3579 21.631 31.3582 21.0663C31.3585 20.5812 31.3585 20.0962 31.3582 19.6111C31.3579 19.0484 31.3578 18.4858 31.3579 17.9231C31.358 17.8631 31.358 17.8032 31.358 17.7432C31.358 17.7137 31.358 17.6842 31.358 17.6539C31.3581 17.4455 31.358 17.2372 31.3579 17.0289C31.3577 16.7751 31.3577 16.5214 31.358 16.2677C31.3582 16.1381 31.3583 16.0085 31.3581 15.879C31.3579 15.7605 31.358 15.6421 31.3583 15.5236C31.3584 15.4806 31.3583 15.4376 31.3582 15.3946C31.358 15.3364 31.3582 15.2783 31.3585 15.2201C31.3585 15.1877 31.3585 15.1553 31.3585 15.122C31.3706 14.9939 31.4091 14.9902 31.5341 14.9839Z" fill="#1A1F71"/>
<path d="M29.6601 14.9803C29.6825 14.9804 29.7048 14.9805 29.7279 14.9806C29.7502 14.9802 29.7726 14.9797 29.7956 14.9792C29.8605 14.9792 29.8605 14.9792 29.97 14.9895C30.0371 15.0902 30.034 15.1314 30.034 15.2507C30.0342 15.2877 30.0343 15.3248 30.0344 15.3629C30.0343 15.4043 30.0341 15.4456 30.034 15.4869C30.034 15.5306 30.0341 15.5744 30.0342 15.6181C30.0344 15.7385 30.0342 15.859 30.034 15.9794C30.0338 16.1092 30.0339 16.239 30.034 16.3687C30.0342 16.6231 30.034 16.8775 30.0337 17.1318C30.0334 17.4278 30.0334 17.7238 30.0335 18.0198C30.0335 18.5477 30.0332 19.0757 30.0328 19.6037C30.0324 20.1164 30.0322 20.6292 30.0322 21.1419C30.0322 21.1893 30.0322 21.1893 30.0322 21.2376C30.0322 21.2849 30.0322 21.2849 30.0322 21.3331C30.0322 21.9162 30.0321 22.4993 30.0318 23.0824C30.0317 23.2889 30.0317 23.4954 30.0317 23.7019C30.0317 23.9534 30.0315 24.205 30.0313 24.4565C30.0311 24.5849 30.0311 24.7133 30.0311 24.8417C30.0311 24.9592 30.031 25.0766 30.0308 25.194C30.0308 25.2366 30.0308 25.2792 30.0308 25.3218C30.0309 25.3795 30.0307 25.4372 30.0306 25.4949C30.0306 25.527 30.0306 25.5591 30.0305 25.5922C30.0269 25.6706 30.0269 25.6706 29.9985 25.7561C29.9085 25.8011 29.8123 25.7898 29.7136 25.7899C29.6926 25.7902 29.6716 25.7906 29.65 25.7909C29.5952 25.7911 29.5404 25.788 29.4858 25.7845C29.4076 25.7064 29.4217 25.6633 29.4216 25.5539C29.4215 25.5166 29.4213 25.4793 29.4212 25.4409C29.4213 25.3992 29.4214 25.3574 29.4216 25.3156C29.4215 25.2715 29.4214 25.2275 29.4213 25.1834C29.4211 25.0619 29.4212 24.9403 29.4213 24.8188C29.4215 24.6879 29.4213 24.557 29.4211 24.4261C29.4209 24.1695 29.4209 23.9128 29.4211 23.6562C29.4212 23.4478 29.4212 23.2393 29.4212 23.0308C29.4212 23.0012 29.4212 22.9716 29.4211 22.941C29.4211 22.8809 29.4211 22.8207 29.4211 22.7606C29.4209 22.1958 29.4211 21.6311 29.4214 21.0663C29.4217 20.5812 29.4216 20.0962 29.4214 19.6111C29.4211 19.0484 29.4209 18.4858 29.4211 17.9231C29.4211 17.8631 29.4212 17.8032 29.4212 17.7432C29.4212 17.7137 29.4212 17.6842 29.4212 17.6539C29.4212 17.4455 29.4212 17.2372 29.421 17.0289C29.4209 16.7751 29.4209 16.5214 29.4212 16.2677C29.4214 16.1381 29.4214 16.0085 29.4212 15.879C29.4211 15.7605 29.4212 15.6421 29.4215 15.5236C29.4215 15.4806 29.4215 15.4376 29.4214 15.3946C29.4212 15.3364 29.4214 15.2783 29.4216 15.2201C29.4216 15.1877 29.4216 15.1554 29.4217 15.122C29.4361 14.9689 29.527 14.9816 29.6601 14.9803Z" fill="#1A1F71"/>
<path d="M20.0614 14.9803C20.0837 14.9804 20.1061 14.9805 20.1291 14.9806C20.1515 14.9802 20.1738 14.9797 20.1969 14.9792C20.2617 14.9792 20.2617 14.9792 20.3712 14.9895C20.4384 15.0903 20.4353 15.1317 20.4354 15.2512C20.4355 15.2883 20.4357 15.3254 20.4358 15.3637C20.4357 15.4051 20.4356 15.4466 20.4354 15.488C20.4355 15.5318 20.4356 15.5757 20.4357 15.6195C20.4359 15.7403 20.4358 15.8611 20.4356 15.9818C20.4355 16.112 20.4357 16.2421 20.4359 16.3722C20.4361 16.6272 20.4361 16.8823 20.4359 17.1373C20.4358 17.3445 20.4357 17.5517 20.4358 17.759C20.4358 17.7884 20.4358 17.8179 20.4358 17.8482C20.4359 17.908 20.4359 17.9678 20.4359 18.0277C20.4361 18.5891 20.4359 19.1505 20.4356 19.7119C20.4353 20.194 20.4354 20.6761 20.4356 21.1582C20.4359 21.7176 20.436 22.2769 20.4359 22.8363C20.4358 22.8959 20.4358 22.9555 20.4358 23.0151C20.4358 23.0444 20.4358 23.0738 20.4358 23.104C20.4357 23.311 20.4358 23.5181 20.436 23.7251C20.4361 23.9773 20.4361 24.2295 20.4358 24.4817C20.4356 24.6105 20.4356 24.7392 20.4357 24.868C20.4359 24.9858 20.4358 25.1035 20.4355 25.2212C20.4355 25.264 20.4355 25.3067 20.4356 25.3494C20.4358 25.4072 20.4356 25.4651 20.4354 25.5229C20.4353 25.5551 20.4353 25.5873 20.4353 25.6205C20.4282 25.6991 20.4282 25.6991 20.3712 25.7845C20.2932 25.7932 20.223 25.7965 20.1451 25.7952C20.1244 25.7955 20.1036 25.7959 20.0822 25.7962C19.9318 25.7954 19.9318 25.7954 19.8668 25.7521C19.8133 25.675 19.8194 25.6158 19.8194 25.5224C19.8192 25.4851 19.819 25.4479 19.8188 25.4095C19.819 25.3679 19.8192 25.3264 19.8194 25.2848C19.8193 25.2408 19.8192 25.1968 19.819 25.1529C19.8187 25.0317 19.819 24.9106 19.8193 24.7894C19.8195 24.6589 19.8193 24.5283 19.8191 24.3978C19.8189 24.142 19.819 23.8861 19.8194 23.6303C19.8198 23.3326 19.8197 23.035 19.8197 22.7373C19.8196 22.2064 19.8199 21.6754 19.8205 21.1445C19.821 20.6288 19.8212 20.1131 19.8211 19.5974C19.8209 19.0363 19.8209 18.4753 19.8212 17.9143C19.8212 17.8545 19.8213 17.7947 19.8213 17.735C19.8213 17.7055 19.8214 17.6761 19.8214 17.6458C19.8215 17.4381 19.8215 17.2304 19.8214 17.0227C19.8214 16.7698 19.8215 16.5168 19.8219 16.2639C19.8221 16.1347 19.8222 16.0055 19.8221 15.8764C19.822 15.7583 19.8221 15.6402 19.8225 15.5221C19.8226 15.4793 19.8226 15.4364 19.8224 15.3935C19.8223 15.3355 19.8225 15.2776 19.8228 15.2196C19.8228 15.1873 19.8228 15.155 19.8229 15.1218C19.8374 14.9689 19.9285 14.9816 20.0614 14.9803Z" fill="#1A1F71"/>
<path d="M7.46846 14.9895C7.55155 14.9816 7.62765 14.9789 7.71057 14.9806C7.74411 14.9804 7.74411 14.9804 7.77833 14.9803C7.94507 14.9819 7.94507 14.9819 8.00964 15.0465C8.01678 15.1219 8.01678 15.1219 8.01681 15.2201C8.01696 15.2574 8.01711 15.2947 8.01726 15.3331C8.01714 15.3749 8.01701 15.4166 8.01687 15.4584C8.01694 15.5025 8.01703 15.5465 8.01714 15.5906C8.01738 15.7122 8.01726 15.8337 8.01709 15.9552C8.01696 16.0861 8.01716 16.217 8.01731 16.3479C8.01757 16.6046 8.01751 16.8612 8.01735 17.1178C8.01722 17.3263 8.0172 17.5347 8.01726 17.7432C8.01727 17.7728 8.01728 17.8025 8.01729 17.833C8.01731 17.8931 8.01733 17.9533 8.01734 18.0135C8.01751 18.5782 8.01732 19.143 8.01701 19.7077C8.01676 20.1928 8.0168 20.6779 8.01707 21.1629C8.01737 21.7256 8.01749 22.2883 8.01732 22.8509C8.0173 22.9109 8.01728 22.9708 8.01726 23.0308C8.01725 23.0603 8.01724 23.0898 8.01724 23.1202C8.01719 23.3285 8.01727 23.5368 8.0174 23.7452C8.01756 23.9989 8.01752 24.2526 8.01722 24.5064C8.01707 24.6359 8.01701 24.7655 8.0172 24.8951C8.01737 25.0135 8.01727 25.132 8.01697 25.2504C8.01691 25.2934 8.01694 25.3364 8.01708 25.3794C8.01725 25.4376 8.01704 25.4957 8.01681 25.5539C8.0168 25.5863 8.01679 25.6187 8.01678 25.652C8.00964 25.7275 8.00964 25.7275 7.95267 25.7845C7.87559 25.7894 7.8018 25.7911 7.72481 25.7898C7.70381 25.7898 7.68281 25.7898 7.66117 25.7898C7.50495 25.7885 7.50495 25.7885 7.43998 25.756C7.40874 25.6623 7.4079 25.5935 7.40783 25.4948C7.40774 25.4578 7.40765 25.4208 7.40756 25.3826C7.4076 25.3413 7.40764 25.3 7.40769 25.2586C7.40764 25.2149 7.40757 25.1712 7.40749 25.1275C7.40732 25.007 7.40732 24.8866 7.40736 24.7661C7.40736 24.6363 7.40721 24.5066 7.40707 24.3768C7.40683 24.1224 7.40676 23.8681 7.40674 23.6137C7.40673 23.4071 7.40667 23.2004 7.40658 22.9938C7.40633 22.4084 7.4062 21.823 7.40622 21.2376C7.40622 21.206 7.40622 21.1744 7.40622 21.1419C7.40622 21.1103 7.40622 21.0786 7.40622 21.0461C7.40624 20.5334 7.40596 20.0207 7.40556 19.5079C7.40515 18.982 7.40496 18.456 7.40498 17.9301C7.40499 17.6346 7.40491 17.3391 7.40461 17.0436C7.40435 16.7921 7.40428 16.5406 7.40448 16.2891C7.40457 16.1607 7.40457 16.0322 7.40432 15.9038C7.4041 15.7864 7.40414 15.669 7.40439 15.5515C7.40443 15.5089 7.40438 15.4663 7.40422 15.4237C7.40402 15.366 7.40421 15.3084 7.40441 15.2507C7.4044 15.2186 7.4044 15.1865 7.40439 15.1534C7.4115 15.0749 7.4115 15.0749 7.46846 14.9895Z" fill="#1A1F71"/>
<path d="M20.8554 14.9895C20.935 14.988 21.0144 14.9869 21.094 14.986C21.1166 14.9855 21.1392 14.985 21.1625 14.9845C21.2216 14.984 21.2806 14.9866 21.3396 14.9895C21.4178 15.0677 21.4037 15.1107 21.4038 15.2202C21.4039 15.2574 21.4041 15.2947 21.4042 15.3331C21.4041 15.3749 21.404 15.4167 21.4038 15.4585C21.4039 15.5025 21.404 15.5466 21.4041 15.5907C21.4043 15.7122 21.4042 15.8337 21.4041 15.9553C21.4039 16.0862 21.4041 16.2171 21.4043 16.348C21.4045 16.6046 21.4045 16.8612 21.4043 17.1178C21.4042 17.3263 21.4042 17.5348 21.4042 17.7433C21.4042 17.7729 21.4042 17.8025 21.4043 17.833C21.4043 17.8932 21.4043 17.9534 21.4043 18.0135C21.4045 18.5783 21.4043 19.143 21.404 19.7078C21.4037 20.1928 21.4038 20.6779 21.404 21.163C21.4043 21.7256 21.4045 22.2883 21.4043 22.851C21.4043 22.9109 21.4042 22.9709 21.4042 23.0308C21.4042 23.0603 21.4042 23.0898 21.4042 23.1202C21.4042 23.3285 21.4042 23.5369 21.4044 23.7452C21.4045 23.9989 21.4045 24.2527 21.4042 24.5064C21.404 24.636 21.404 24.7655 21.4042 24.8951C21.4043 25.0136 21.4042 25.132 21.4039 25.2505C21.4039 25.2935 21.4039 25.3365 21.404 25.3795C21.4042 25.4376 21.404 25.4958 21.4038 25.5539C21.4038 25.5863 21.4038 25.6187 21.4037 25.6521C21.3966 25.7276 21.3966 25.7276 21.3396 25.7846C21.2573 25.7894 21.178 25.7912 21.0958 25.7899C21.0732 25.7899 21.0506 25.7899 21.0273 25.7898C20.8594 25.7886 20.8594 25.7886 20.8269 25.7561C20.8238 25.6987 20.8228 25.6412 20.8224 25.5837C20.8223 25.5655 20.8222 25.5472 20.822 25.5283C20.8216 25.4663 20.8213 25.4043 20.8211 25.3423C20.8208 25.2977 20.8205 25.2531 20.8202 25.2085C20.8195 25.0854 20.8189 24.9623 20.8183 24.8392C20.8178 24.7338 20.8172 24.6285 20.8166 24.5231C20.8148 24.2065 20.8132 23.8899 20.8118 23.5732C20.8109 23.3927 20.81 23.2121 20.8092 23.0316C20.8004 21.245 20.7948 19.4584 20.7934 17.6718C20.7932 17.4669 20.7929 17.2621 20.7925 17.0573C20.7921 16.8079 20.7919 16.5585 20.7919 16.3091C20.7919 16.1819 20.7919 16.0547 20.7916 15.9275C20.7913 15.8112 20.7913 15.695 20.7915 15.5787C20.7915 15.5366 20.7915 15.4944 20.7913 15.4523C20.7911 15.3952 20.7912 15.3381 20.7914 15.281C20.7914 15.2492 20.7914 15.2175 20.7914 15.1847C20.7984 15.1046 20.8139 15.0575 20.8554 14.9895Z" fill="#1A1F71"/>
<path d="M22.7923 14.9895C22.8754 14.9816 22.9515 14.9789 23.0344 14.9806C23.0679 14.9804 23.0679 14.9804 23.1021 14.9803C23.2689 14.9819 23.2689 14.9819 23.3334 15.0465C23.3406 15.1219 23.3406 15.1219 23.3406 15.2201C23.3408 15.2574 23.3409 15.2947 23.3411 15.3331C23.3409 15.3749 23.3408 15.4166 23.3407 15.4584C23.3407 15.5025 23.3408 15.5465 23.3409 15.5906C23.3412 15.7122 23.3411 15.8337 23.3409 15.9552C23.3408 16.0861 23.341 16.217 23.3411 16.3479C23.3414 16.6046 23.3413 16.8612 23.3412 17.1178C23.341 17.3263 23.341 17.5347 23.3411 17.7432C23.3411 17.7728 23.3411 17.8025 23.3411 17.833C23.3411 17.8931 23.3411 17.9533 23.3411 18.0135C23.3413 18.5782 23.3411 19.143 23.3408 19.7077C23.3406 20.1928 23.3406 20.6779 23.3409 21.1629C23.3412 21.7256 23.3413 22.2883 23.3411 22.8509C23.3411 22.9109 23.3411 22.9708 23.3411 23.0308C23.3411 23.0603 23.3411 23.0898 23.341 23.1202C23.341 23.3285 23.3411 23.5368 23.3412 23.7452C23.3414 23.9989 23.3413 24.2526 23.341 24.5064C23.3409 24.6359 23.3408 24.7655 23.341 24.8951C23.3412 25.0135 23.3411 25.132 23.3408 25.2504C23.3407 25.2934 23.3407 25.3364 23.3409 25.3794C23.3411 25.4376 23.3408 25.4957 23.3406 25.5539C23.3406 25.5863 23.3406 25.6187 23.3406 25.652C23.3334 25.7275 23.3334 25.7275 23.2765 25.7845C23.1993 25.7902 23.1257 25.7924 23.0486 25.7916C23.0276 25.7918 23.0066 25.7921 22.985 25.7923C22.828 25.7917 22.828 25.7917 22.7638 25.7275C22.7563 25.6517 22.7563 25.6517 22.7559 25.5531C22.7555 25.5156 22.7552 25.4781 22.7549 25.4395C22.7548 25.3975 22.7548 25.3556 22.7547 25.3136C22.7544 25.2693 22.7542 25.225 22.7538 25.1808C22.7531 25.0587 22.7526 24.9366 22.7523 24.8145C22.7518 24.683 22.751 24.5516 22.7503 24.4201C22.7489 24.1625 22.7479 23.9049 22.747 23.6474C22.7462 23.4381 22.7454 23.2289 22.7444 23.0197C22.7407 22.1697 22.7378 21.3197 22.7356 20.4697C22.7353 20.3728 22.735 20.276 22.7348 20.1791C22.7325 19.3392 22.731 18.4992 22.7302 17.6593C22.73 17.453 22.7297 17.2467 22.7294 17.0404C22.7289 16.7892 22.7287 16.5379 22.7288 16.2867C22.7288 16.1585 22.7287 16.0303 22.7284 15.9021C22.7281 15.7849 22.7281 15.6677 22.7283 15.5505C22.7284 15.508 22.7283 15.4655 22.7281 15.4229C22.7279 15.3654 22.7281 15.3078 22.7283 15.2503C22.7282 15.2183 22.7282 15.1862 22.7282 15.1532C22.7353 15.0749 22.7353 15.0749 22.7923 14.9895Z" fill="#1A1F71"/>
</svg>
