<svg width="76" height="18" viewBox="0 0 76 18" fill="none" xmlns="http://www.w3.org/2000/svg">
<path fill-rule="evenodd" clip-rule="evenodd" d="M2 6.70243V10.4046L7.25654 10.412L12.5131 10.4194V11.312V12.2046L7.25654 12.212L2 12.2194V13.6095V14.9996H8.98855H15.9771V11.2974V7.59515H10.713H5.44889V6.70251V5.80988H10.713H15.9771V4.40509V3.00029H8.98855H2V6.70243ZM20.8782 4.40503V5.80988H23.5102H26.1423V10.4047V14.9996H27.8667H29.5911V10.4047V5.80988H32.2235H34.8558L34.848 4.41241L34.8401 3.01493L27.8591 3.00755L20.8782 3.00018V4.40503ZM39.7563 8.99988V14.9996H46.7449H53.7335L53.7259 9.00726L53.7183 3.01493L46.7373 3.00755L39.7563 3.00018V8.99988ZM62.7595 3.1099C62.7103 3.22538 62.1332 4.46427 61.8495 5.06359C61.7581 5.25675 61.6114 5.57283 61.5236 5.76598C61.4358 5.95914 61.2251 6.41351 61.0555 6.77568C60.8859 7.13786 60.634 7.67782 60.4956 7.97561C60.1453 8.72952 59.7514 9.57649 59.4065 10.3169C59.103 10.9686 58.8143 11.5892 58.3241 12.6436C58.1669 12.9817 57.8593 13.6424 57.6406 14.1118C57.4218 14.5813 57.2428 14.9731 57.2428 14.9825C57.2428 14.9919 58.1856 14.9995 59.3378 14.9993L61.4329 14.999L61.6508 14.4945C61.9705 13.7539 62.299 13.0012 62.4297 12.7093L62.5444 12.4531L65.6158 12.4606L68.6871 12.468L68.9554 13.0826C69.1029 13.4207 69.2736 13.8092 69.3346 13.946C69.3957 14.0828 69.5219 14.3726 69.6149 14.5899L69.7841 14.985L71.8921 14.9925L74 15L73.8022 14.5827C73.6934 14.3533 73.5323 14.0075 73.4442 13.8143C73.3561 13.6211 73.2332 13.3577 73.1712 13.229C73.1092 13.1002 72.9797 12.8236 72.8834 12.6144C72.7871 12.4051 72.5764 11.9507 72.415 11.6047C72.1128 10.9564 71.7757 10.2311 71.4084 9.43894C71.2927 9.18944 71.1261 8.83385 71.0382 8.64874C70.9503 8.46363 70.8 8.14097 70.7042 7.93171C70.6083 7.72246 70.3912 7.25492 70.2216 6.89275C69.9284 6.26638 69.6642 5.69888 69.1317 4.55142C69.001 4.26973 68.7868 3.80878 68.6557 3.52709L68.4174 3.01493L65.6119 3.00746L62.8065 3L62.7595 3.1099ZM65.7442 5.71483C65.7973 5.83953 65.9737 6.24449 66.1362 6.61472C66.2986 6.98494 66.5642 7.59076 66.7263 7.96098C66.8883 8.3312 67.1093 8.83166 67.2174 9.07311C67.3255 9.31456 67.421 9.54172 67.4296 9.57796L67.4453 9.64381H65.6114C64.5916 9.64381 63.7775 9.63251 63.7775 9.61834C63.7775 9.59604 64.0013 9.08022 64.4647 8.03414C64.6184 7.68716 64.9673 6.88646 65.2874 6.14645C65.575 5.48154 65.589 5.45301 65.6205 5.47183C65.6354 5.48075 65.6911 5.59009 65.7442 5.71483ZM50.2771 9.00726L50.2694 12.2046H46.7448H43.2203L43.2126 9.00726L43.2049 5.80988H46.7448H50.2848L50.2771 9.00726Z" fill="#1A1F71"/>
</svg>
