<svg width="20" height="20" viewBox="0 0 20 20" fill="none" xmlns="http://www.w3.org/2000/svg">
<path fill-rule="evenodd" clip-rule="evenodd" d="M10 19C14.9706 19 19 14.9706 19 10C19 5.02944 14.9706 1 10 1C5.02944 1 1 5.02944 1 10C1 14.9706 5.02944 19 10 19ZM15.2366 6.23794H5.22074C5.22074 5.55425 5.79723 5 6.50836 5H13.949C14.6601 5 15.2366 5.55425 15.2366 6.23794ZM9.29515 6.83039V9.44775H5.97492C5.43648 9.44775 5 9.86739 5 10.385H9.29515V11.34H7.14298C6.59947 11.34 6.15886 11.7636 6.15886 12.2862H9.29515V16H10.9139V6.83039H9.29515ZM15.0251 9.45659H11.7048V10.3939H16C16 9.87624 15.5635 9.45659 15.0251 9.45659ZM11.7048 11.3489H13.857C14.4005 11.3489 14.8411 11.7725 14.8411 12.295H11.7048V11.3489Z" fill="black"/>
</svg>
