<svg width="22" height="22" viewBox="0 0 22 22" fill="none" xmlns="http://www.w3.org/2000/svg">
<path fill-rule="evenodd" clip-rule="evenodd" d="M21.3653 11.1201C21.3653 16.7783 16.7783 21.3653 11.1201 21.3653C5.46191 21.3653 0.875 16.7783 0.875 11.1201C0.875 5.46191 5.46191 0.875 11.1201 0.875C16.7783 0.875 21.3653 5.46191 21.3653 11.1201ZM12.1019 7.97645C10.3418 8.7367 5.26692 10.8957 5.26692 10.8957C4.0642 11.3823 4.76819 11.8384 4.76819 11.8384C4.76819 11.8384 5.79491 12.2034 6.67498 12.477C7.55501 12.7507 8.02438 12.4466 8.02438 12.4466C8.02438 12.4466 10.0778 11.0478 12.1606 9.55772C13.6273 8.52382 13.2753 9.37527 12.9233 9.74021C12.1606 10.5308 10.8992 11.7776 9.84311 12.7811C9.37378 13.2069 9.60845 13.5718 9.8138 13.7542C10.411 14.2781 11.8176 15.2308 12.4562 15.6633C12.6332 15.7832 12.7512 15.8631 12.7766 15.8829C12.9233 16.0045 13.7447 16.5519 14.2433 16.4302C14.742 16.3086 14.8007 15.6092 14.8007 15.6092C14.8007 15.6092 15.182 13.1156 15.5341 10.8349C15.5993 10.3871 15.6645 9.94873 15.7253 9.53993C15.8833 8.4774 16.0116 7.6149 16.0328 7.30744C16.1208 6.27354 15.0647 6.69925 15.0647 6.69925C15.0647 6.69925 12.7766 7.67237 12.1019 7.97645Z" fill="white"/>
</svg>
