<svg width="16" height="18" viewBox="0 0 16 18" fill="none" xmlns="http://www.w3.org/2000/svg">
<path fill-rule="evenodd" clip-rule="evenodd" d="M11.764 6.58293C12.914 7.40045 14.2911 7.83723 15.7021 7.83193V5.03565C15.4247 5.03642 15.1481 5.00673 14.8772 4.94711V7.17481C13.4631 7.17731 12.0839 6.73552 10.9344 5.91182V11.6628C10.931 12.6065 10.6722 13.5317 10.1855 14.3402C9.69883 15.1487 9.00243 15.8105 8.17015 16.2553C7.33786 16.7001 6.40071 16.9114 5.45807 16.8668C4.51543 16.8221 3.60244 16.5232 2.81592 16.0017C3.54343 16.7378 4.47302 17.2415 5.48697 17.4489C6.50091 17.6563 7.55361 17.5582 8.51175 17.167C9.4699 16.7757 10.2904 16.109 10.8693 15.2511C11.4483 14.3932 11.7597 13.3829 11.764 12.3479V6.58293ZM12.7846 3.73072C12.1998 3.09686 11.841 2.28744 11.764 1.42846V1.06494H10.981C11.0778 1.61095 11.2884 2.13048 11.5992 2.58976C11.9099 3.04904 12.3138 3.43778 12.7846 3.73072ZM4.62884 13.788C4.35747 13.4331 4.19116 13.0092 4.14885 12.5645C4.10655 12.1198 4.18993 11.6721 4.38952 11.2724C4.58912 10.8728 4.89689 10.5372 5.27783 10.3038C5.65877 10.0704 6.09757 9.9487 6.54429 9.95244C6.79092 9.95237 7.03611 9.99009 7.27132 10.0643V7.17481C6.99637 7.13839 6.71906 7.12281 6.44176 7.1282V9.37454C5.86904 9.19351 5.24917 9.23467 4.70542 9.48986C4.16168 9.74504 3.73391 10.1955 3.50719 10.7518C3.28047 11.308 3.27143 11.9292 3.48185 12.4917C3.69227 13.0543 4.10674 13.5171 4.64282 13.788H4.62884Z" fill="white"/>
<path fill-rule="evenodd" clip-rule="evenodd" d="M10.934 5.89318C12.0835 6.71688 13.4627 7.15867 14.8768 7.15616V4.92846C14.0711 4.75811 13.3392 4.33918 12.7842 3.73072C12.3134 3.43778 11.9095 3.04904 11.5988 2.58976C11.288 2.13048 11.0774 1.61095 10.9806 1.06494H8.92072V12.3479C8.9188 12.8473 8.76053 13.3336 8.46813 13.7385C8.17573 14.1434 7.76388 14.4465 7.29039 14.6054C6.8169 14.7642 6.30556 14.7708 5.82813 14.6242C5.35071 14.4776 4.93118 14.1852 4.62844 13.788C4.14866 13.5459 3.76443 13.1493 3.53774 12.662C3.31105 12.1748 3.25513 11.6254 3.37899 11.1024C3.50286 10.5795 3.79929 10.1136 4.22045 9.77979C4.64161 9.446 5.16295 9.26384 5.70034 9.26269C5.94691 9.26348 6.19197 9.30118 6.42737 9.37454V7.1282C5.41027 7.15262 4.42243 7.47348 3.58511 8.0514C2.74779 8.62932 2.09743 9.43914 1.71387 10.3815C1.33031 11.3238 1.23023 12.3576 1.42593 13.356C1.62163 14.3544 2.10459 15.2739 2.81552 16.0017C3.6022 16.5269 4.51663 16.8289 5.46138 16.8755C6.40614 16.9221 7.34585 16.7116 8.1804 16.2663C9.01496 15.8211 9.71311 15.1578 10.2005 14.3471C10.6879 13.5364 10.9462 12.6087 10.948 11.6628L10.934 5.89318Z" fill="white"/>
<path fill-rule="evenodd" clip-rule="evenodd" d="M14.8768 4.92846L14.877 4.32707C14.1371 4.33022 13.4117 4.12355 12.7846 3.73072C13.3382 4.34093 14.0703 4.76021 14.8768 4.92846ZM10.981 1.06494C10.981 0.957751 10.9483 0.845707 10.9343 0.738516V0.375H8.09142V11.6626C8.08895 12.2947 7.83582 12.8999 7.38759 13.3455C6.93936 13.7911 6.33264 14.0407 5.7006 14.0395C5.32845 14.0413 4.96128 13.9553 4.62884 13.788C4.93158 14.1852 5.35071 14.4776 5.82813 14.6242C6.30556 14.7708 6.8169 14.7642 7.29039 14.6054C7.76388 14.4465 8.17573 14.1434 8.46813 13.7385C8.76053 13.3336 8.9188 12.8473 8.92072 12.3479V1.06494H10.981ZM6.42763 7.12335V6.48486C5.25781 6.32595 4.06864 6.56793 3.05395 7.17138C2.03925 7.77483 1.25886 8.70415 0.839953 9.80791C0.421047 10.9117 0.388326 12.1248 0.747126 13.2495C1.10592 14.3742 1.83523 15.3445 2.81592 16.0017C2.11037 15.2722 1.63242 14.3529 1.44071 13.3563C1.24901 12.3597 1.35171 11.3289 1.73628 10.3897C2.12084 9.45055 2.77061 8.64372 3.60622 8.0678C4.44182 7.49187 5.42708 7.17179 6.44162 7.14665L6.42763 7.12335Z" fill="white" fill-opacity="0.5"/>
</svg>
