<svg width="18" height="16" viewBox="0 0 18 16" fill="none" xmlns="http://www.w3.org/2000/svg">
<path d="M17.8233 2.61053C17.2564 2.85452 16.6604 3.02442 16.05 3.11603C16.3354 3.06711 16.7553 2.55346 16.9224 2.34555C17.1763 2.03195 17.3699 1.67394 17.4931 1.28971C17.4931 1.26118 17.5217 1.22041 17.4931 1.20003C17.4788 1.19218 17.4626 1.18807 17.4463 1.18807C17.4299 1.18807 17.4138 1.19218 17.3994 1.20003C16.7366 1.55894 16.0312 1.83288 15.2999 2.01535C15.2744 2.02314 15.2473 2.02383 15.2215 2.01737C15.1956 2.01091 15.172 1.99752 15.1532 1.97866C15.0962 1.91088 15.035 1.84688 14.9697 1.78706C14.6714 1.51982 14.333 1.30109 13.9669 1.13888C13.4726 0.9361 12.9387 0.84828 12.4055 0.882053C11.8882 0.914726 11.3831 1.05349 10.9217 1.28971C10.4673 1.53876 10.0679 1.8771 9.74759 2.28441C9.41066 2.70362 9.1674 3.19014 9.03419 3.71122C8.92434 4.20687 8.91188 4.71915 8.9975 5.21956C8.9975 5.30517 8.9975 5.3174 8.92412 5.30517C6.0175 4.87713 3.63269 3.84575 1.68407 1.63215C1.59846 1.53431 1.55362 1.53431 1.48432 1.63215C0.636381 2.92036 1.04812 4.95866 2.10804 5.96558C2.25072 6.10011 2.39747 6.23056 2.55239 6.35286C2.06642 6.31836 1.59232 6.18666 1.15819 5.96558C1.07665 5.91258 1.03181 5.94112 1.02774 6.03896C1.01618 6.1746 1.01618 6.31098 1.02774 6.44662C1.1128 7.09667 1.36898 7.71247 1.77009 8.23105C2.17119 8.74962 2.70283 9.15236 3.31063 9.39808C3.4588 9.46155 3.61319 9.50937 3.77129 9.54076C3.32141 9.62933 2.85999 9.64311 2.40563 9.58153C2.30779 9.56115 2.2711 9.61414 2.30779 9.7079C2.90705 11.3385 4.20749 11.8359 5.16141 12.1131C5.29186 12.1335 5.42232 12.1335 5.56907 12.1661C5.56907 12.1661 5.56907 12.1661 5.54461 12.1906C5.26333 12.7042 4.12595 13.0507 3.60415 13.2301C2.65172 13.5722 1.63625 13.703 0.628228 13.6133C0.46924 13.5888 0.432551 13.5929 0.391785 13.6133C0.351019 13.6337 0.391785 13.6785 0.436628 13.7193C0.640458 13.8538 0.844288 13.972 1.05627 14.0862C1.68735 14.4304 2.35452 14.7038 3.04565 14.9015C6.62491 15.888 10.6526 15.1624 13.3391 12.4922C15.4508 10.3969 16.1927 7.50654 16.1927 4.61215C16.1927 4.50208 16.3272 4.43685 16.4047 4.37978C16.9389 3.96352 17.4099 3.47192 17.803 2.92036C17.871 2.83814 17.9059 2.73346 17.9008 2.62684C17.9008 2.56569 17.9008 2.57792 17.8233 2.61053Z" fill="white"/>
</svg>
