<svg width="22" height="16" viewBox="0 0 22 16" fill="none" xmlns="http://www.w3.org/2000/svg">
<path fill-rule="evenodd" clip-rule="evenodd" d="M19.1639 0.946591C20.0854 1.19545 20.8097 1.92159 21.0546 2.84204C21.5 4.5125 21.5 8 21.5 8C21.5 8 21.5 11.4875 21.0546 13.158C20.8063 14.0818 20.082 14.808 19.1639 15.0534C17.4977 15.5 10.8125 15.5 10.8125 15.5C10.8125 15.5 4.13069 15.5 2.46108 15.0534C1.53957 14.8045 0.815284 14.0784 0.570454 13.158C0.125 11.4875 0.125 8 0.125 8C0.125 8 0.125 4.5125 0.570454 2.84204C0.818684 1.91818 1.54297 1.19205 2.46108 0.946591C4.13069 0.5 10.8125 0.5 10.8125 0.5C10.8125 0.5 17.4977 0.5 19.1639 0.946591ZM14.2299 8L8.67704 11.2148V4.78523L14.2299 8Z" fill="white"/>
</svg>
