<svg width="84" height="20" viewBox="0 0 84 20" fill="none" xmlns="http://www.w3.org/2000/svg">
<path d="M8.288 12.928C8.36267 12.928 8.43033 12.9583 8.491 13.019L9.023 13.6C8.61233 14.076 8.113 14.447 7.525 14.713C6.94167 14.979 6.237 15.112 5.411 15.112C4.68767 15.112 4.032 14.9883 3.444 14.741C2.856 14.489 2.35433 14.139 1.939 13.691C1.52367 13.2383 1.20167 12.697 0.973 12.067C0.744333 11.437 0.63 10.744 0.63 9.988C0.63 9.232 0.751333 8.539 0.994 7.909C1.24133 7.279 1.58667 6.73767 2.03 6.285C2.47333 5.83233 3.003 5.48233 3.619 5.235C4.23967 4.983 4.92333 4.857 5.67 4.857C6.40733 4.857 7.042 4.97133 7.574 5.2C8.11067 5.42867 8.58667 5.739 9.002 6.131L8.561 6.754C8.52833 6.80067 8.491 6.84033 8.449 6.873C8.407 6.901 8.34633 6.915 8.267 6.915C8.20633 6.915 8.141 6.894 8.071 6.852C8.00567 6.80533 7.92633 6.74933 7.833 6.684C7.73967 6.61867 7.63 6.54867 7.504 6.474C7.378 6.39933 7.22867 6.32933 7.056 6.264C6.88333 6.19867 6.68267 6.145 6.454 6.103C6.22533 6.05633 5.96167 6.033 5.663 6.033C5.12633 6.033 4.634 6.12633 4.186 6.313C3.74267 6.495 3.36 6.75633 3.038 7.097C2.716 7.43767 2.464 7.853 2.282 8.343C2.10467 8.833 2.016 9.38133 2.016 9.988C2.016 10.6133 2.10467 11.171 2.282 11.661C2.464 12.151 2.709 12.5663 3.017 12.907C3.32967 13.243 3.69833 13.4997 4.123 13.677C4.54767 13.8543 5.005 13.943 5.495 13.943C5.79367 13.943 6.062 13.9267 6.3 13.894C6.538 13.8567 6.75733 13.8007 6.958 13.726C7.16333 13.6513 7.35233 13.558 7.525 13.446C7.70233 13.3293 7.87967 13.1917 8.057 13.033C8.13633 12.963 8.21333 12.928 8.288 12.928ZM11.992 4.689V15H10.746V4.689H11.992ZM19.396 15H18.843C18.7217 15 18.6237 14.9813 18.549 14.944C18.4743 14.9067 18.4253 14.8273 18.402 14.706L18.262 14.048C18.0753 14.216 17.8933 14.3677 17.716 14.503C17.5387 14.6337 17.352 14.7457 17.156 14.839C16.96 14.9277 16.75 14.9953 16.526 15.042C16.3067 15.0887 16.0617 15.112 15.791 15.112C15.5157 15.112 15.2567 15.0747 15.014 15C14.776 14.9207 14.5683 14.804 14.391 14.65C14.2137 14.496 14.0713 14.3023 13.964 14.069C13.8613 13.831 13.81 13.551 13.81 13.229C13.81 12.949 13.887 12.6807 14.041 12.424C14.195 12.1627 14.4423 11.9317 14.783 11.731C15.1283 11.5303 15.5787 11.367 16.134 11.241C16.6893 11.1103 17.3683 11.0357 18.171 11.017V10.464C18.171 9.91333 18.052 9.498 17.814 9.218C17.5807 8.93333 17.233 8.791 16.771 8.791C16.4677 8.791 16.211 8.83067 16.001 8.91C15.7957 8.98467 15.616 9.071 15.462 9.169C15.3127 9.26233 15.182 9.34867 15.07 9.428C14.9627 9.50267 14.8553 9.54 14.748 9.54C14.664 9.54 14.5893 9.519 14.524 9.477C14.4633 9.43033 14.4143 9.37433 14.377 9.309L14.153 8.91C14.545 8.532 14.9673 8.24967 15.42 8.063C15.8727 7.87633 16.3743 7.783 16.925 7.783C17.3217 7.783 17.674 7.84833 17.982 7.979C18.29 8.10967 18.549 8.29167 18.759 8.525C18.969 8.75833 19.1277 9.04067 19.235 9.372C19.3423 9.70333 19.396 10.0673 19.396 10.464V15ZM16.162 14.237C16.3813 14.237 16.582 14.216 16.764 14.174C16.946 14.1273 17.1163 14.0643 17.275 13.985C17.4383 13.901 17.5923 13.8007 17.737 13.684C17.8863 13.5673 18.031 13.4343 18.171 13.285V11.808C17.597 11.8267 17.1093 11.8733 16.708 11.948C16.3067 12.018 15.98 12.1113 15.728 12.228C15.476 12.3447 15.2917 12.4823 15.175 12.641C15.063 12.7997 15.007 12.977 15.007 13.173C15.007 13.3597 15.0373 13.5207 15.098 13.656C15.1587 13.7913 15.2403 13.9033 15.343 13.992C15.4457 14.076 15.567 14.139 15.707 14.181C15.847 14.2183 15.9987 14.237 16.162 14.237ZM22.6697 7.909V15H21.4237V7.909H22.6697ZM22.9497 5.683C22.9497 5.80433 22.9241 5.91867 22.8727 6.026C22.8261 6.12867 22.7607 6.222 22.6767 6.306C22.5974 6.38533 22.5041 6.44833 22.3967 6.495C22.2894 6.54167 22.1751 6.565 22.0537 6.565C21.9324 6.565 21.8181 6.54167 21.7107 6.495C21.6081 6.44833 21.5147 6.38533 21.4307 6.306C21.3514 6.222 21.2884 6.12867 21.2417 6.026C21.1951 5.91867 21.1717 5.80433 21.1717 5.683C21.1717 5.56167 21.1951 5.44733 21.2417 5.34C21.2884 5.228 21.3514 5.13233 21.4307 5.053C21.5147 4.969 21.6081 4.90367 21.7107 4.857C21.8181 4.81033 21.9324 4.787 22.0537 4.787C22.1751 4.787 22.2894 4.81033 22.3967 4.857C22.5041 4.90367 22.5974 4.969 22.6767 5.053C22.7607 5.13233 22.8261 5.228 22.8727 5.34C22.9241 5.44733 22.9497 5.56167 22.9497 5.683ZM24.8658 15V7.909H25.6078C25.7851 7.909 25.8971 7.99533 25.9438 8.168L26.0348 8.896C26.2961 8.574 26.5878 8.31033 26.9098 8.105C27.2364 7.89967 27.6144 7.797 28.0438 7.797C28.5244 7.797 28.9118 7.93 29.2058 8.196C29.5044 8.462 29.7191 8.82133 29.8498 9.274C29.9478 9.01733 30.0761 8.79567 30.2348 8.609C30.3981 8.42233 30.5801 8.26833 30.7808 8.147C30.9814 8.02567 31.1938 7.937 31.4178 7.881C31.6464 7.825 31.8774 7.797 32.1108 7.797C32.4841 7.797 32.8154 7.85767 33.1048 7.979C33.3988 8.09567 33.6461 8.26833 33.8468 8.497C34.0521 8.72567 34.2084 9.008 34.3158 9.344C34.4231 9.67533 34.4768 10.0557 34.4768 10.485V15H33.2308V10.485C33.2308 9.92967 33.1094 9.50967 32.8668 9.225C32.6241 8.93567 32.2718 8.791 31.8098 8.791C31.6044 8.791 31.4084 8.82833 31.2218 8.903C31.0398 8.973 30.8788 9.078 30.7388 9.218C30.5988 9.358 30.4868 9.53533 30.4028 9.75C30.3234 9.96 30.2838 10.205 30.2838 10.485V15H29.0378V10.485C29.0378 9.91567 28.9234 9.491 28.6948 9.211C28.4661 8.931 28.1324 8.791 27.6938 8.791C27.3858 8.791 27.0988 8.875 26.8328 9.043C26.5714 9.20633 26.3311 9.43033 26.1118 9.715V15H24.8658ZM41.5718 15H41.0188C40.8975 15 40.7995 14.9813 40.7248 14.944C40.6501 14.9067 40.6011 14.8273 40.5778 14.706L40.4378 14.048C40.2511 14.216 40.0691 14.3677 39.8918 14.503C39.7145 14.6337 39.5278 14.7457 39.3318 14.839C39.1358 14.9277 38.9258 14.9953 38.7018 15.042C38.4825 15.0887 38.2375 15.112 37.9668 15.112C37.6915 15.112 37.4325 15.0747 37.1898 15C36.9518 14.9207 36.7441 14.804 36.5668 14.65C36.3895 14.496 36.2471 14.3023 36.1398 14.069C36.0371 13.831 35.9858 13.551 35.9858 13.229C35.9858 12.949 36.0628 12.6807 36.2168 12.424C36.3708 12.1627 36.6181 11.9317 36.9588 11.731C37.3041 11.5303 37.7545 11.367 38.3098 11.241C38.8651 11.1103 39.5441 11.0357 40.3468 11.017V10.464C40.3468 9.91333 40.2278 9.498 39.9898 9.218C39.7565 8.93333 39.4088 8.791 38.9468 8.791C38.6435 8.791 38.3868 8.83067 38.1768 8.91C37.9715 8.98467 37.7918 9.071 37.6378 9.169C37.4885 9.26233 37.3578 9.34867 37.2458 9.428C37.1385 9.50267 37.0311 9.54 36.9238 9.54C36.8398 9.54 36.7651 9.519 36.6998 9.477C36.6391 9.43033 36.5901 9.37433 36.5528 9.309L36.3288 8.91C36.7208 8.532 37.1431 8.24967 37.5958 8.063C38.0485 7.87633 38.5501 7.783 39.1008 7.783C39.4975 7.783 39.8498 7.84833 40.1578 7.979C40.4658 8.10967 40.7248 8.29167 40.9348 8.525C41.1448 8.75833 41.3035 9.04067 41.4108 9.372C41.5181 9.70333 41.5718 10.0673 41.5718 10.464V15ZM38.3378 14.237C38.5571 14.237 38.7578 14.216 38.9398 14.174C39.1218 14.1273 39.2921 14.0643 39.4508 13.985C39.6141 13.901 39.7681 13.8007 39.9128 13.684C40.0621 13.5673 40.2068 13.4343 40.3468 13.285V11.808C39.7728 11.8267 39.2851 11.8733 38.8838 11.948C38.4825 12.018 38.1558 12.1113 37.9038 12.228C37.6518 12.3447 37.4675 12.4823 37.3508 12.641C37.2388 12.7997 37.1828 12.977 37.1828 13.173C37.1828 13.3597 37.2131 13.5207 37.2738 13.656C37.3345 13.7913 37.4161 13.9033 37.5188 13.992C37.6215 14.076 37.7428 14.139 37.8828 14.181C38.0228 14.2183 38.1745 14.237 38.3378 14.237ZM43.5015 15V4.689H44.7545V8.931C45.0485 8.59033 45.3845 8.31733 45.7625 8.112C46.1452 7.902 46.5815 7.797 47.0715 7.797C47.4822 7.797 47.8532 7.874 48.1845 8.028C48.5158 8.182 48.7982 8.413 49.0315 8.721C49.2648 9.02433 49.4445 9.40233 49.5705 9.855C49.6965 10.303 49.7595 10.821 49.7595 11.409C49.7595 11.9317 49.6895 12.4193 49.5495 12.872C49.4095 13.32 49.2065 13.7097 48.9405 14.041C48.6792 14.3677 48.3572 14.6267 47.9745 14.818C47.5965 15.0047 47.1695 15.098 46.6935 15.098C46.2362 15.098 45.8465 15.0093 45.5245 14.832C45.2072 14.6547 44.9295 14.4073 44.6915 14.09L44.6285 14.734C44.5912 14.9113 44.4838 15 44.3065 15H43.5015ZM46.6655 8.791C46.2595 8.791 45.9025 8.88433 45.5945 9.071C45.2912 9.25767 45.0112 9.52133 44.7545 9.862V13.292C44.9785 13.6 45.2258 13.817 45.4965 13.943C45.7718 14.069 46.0775 14.132 46.4135 14.132C47.0762 14.132 47.5848 13.8963 47.9395 13.425C48.2942 12.9537 48.4715 12.2817 48.4715 11.409C48.4715 10.947 48.4295 10.5503 48.3455 10.219C48.2662 9.88767 48.1495 9.617 47.9955 9.407C47.8415 9.19233 47.6525 9.036 47.4285 8.938C47.2045 8.84 46.9502 8.791 46.6655 8.791ZM52.6658 4.689V15H51.4198V4.689H52.6658ZM57.6688 7.797C58.0935 7.797 58.4855 7.86933 58.8448 8.014C59.2042 8.154 59.5145 8.35933 59.7758 8.63C60.0372 8.896 60.2402 9.22733 60.3848 9.624C60.5342 10.016 60.6088 10.464 60.6088 10.968C60.6088 11.164 60.5878 11.2947 60.5458 11.36C60.5038 11.4253 60.4245 11.458 60.3078 11.458H55.5898C55.5992 11.906 55.6598 12.2957 55.7718 12.627C55.8838 12.9583 56.0378 13.236 56.2338 13.46C56.4298 13.6793 56.6632 13.845 56.9338 13.957C57.2045 14.0643 57.5078 14.118 57.8438 14.118C58.1565 14.118 58.4248 14.083 58.6488 14.013C58.8775 13.9383 59.0735 13.859 59.2368 13.775C59.4002 13.691 59.5355 13.614 59.6428 13.544C59.7548 13.4693 59.8505 13.432 59.9298 13.432C60.0325 13.432 60.1118 13.4717 60.1678 13.551L60.5178 14.006C60.3638 14.1927 60.1795 14.356 59.9648 14.496C59.7502 14.6313 59.5192 14.7433 59.2718 14.832C59.0292 14.9207 58.7772 14.986 58.5158 15.028C58.2545 15.0747 57.9955 15.098 57.7388 15.098C57.2488 15.098 56.7962 15.0163 56.3808 14.853C55.9702 14.685 55.6132 14.4423 55.3098 14.125C55.0112 13.803 54.7778 13.4063 54.6098 12.935C54.4418 12.4637 54.3578 11.9223 54.3578 11.311C54.3578 10.8163 54.4325 10.3543 54.5818 9.925C54.7358 9.49567 54.9552 9.12467 55.2398 8.812C55.5245 8.49467 55.8722 8.24733 56.2828 8.07C56.6935 7.888 57.1555 7.797 57.6688 7.797ZM57.6968 8.714C57.0948 8.714 56.6212 8.889 56.2758 9.239C55.9305 9.58433 55.7158 10.065 55.6318 10.681H59.4888C59.4888 10.3917 59.4492 10.128 59.3698 9.89C59.2905 9.64733 59.1738 9.43967 59.0198 9.267C58.8658 9.08967 58.6768 8.95433 58.4528 8.861C58.2335 8.763 57.9815 8.714 57.6968 8.714Z" fill="black" fill-opacity="0.4"/>
<path fill-rule="evenodd" clip-rule="evenodd" d="M82.4001 10.0001C82.4001 11.6975 81.7258 13.3253 80.5256 14.5256C79.3253 15.7258 77.6975 16.4001 76.0001 16.4001C74.3027 16.4001 72.6748 15.7258 71.4746 14.5256C70.2744 13.3253 69.6001 11.6975 69.6001 10.0001C69.6001 8.30271 70.2744 6.67485 71.4746 5.47461C72.6748 4.27438 74.3027 3.6001 76.0001 3.6001C77.6975 3.6001 79.3253 4.27438 80.5256 5.47461C81.7258 6.67485 82.4001 8.30271 82.4001 10.0001ZM76.8001 6.8001C76.8001 7.01227 76.7158 7.21575 76.5658 7.36578C76.4158 7.51581 76.2123 7.6001 76.0001 7.6001C75.7879 7.6001 75.5844 7.51581 75.4344 7.36578C75.2844 7.21575 75.2001 7.01227 75.2001 6.8001C75.2001 6.58792 75.2844 6.38444 75.4344 6.23441C75.5844 6.08438 75.7879 6.0001 76.0001 6.0001C76.2123 6.0001 76.4158 6.08438 76.5658 6.23441C76.7158 6.38444 76.8001 6.58792 76.8001 6.8001ZM75.2001 9.2001C75.041 9.2001 74.8884 9.26331 74.7758 9.37583C74.6633 9.48836 74.6001 9.64097 74.6001 9.8001C74.6001 9.95923 74.6633 10.1118 74.7758 10.2244C74.8884 10.3369 75.041 10.4001 75.2001 10.4001H75.4025C75.4324 10.4001 75.462 10.4068 75.4889 10.4198C75.5159 10.4327 75.5397 10.4516 75.5584 10.4749C75.5771 10.4982 75.5904 10.5255 75.5972 10.5546C75.604 10.5838 75.6042 10.6141 75.5977 10.6433L75.2305 12.2961C75.185 12.5008 75.186 12.7132 75.2335 12.9174C75.2811 13.1217 75.3739 13.3127 75.5051 13.4762C75.6364 13.6398 75.8027 13.7718 75.9918 13.8625C76.1809 13.9532 76.388 14.0002 76.5977 14.0001H76.8001C76.9592 14.0001 77.1118 13.9369 77.2244 13.8244C77.3369 13.7118 77.4001 13.5592 77.4001 13.4001C77.4001 13.241 77.3369 13.0884 77.2244 12.9758C77.1118 12.8633 76.9592 12.8001 76.8001 12.8001H76.5977C76.5678 12.8001 76.5382 12.7934 76.5112 12.7804C76.4843 12.7675 76.4605 12.7486 76.4418 12.7253C76.4231 12.7019 76.4098 12.6747 76.403 12.6456C76.3962 12.6164 76.396 12.5861 76.4025 12.5569L76.7697 10.9041C76.8152 10.6994 76.8142 10.487 76.7667 10.2828C76.7191 10.0785 76.6263 9.88754 76.4951 9.72396C76.3638 9.56038 76.1975 9.42838 76.0084 9.33771C75.8193 9.24704 75.6122 9.20001 75.4025 9.2001H75.2001Z" fill="black" fill-opacity="0.25"/>
</svg>
