<svg width="73" height="20" viewBox="0 0 73 20" fill="none" xmlns="http://www.w3.org/2000/svg">
<path d="M8.288 12.928C8.36267 12.928 8.43033 12.9583 8.491 13.019L9.023 13.6C8.61233 14.076 8.113 14.447 7.525 14.713C6.94167 14.979 6.237 15.112 5.411 15.112C4.68767 15.112 4.032 14.9883 3.444 14.741C2.856 14.489 2.35433 14.139 1.939 13.691C1.52367 13.2383 1.20167 12.697 0.973 12.067C0.744333 11.437 0.63 10.744 0.63 9.988C0.63 9.232 0.751333 8.539 0.994 7.909C1.24133 7.279 1.58667 6.73767 2.03 6.285C2.47333 5.83233 3.003 5.48233 3.619 5.235C4.23967 4.983 4.92333 4.857 5.67 4.857C6.40733 4.857 7.042 4.97133 7.574 5.2C8.11067 5.42867 8.58667 5.739 9.002 6.131L8.561 6.754C8.52833 6.80067 8.491 6.84033 8.449 6.873C8.407 6.901 8.34633 6.915 8.267 6.915C8.20633 6.915 8.141 6.894 8.071 6.852C8.00567 6.80533 7.92633 6.74933 7.833 6.684C7.73967 6.61867 7.63 6.54867 7.504 6.474C7.378 6.39933 7.22867 6.32933 7.056 6.264C6.88333 6.19867 6.68267 6.145 6.454 6.103C6.22533 6.05633 5.96167 6.033 5.663 6.033C5.12633 6.033 4.634 6.12633 4.186 6.313C3.74267 6.495 3.36 6.75633 3.038 7.097C2.716 7.43767 2.464 7.853 2.282 8.343C2.10467 8.833 2.016 9.38133 2.016 9.988C2.016 10.6133 2.10467 11.171 2.282 11.661C2.464 12.151 2.709 12.5663 3.017 12.907C3.32967 13.243 3.69833 13.4997 4.123 13.677C4.54767 13.8543 5.005 13.943 5.495 13.943C5.79367 13.943 6.062 13.9267 6.3 13.894C6.538 13.8567 6.75733 13.8007 6.958 13.726C7.16333 13.6513 7.35233 13.558 7.525 13.446C7.70233 13.3293 7.87967 13.1917 8.057 13.033C8.13633 12.963 8.21333 12.928 8.288 12.928ZM11.992 4.689V15H10.746V4.689H11.992ZM19.396 15H18.843C18.7217 15 18.6237 14.9813 18.549 14.944C18.4743 14.9067 18.4253 14.8273 18.402 14.706L18.262 14.048C18.0753 14.216 17.8933 14.3677 17.716 14.503C17.5387 14.6337 17.352 14.7457 17.156 14.839C16.96 14.9277 16.75 14.9953 16.526 15.042C16.3067 15.0887 16.0617 15.112 15.791 15.112C15.5157 15.112 15.2567 15.0747 15.014 15C14.776 14.9207 14.5683 14.804 14.391 14.65C14.2137 14.496 14.0713 14.3023 13.964 14.069C13.8613 13.831 13.81 13.551 13.81 13.229C13.81 12.949 13.887 12.6807 14.041 12.424C14.195 12.1627 14.4423 11.9317 14.783 11.731C15.1283 11.5303 15.5787 11.367 16.134 11.241C16.6893 11.1103 17.3683 11.0357 18.171 11.017V10.464C18.171 9.91333 18.052 9.498 17.814 9.218C17.5807 8.93333 17.233 8.791 16.771 8.791C16.4677 8.791 16.211 8.83067 16.001 8.91C15.7957 8.98467 15.616 9.071 15.462 9.169C15.3127 9.26233 15.182 9.34867 15.07 9.428C14.9627 9.50267 14.8553 9.54 14.748 9.54C14.664 9.54 14.5893 9.519 14.524 9.477C14.4633 9.43033 14.4143 9.37433 14.377 9.309L14.153 8.91C14.545 8.532 14.9673 8.24967 15.42 8.063C15.8727 7.87633 16.3743 7.783 16.925 7.783C17.3217 7.783 17.674 7.84833 17.982 7.979C18.29 8.10967 18.549 8.29167 18.759 8.525C18.969 8.75833 19.1277 9.04067 19.235 9.372C19.3423 9.70333 19.396 10.0673 19.396 10.464V15ZM16.162 14.237C16.3813 14.237 16.582 14.216 16.764 14.174C16.946 14.1273 17.1163 14.0643 17.275 13.985C17.4383 13.901 17.5923 13.8007 17.737 13.684C17.8863 13.5673 18.031 13.4343 18.171 13.285V11.808C17.597 11.8267 17.1093 11.8733 16.708 11.948C16.3067 12.018 15.98 12.1113 15.728 12.228C15.476 12.3447 15.2917 12.4823 15.175 12.641C15.063 12.7997 15.007 12.977 15.007 13.173C15.007 13.3597 15.0373 13.5207 15.098 13.656C15.1587 13.7913 15.2403 13.9033 15.343 13.992C15.4457 14.076 15.567 14.139 15.707 14.181C15.847 14.2183 15.9987 14.237 16.162 14.237ZM22.6697 7.909V15H21.4237V7.909H22.6697ZM22.9497 5.683C22.9497 5.80433 22.9241 5.91867 22.8727 6.026C22.8261 6.12867 22.7607 6.222 22.6767 6.306C22.5974 6.38533 22.5041 6.44833 22.3967 6.495C22.2894 6.54167 22.1751 6.565 22.0537 6.565C21.9324 6.565 21.8181 6.54167 21.7107 6.495C21.6081 6.44833 21.5147 6.38533 21.4307 6.306C21.3514 6.222 21.2884 6.12867 21.2417 6.026C21.1951 5.91867 21.1717 5.80433 21.1717 5.683C21.1717 5.56167 21.1951 5.44733 21.2417 5.34C21.2884 5.228 21.3514 5.13233 21.4307 5.053C21.5147 4.969 21.6081 4.90367 21.7107 4.857C21.8181 4.81033 21.9324 4.787 22.0537 4.787C22.1751 4.787 22.2894 4.81033 22.3967 4.857C22.5041 4.90367 22.5974 4.969 22.6767 5.053C22.7607 5.13233 22.8261 5.228 22.8727 5.34C22.9241 5.44733 22.9497 5.56167 22.9497 5.683ZM24.8658 15V7.909H25.6078C25.7851 7.909 25.8971 7.99533 25.9438 8.168L26.0348 8.896C26.2961 8.574 26.5878 8.31033 26.9098 8.105C27.2364 7.89967 27.6144 7.797 28.0438 7.797C28.5244 7.797 28.9118 7.93 29.2058 8.196C29.5044 8.462 29.7191 8.82133 29.8498 9.274C29.9478 9.01733 30.0761 8.79567 30.2348 8.609C30.3981 8.42233 30.5801 8.26833 30.7808 8.147C30.9814 8.02567 31.1938 7.937 31.4178 7.881C31.6464 7.825 31.8774 7.797 32.1108 7.797C32.4841 7.797 32.8154 7.85767 33.1048 7.979C33.3988 8.09567 33.6461 8.26833 33.8468 8.497C34.0521 8.72567 34.2084 9.008 34.3158 9.344C34.4231 9.67533 34.4768 10.0557 34.4768 10.485V15H33.2308V10.485C33.2308 9.92967 33.1094 9.50967 32.8668 9.225C32.6241 8.93567 32.2718 8.791 31.8098 8.791C31.6044 8.791 31.4084 8.82833 31.2218 8.903C31.0398 8.973 30.8788 9.078 30.7388 9.218C30.5988 9.358 30.4868 9.53533 30.4028 9.75C30.3234 9.96 30.2838 10.205 30.2838 10.485V15H29.0378V10.485C29.0378 9.91567 28.9234 9.491 28.6948 9.211C28.4661 8.931 28.1324 8.791 27.6938 8.791C27.3858 8.791 27.0988 8.875 26.8328 9.043C26.5714 9.20633 26.3311 9.43033 26.1118 9.715V15H24.8658ZM39.1708 7.797C39.5955 7.797 39.9875 7.86933 40.3468 8.014C40.7061 8.154 41.0165 8.35933 41.2778 8.63C41.5391 8.896 41.7421 9.22733 41.8868 9.624C42.0361 10.016 42.1108 10.464 42.1108 10.968C42.1108 11.164 42.0898 11.2947 42.0478 11.36C42.0058 11.4253 41.9265 11.458 41.8098 11.458H37.0918C37.1011 11.906 37.1618 12.2957 37.2738 12.627C37.3858 12.9583 37.5398 13.236 37.7358 13.46C37.9318 13.6793 38.1651 13.845 38.4358 13.957C38.7065 14.0643 39.0098 14.118 39.3458 14.118C39.6585 14.118 39.9268 14.083 40.1508 14.013C40.3795 13.9383 40.5755 13.859 40.7388 13.775C40.9021 13.691 41.0375 13.614 41.1448 13.544C41.2568 13.4693 41.3525 13.432 41.4318 13.432C41.5345 13.432 41.6138 13.4717 41.6698 13.551L42.0198 14.006C41.8658 14.1927 41.6815 14.356 41.4668 14.496C41.2521 14.6313 41.0211 14.7433 40.7738 14.832C40.5311 14.9207 40.2791 14.986 40.0178 15.028C39.7565 15.0747 39.4975 15.098 39.2408 15.098C38.7508 15.098 38.2981 15.0163 37.8828 14.853C37.4721 14.685 37.1151 14.4423 36.8118 14.125C36.5131 13.803 36.2798 13.4063 36.1118 12.935C35.9438 12.4637 35.8598 11.9223 35.8598 11.311C35.8598 10.8163 35.9345 10.3543 36.0838 9.925C36.2378 9.49567 36.4571 9.12467 36.7418 8.812C37.0265 8.49467 37.3741 8.24733 37.7848 8.07C38.1955 7.888 38.6575 7.797 39.1708 7.797ZM39.1988 8.714C38.5968 8.714 38.1231 8.889 37.7778 9.239C37.4325 9.58433 37.2178 10.065 37.1338 10.681H40.9908C40.9908 10.3917 40.9511 10.128 40.8718 9.89C40.7925 9.64733 40.6758 9.43967 40.5218 9.267C40.3678 9.08967 40.1788 8.95433 39.9548 8.861C39.7355 8.763 39.4835 8.714 39.1988 8.714ZM48.6966 15C48.5193 15 48.4073 14.9137 48.3606 14.741L48.2486 13.88C47.9453 14.2487 47.5976 14.545 47.2056 14.769C46.8183 14.9883 46.3726 15.098 45.8686 15.098C45.4626 15.098 45.0939 15.021 44.7626 14.867C44.4313 14.7083 44.1489 14.4773 43.9156 14.174C43.6823 13.8707 43.5026 13.4927 43.3766 13.04C43.2506 12.5873 43.1876 12.067 43.1876 11.479C43.1876 10.9563 43.2576 10.471 43.3976 10.023C43.5376 9.57033 43.7383 9.17833 43.9996 8.847C44.2656 8.51567 44.5876 8.25667 44.9656 8.07C45.3436 7.87867 45.7729 7.783 46.2536 7.783C46.6876 7.783 47.0586 7.85767 47.3666 8.007C47.6746 8.15167 47.9499 8.357 48.1926 8.623V4.689H49.4386V15H48.6966ZM46.2816 14.09C46.6876 14.09 47.0423 13.9967 47.3456 13.81C47.6536 13.6233 47.9359 13.3597 48.1926 13.019V9.589C47.9639 9.281 47.7119 9.06633 47.4366 8.945C47.1659 8.819 46.8649 8.756 46.5336 8.756C45.8709 8.756 45.3623 8.99167 45.0076 9.463C44.6529 9.93433 44.4756 10.6063 44.4756 11.479C44.4756 11.941 44.5153 12.3377 44.5946 12.669C44.6739 12.9957 44.7906 13.2663 44.9446 13.481C45.0986 13.691 45.2876 13.845 45.5116 13.943C45.7356 14.041 45.9923 14.09 46.2816 14.09Z" fill="black" fill-opacity="0.4"/>
<path fill-rule="evenodd" clip-rule="evenodd" d="M71.4001 10.0001C71.4001 11.6975 70.7258 13.3253 69.5256 14.5256C68.3253 15.7258 66.6975 16.4001 65.0001 16.4001C63.3027 16.4001 61.6748 15.7258 60.4746 14.5256C59.2744 13.3253 58.6001 11.6975 58.6001 10.0001C58.6001 8.30271 59.2744 6.67485 60.4746 5.47461C61.6748 4.27438 63.3027 3.6001 65.0001 3.6001C66.6975 3.6001 68.3253 4.27438 69.5256 5.47461C70.7258 6.67485 71.4001 8.30271 71.4001 10.0001ZM65.8001 6.8001C65.8001 7.01227 65.7158 7.21575 65.5658 7.36578C65.4158 7.51581 65.2123 7.6001 65.0001 7.6001C64.7879 7.6001 64.5844 7.51581 64.4344 7.36578C64.2844 7.21575 64.2001 7.01227 64.2001 6.8001C64.2001 6.58792 64.2844 6.38444 64.4344 6.23441C64.5844 6.08438 64.7879 6.0001 65.0001 6.0001C65.2123 6.0001 65.4158 6.08438 65.5658 6.23441C65.7158 6.38444 65.8001 6.58792 65.8001 6.8001ZM64.2001 9.2001C64.041 9.2001 63.8884 9.26331 63.7758 9.37583C63.6633 9.48836 63.6001 9.64097 63.6001 9.8001C63.6001 9.95923 63.6633 10.1118 63.7758 10.2244C63.8884 10.3369 64.041 10.4001 64.2001 10.4001H64.4025C64.4324 10.4001 64.462 10.4068 64.4889 10.4198C64.5159 10.4327 64.5397 10.4516 64.5584 10.4749C64.5771 10.4982 64.5904 10.5255 64.5972 10.5546C64.604 10.5838 64.6042 10.6141 64.5977 10.6433L64.2305 12.2961C64.185 12.5008 64.186 12.7132 64.2335 12.9174C64.2811 13.1217 64.3739 13.3127 64.5051 13.4762C64.6364 13.6398 64.8027 13.7718 64.9918 13.8625C65.1809 13.9532 65.388 14.0002 65.5977 14.0001H65.8001C65.9592 14.0001 66.1118 13.9369 66.2244 13.8244C66.3369 13.7118 66.4001 13.5592 66.4001 13.4001C66.4001 13.241 66.3369 13.0884 66.2244 12.9758C66.1118 12.8633 65.9592 12.8001 65.8001 12.8001H65.5977C65.5678 12.8001 65.5382 12.7934 65.5112 12.7804C65.4843 12.7675 65.4605 12.7486 65.4418 12.7253C65.4231 12.7019 65.4098 12.6747 65.403 12.6456C65.3962 12.6164 65.396 12.5861 65.4025 12.5569L65.7697 10.9041C65.8152 10.6994 65.8142 10.487 65.7667 10.2828C65.7191 10.0785 65.6263 9.88754 65.4951 9.72396C65.3638 9.56038 65.1975 9.42838 65.0084 9.33771C64.8193 9.24704 64.6122 9.20001 64.4025 9.2001H64.2001Z" fill="black" fill-opacity="0.25"/>
</svg>
