<svg width="144" height="40" viewBox="0 0 144 40" fill="none" xmlns="http://www.w3.org/2000/svg">
<rect width="144" height="40" rx="8" fill="#FF87B2"/>
<path d="M27.5655 26H25.8535V14.512H27.5655V26ZM31.4194 19C31.5954 18.8133 31.7794 18.6427 31.9714 18.488C32.1634 18.3333 32.366 18.2027 32.5794 18.096C32.798 17.984 33.03 17.8987 33.2754 17.84C33.526 17.776 33.7927 17.744 34.0754 17.744C34.5234 17.744 34.9154 17.8187 35.2514 17.968C35.5927 18.1173 35.878 18.328 36.1074 18.6C36.3367 18.8667 36.51 19.1893 36.6274 19.568C36.7447 19.9467 36.8034 20.3653 36.8034 20.824V26H35.2354V20.824C35.2354 20.2427 35.102 19.792 34.8354 19.472C34.5687 19.1467 34.1607 18.984 33.6114 18.984C33.2114 18.984 32.8354 19.08 32.4834 19.272C32.1367 19.4587 31.814 19.7147 31.5154 20.04V26H29.9554V17.872H30.8914C31.11 17.872 31.246 17.976 31.2994 18.184L31.4194 19ZM45.7926 17.872L42.4966 26H41.0886L37.7926 17.872H39.0806C39.2033 17.872 39.3046 17.9013 39.3846 17.96C39.4646 18.0187 39.518 18.0933 39.5446 18.184L41.4886 23.176C41.558 23.384 41.6166 23.592 41.6646 23.8C41.718 24.0027 41.766 24.2053 41.8086 24.408C41.8513 24.2053 41.8993 24.0027 41.9526 23.8C42.006 23.5973 42.07 23.3893 42.1446 23.176L44.1126 18.184C44.1446 18.0933 44.2006 18.0187 44.2806 17.96C44.3606 17.9013 44.4566 17.872 44.5686 17.872H45.7926ZM48.6655 17.872V26H47.1055V17.872H48.6655ZM48.9615 15.36C48.9615 15.504 48.9322 15.6427 48.8735 15.776C48.8148 15.904 48.7348 16.0187 48.6335 16.12C48.5375 16.216 48.4228 16.2933 48.2895 16.352C48.1562 16.4053 48.0175 16.432 47.8735 16.432C47.7295 16.432 47.5935 16.4053 47.4655 16.352C47.3375 16.2933 47.2228 16.216 47.1215 16.12C47.0255 16.0187 46.9482 15.904 46.8895 15.776C46.8362 15.6427 46.8095 15.504 46.8095 15.36C46.8095 15.2107 46.8362 15.072 46.8895 14.944C46.9482 14.8107 47.0255 14.696 47.1215 14.6C47.2228 14.4987 47.3375 14.4213 47.4655 14.368C47.5935 14.3093 47.7295 14.28 47.8735 14.28C48.0175 14.28 48.1562 14.3093 48.2895 14.368C48.4228 14.4213 48.5375 14.4987 48.6335 14.6C48.7348 14.696 48.8148 14.8107 48.8735 14.944C48.9322 15.072 48.9615 15.2107 48.9615 15.36ZM53.4681 26.128C52.8121 26.128 52.3055 25.944 51.9481 25.576C51.5961 25.208 51.4201 24.6827 51.4201 24V19.136H50.4761C50.3855 19.136 50.3081 19.1093 50.2441 19.056C50.1855 18.9973 50.1561 18.912 50.1561 18.8V18.168L51.4761 17.984L51.8281 15.56C51.8495 15.4693 51.8895 15.4 51.9481 15.352C52.0121 15.2987 52.0921 15.272 52.1881 15.272H52.9801V18H55.2841V19.136H52.9801V23.896C52.9801 24.216 53.0575 24.456 53.2121 24.616C53.3721 24.7707 53.5748 24.848 53.8201 24.848C53.9641 24.848 54.0868 24.8293 54.1881 24.792C54.2948 24.7547 54.3855 24.7147 54.4601 24.672C54.5348 24.624 54.5988 24.5813 54.6521 24.544C54.7055 24.5067 54.7535 24.488 54.7961 24.488C54.8495 24.488 54.8895 24.5013 54.9161 24.528C54.9481 24.5493 54.9801 24.5867 55.0121 24.64L55.4761 25.392C55.2201 25.6267 54.9161 25.808 54.5641 25.936C54.2121 26.064 53.8468 26.128 53.4681 26.128ZM62.0581 21.032C62.0581 20.7227 62.0128 20.4373 61.9221 20.176C61.8368 19.9147 61.7088 19.688 61.5381 19.496C61.3675 19.304 61.1595 19.1547 60.9141 19.048C60.6688 18.9413 60.3861 18.888 60.0661 18.888C59.4101 18.888 58.8928 19.0773 58.5141 19.456C58.1408 19.8347 57.9035 20.36 57.8021 21.032H62.0581ZM63.3461 24.84C63.1541 25.064 62.9328 25.2587 62.6821 25.424C62.4315 25.584 62.1648 25.7147 61.8821 25.816C61.5995 25.9173 61.3061 25.992 61.0021 26.04C60.7035 26.088 60.4075 26.112 60.1141 26.112C59.5541 26.112 59.0341 26.0187 58.5541 25.832C58.0795 25.64 57.6661 25.3627 57.3141 25C56.9675 24.632 56.6955 24.1787 56.4981 23.64C56.3061 23.096 56.2101 22.472 56.2101 21.768C56.2101 21.2027 56.2981 20.6773 56.4741 20.192C56.6501 19.7013 56.9008 19.2747 57.2261 18.912C57.5568 18.5493 57.9595 18.264 58.4341 18.056C58.9088 17.848 59.4421 17.744 60.0341 17.744C60.5301 17.744 60.9861 17.8267 61.4021 17.992C61.8235 18.152 62.1861 18.3867 62.4901 18.696C62.7941 19.0053 63.0315 19.3867 63.2021 19.84C63.3781 20.2933 63.4661 20.8107 63.4661 21.392C63.4661 21.632 63.4395 21.7947 63.3861 21.88C63.3328 21.96 63.2341 22 63.0901 22H57.7621C57.7781 22.4853 57.8475 22.9093 57.9701 23.272C58.0928 23.6293 58.2608 23.928 58.4741 24.168C58.6928 24.408 58.9515 24.5867 59.2501 24.704C59.5488 24.8213 59.8821 24.88 60.2501 24.88C60.5968 24.88 60.8955 24.84 61.1461 24.76C61.4021 24.68 61.6208 24.5947 61.8021 24.504C61.9888 24.408 62.1435 24.32 62.2661 24.24C62.3941 24.16 62.5061 24.12 62.6021 24.12C62.7301 24.12 62.8288 24.168 62.8981 24.264L63.3461 24.84ZM71.2218 15.896V19.744H75.8298V21.128H71.2218V26H69.5098V14.512H76.6298V15.896H71.2218ZM79.0211 19.432C79.2825 18.8987 79.5971 18.48 79.9651 18.176C80.3331 17.872 80.7758 17.72 81.2931 17.72C81.4691 17.72 81.6345 17.7413 81.7891 17.784C81.9491 17.8213 82.0878 17.88 82.2051 17.96L82.1011 19.136C82.0638 19.28 81.9758 19.352 81.8371 19.352C81.7625 19.352 81.6505 19.3387 81.5011 19.312C81.3518 19.28 81.1918 19.264 81.0211 19.264C80.7705 19.264 80.5491 19.3013 80.3571 19.376C80.1651 19.4453 79.9918 19.552 79.8371 19.696C79.6878 19.8347 79.5545 20.008 79.4371 20.216C79.3198 20.4187 79.2105 20.6507 79.1091 20.912V26H77.5491V17.872H78.4451C78.6158 17.872 78.7305 17.904 78.7891 17.968C78.8531 18.0267 78.8985 18.1333 78.9251 18.288L79.0211 19.432ZM85.0405 17.872V26H83.4805V17.872H85.0405ZM85.3365 15.36C85.3365 15.504 85.3072 15.6427 85.2485 15.776C85.1898 15.904 85.1098 16.0187 85.0085 16.12C84.9125 16.216 84.7978 16.2933 84.6645 16.352C84.5312 16.4053 84.3925 16.432 84.2485 16.432C84.1045 16.432 83.9685 16.4053 83.8405 16.352C83.7125 16.2933 83.5978 16.216 83.4965 16.12C83.4005 16.0187 83.3232 15.904 83.2645 15.776C83.2112 15.6427 83.1845 15.504 83.1845 15.36C83.1845 15.2107 83.2112 15.072 83.2645 14.944C83.3232 14.8107 83.4005 14.696 83.4965 14.6C83.5978 14.4987 83.7125 14.4213 83.8405 14.368C83.9685 14.3093 84.1045 14.28 84.2485 14.28C84.3925 14.28 84.5312 14.3093 84.6645 14.368C84.7978 14.4213 84.9125 14.4987 85.0085 14.6C85.1098 14.696 85.1898 14.8107 85.2485 14.944C85.3072 15.072 85.3365 15.2107 85.3365 15.36ZM92.6831 21.032C92.6831 20.7227 92.6378 20.4373 92.5471 20.176C92.4618 19.9147 92.3338 19.688 92.1631 19.496C91.9925 19.304 91.7845 19.1547 91.5391 19.048C91.2938 18.9413 91.0111 18.888 90.6911 18.888C90.0351 18.888 89.5178 19.0773 89.1391 19.456C88.7658 19.8347 88.5285 20.36 88.4271 21.032H92.6831ZM93.9711 24.84C93.7791 25.064 93.5578 25.2587 93.3071 25.424C93.0565 25.584 92.7898 25.7147 92.5071 25.816C92.2245 25.9173 91.9311 25.992 91.6271 26.04C91.3285 26.088 91.0325 26.112 90.7391 26.112C90.1791 26.112 89.6591 26.0187 89.1791 25.832C88.7045 25.64 88.2911 25.3627 87.9391 25C87.5925 24.632 87.3205 24.1787 87.1231 23.64C86.9311 23.096 86.8351 22.472 86.8351 21.768C86.8351 21.2027 86.9231 20.6773 87.0991 20.192C87.2751 19.7013 87.5258 19.2747 87.8511 18.912C88.1818 18.5493 88.5845 18.264 89.0591 18.056C89.5338 17.848 90.0671 17.744 90.6591 17.744C91.1551 17.744 91.6111 17.8267 92.0271 17.992C92.4485 18.152 92.8111 18.3867 93.1151 18.696C93.4191 19.0053 93.6565 19.3867 93.8271 19.84C94.0031 20.2933 94.0911 20.8107 94.0911 21.392C94.0911 21.632 94.0645 21.7947 94.0111 21.88C93.9578 21.96 93.8591 22 93.7151 22H88.3871C88.4031 22.4853 88.4725 22.9093 88.5951 23.272C88.7178 23.6293 88.8858 23.928 89.0991 24.168C89.3178 24.408 89.5765 24.5867 89.8751 24.704C90.1738 24.8213 90.5071 24.88 90.8751 24.88C91.2218 24.88 91.5205 24.84 91.7711 24.76C92.0271 24.68 92.2458 24.5947 92.4271 24.504C92.6138 24.408 92.7685 24.32 92.8911 24.24C93.0191 24.16 93.1311 24.12 93.2271 24.12C93.3551 24.12 93.4538 24.168 93.5231 24.264L93.9711 24.84ZM97.2319 19C97.4079 18.8133 97.5919 18.6427 97.7839 18.488C97.9759 18.3333 98.1785 18.2027 98.3919 18.096C98.6105 17.984 98.8425 17.8987 99.0879 17.84C99.3385 17.776 99.6052 17.744 99.8879 17.744C100.336 17.744 100.728 17.8187 101.064 17.968C101.405 18.1173 101.691 18.328 101.92 18.6C102.149 18.8667 102.323 19.1893 102.44 19.568C102.557 19.9467 102.616 20.3653 102.616 20.824V26H101.048V20.824C101.048 20.2427 100.915 19.792 100.648 19.472C100.381 19.1467 99.9732 18.984 99.4239 18.984C99.0239 18.984 98.6479 19.08 98.2959 19.272C97.9492 19.4587 97.6265 19.7147 97.3279 20.04V26H95.7679V17.872H96.7039C96.9225 17.872 97.0585 17.976 97.1119 18.184L97.2319 19ZM109.961 19.84C109.705 19.504 109.428 19.2693 109.129 19.136C108.836 19.0027 108.505 18.936 108.137 18.936C107.422 18.936 106.868 19.1947 106.473 19.712C106.084 20.224 105.889 20.9733 105.889 21.96C105.889 22.4773 105.932 22.92 106.017 23.288C106.108 23.6507 106.236 23.9493 106.401 24.184C106.572 24.4133 106.78 24.584 107.025 24.696C107.27 24.8027 107.548 24.856 107.857 24.856C108.31 24.856 108.702 24.7547 109.033 24.552C109.364 24.3493 109.673 24.064 109.961 23.696V19.84ZM111.529 14.192V26H110.585C110.366 26 110.23 25.896 110.177 25.688L110.041 24.752C109.694 25.1627 109.3 25.4933 108.857 25.744C108.42 25.9893 107.913 26.112 107.337 26.112C106.873 26.112 106.452 26.0213 106.073 25.84C105.7 25.6587 105.38 25.3947 105.113 25.048C104.846 24.696 104.641 24.2613 104.497 23.744C104.353 23.2267 104.281 22.632 104.281 21.96C104.281 21.3573 104.361 20.7973 104.521 20.28C104.681 19.7627 104.913 19.3147 105.217 18.936C105.521 18.5573 105.889 18.2613 106.321 18.048C106.753 17.8293 107.241 17.72 107.785 17.72C108.276 17.72 108.692 17.8 109.033 17.96C109.38 18.12 109.689 18.3467 109.961 18.64V14.192H111.529ZM118.497 19.272C118.455 19.3413 118.409 19.392 118.361 19.424C118.313 19.4507 118.252 19.464 118.177 19.464C118.092 19.464 117.996 19.4347 117.889 19.376C117.788 19.3173 117.663 19.2533 117.513 19.184C117.369 19.1147 117.199 19.0507 117.001 18.992C116.804 18.9333 116.569 18.904 116.297 18.904C116.073 18.904 115.868 18.9333 115.681 18.992C115.5 19.0453 115.345 19.1227 115.217 19.224C115.089 19.32 114.991 19.4373 114.921 19.576C114.852 19.7093 114.817 19.8533 114.817 20.008C114.817 20.2107 114.876 20.3787 114.993 20.512C115.116 20.6453 115.273 20.76 115.465 20.856C115.663 20.952 115.884 21.04 116.129 21.12C116.38 21.1947 116.633 21.2747 116.889 21.36C117.151 21.4453 117.404 21.544 117.649 21.656C117.9 21.7627 118.121 21.8987 118.313 22.064C118.511 22.224 118.668 22.4187 118.785 22.648C118.908 22.8773 118.969 23.1573 118.969 23.488C118.969 23.8667 118.9 24.2187 118.761 24.544C118.628 24.864 118.428 25.1413 118.161 25.376C117.9 25.6107 117.575 25.7947 117.185 25.928C116.796 26.0613 116.351 26.128 115.849 26.128C115.289 26.128 114.772 26.0347 114.297 25.848C113.823 25.6613 113.425 25.424 113.105 25.136L113.473 24.536C113.516 24.4613 113.569 24.4053 113.633 24.368C113.697 24.3253 113.783 24.304 113.889 24.304C113.991 24.304 114.095 24.3413 114.201 24.416C114.308 24.4907 114.436 24.5733 114.585 24.664C114.735 24.7493 114.916 24.8293 115.129 24.904C115.343 24.9733 115.609 25.008 115.929 25.008C116.196 25.008 116.428 24.976 116.625 24.912C116.823 24.8427 116.985 24.752 117.113 24.64C117.247 24.5227 117.345 24.3893 117.409 24.24C117.473 24.0907 117.505 23.9333 117.505 23.768C117.505 23.5547 117.444 23.3787 117.321 23.24C117.204 23.096 117.047 22.9733 116.849 22.872C116.657 22.7707 116.436 22.6827 116.185 22.608C115.935 22.5333 115.679 22.4533 115.417 22.368C115.156 22.2827 114.9 22.184 114.649 22.072C114.399 21.96 114.175 21.8187 113.977 21.648C113.785 21.4773 113.628 21.2693 113.505 21.024C113.388 20.7787 113.329 20.48 113.329 20.128C113.329 19.8133 113.393 19.512 113.521 19.224C113.655 18.936 113.844 18.6827 114.089 18.464C114.34 18.2453 114.647 18.072 115.009 17.944C115.377 17.8107 115.796 17.744 116.265 17.744C116.804 17.744 117.289 17.8293 117.721 18C118.159 18.1707 118.532 18.4053 118.841 18.704L118.497 19.272Z" fill="white"/>
</svg>
