<svg width="155" height="16" viewBox="0 0 155 16" fill="none" xmlns="http://www.w3.org/2000/svg">
<circle cx="3" cy="8" r="3" fill="#345EEB"/>
<path opacity="0.5" d="M15.448 5.746C15.412 5.806 15.374 5.852 15.334 5.884C15.294 5.912 15.242 5.926 15.178 5.926C15.11 5.926 15.03 5.892 14.938 5.824C14.85 5.756 14.736 5.682 14.596 5.602C14.46 5.518 14.294 5.442 14.098 5.374C13.906 5.306 13.672 5.272 13.396 5.272C13.136 5.272 12.906 5.308 12.706 5.38C12.506 5.448 12.338 5.542 12.202 5.662C12.07 5.782 11.97 5.924 11.902 6.088C11.834 6.248 11.8 6.422 11.8 6.61C11.8 6.85 11.858 7.05 11.974 7.21C12.094 7.366 12.25 7.5 12.442 7.612C12.638 7.724 12.858 7.822 13.102 7.906C13.35 7.986 13.602 8.07 13.858 8.158C14.118 8.246 14.37 8.346 14.614 8.458C14.862 8.566 15.082 8.704 15.274 8.872C15.47 9.04 15.626 9.246 15.742 9.49C15.862 9.734 15.922 10.034 15.922 10.39C15.922 10.766 15.858 11.12 15.73 11.452C15.602 11.78 15.414 12.066 15.166 12.31C14.922 12.554 14.62 12.746 14.26 12.886C13.904 13.026 13.498 13.096 13.042 13.096C12.486 13.096 11.978 12.996 11.518 12.796C11.062 12.592 10.672 12.318 10.348 11.974L10.684 11.422C10.716 11.378 10.754 11.342 10.798 11.314C10.846 11.282 10.898 11.266 10.954 11.266C11.038 11.266 11.134 11.312 11.242 11.404C11.35 11.492 11.484 11.59 11.644 11.698C11.808 11.806 12.004 11.906 12.232 11.998C12.464 12.086 12.746 12.13 13.078 12.13C13.354 12.13 13.6 12.092 13.816 12.016C14.032 11.94 14.214 11.834 14.362 11.698C14.514 11.558 14.63 11.392 14.71 11.2C14.79 11.008 14.83 10.794 14.83 10.558C14.83 10.298 14.77 10.086 14.65 9.922C14.534 9.754 14.38 9.614 14.188 9.502C13.996 9.39 13.776 9.296 13.528 9.22C13.284 9.14 13.032 9.06 12.772 8.98C12.516 8.896 12.264 8.8 12.016 8.692C11.772 8.584 11.554 8.444 11.362 8.272C11.17 8.1 11.014 7.886 10.894 7.63C10.778 7.37 10.72 7.05 10.72 6.67C10.72 6.366 10.778 6.072 10.894 5.788C11.014 5.504 11.186 5.252 11.41 5.032C11.634 4.812 11.91 4.636 12.238 4.504C12.57 4.372 12.95 4.306 13.378 4.306C13.858 4.306 14.296 4.382 14.692 4.534C15.088 4.686 15.434 4.906 15.73 5.194L15.448 5.746ZM19.0813 13.096C18.6013 13.096 18.2313 12.962 17.9713 12.694C17.7153 12.426 17.5873 12.04 17.5873 11.536V7.816H16.8553C16.7913 7.816 16.7373 7.798 16.6933 7.762C16.6493 7.722 16.6273 7.662 16.6273 7.582V7.156L17.6233 7.03L17.8693 5.152C17.8773 5.092 17.9033 5.044 17.9473 5.008C17.9913 4.968 18.0473 4.948 18.1153 4.948H18.6553V7.042H20.3953V7.816H18.6553V11.464C18.6553 11.72 18.7173 11.91 18.8413 12.034C18.9653 12.158 19.1253 12.22 19.3213 12.22C19.4333 12.22 19.5293 12.206 19.6093 12.178C19.6933 12.146 19.7653 12.112 19.8253 12.076C19.8853 12.04 19.9353 12.008 19.9753 11.98C20.0193 11.948 20.0573 11.932 20.0893 11.932C20.1453 11.932 20.1953 11.966 20.2393 12.034L20.5513 12.544C20.3673 12.716 20.1453 12.852 19.8853 12.952C19.6253 13.048 19.3573 13.096 19.0813 13.096ZM24.1758 6.826C24.6198 6.826 25.0198 6.9 25.3758 7.048C25.7358 7.196 26.0398 7.406 26.2878 7.678C26.5398 7.95 26.7318 8.28 26.8638 8.668C26.9998 9.052 27.0678 9.482 27.0678 9.958C27.0678 10.438 26.9998 10.87 26.8638 11.254C26.7318 11.638 26.5398 11.966 26.2878 12.238C26.0398 12.51 25.7358 12.72 25.3758 12.868C25.0198 13.012 24.6198 13.084 24.1758 13.084C23.7318 13.084 23.3298 13.012 22.9698 12.868C22.6138 12.72 22.3098 12.51 22.0578 12.238C21.8058 11.966 21.6118 11.638 21.4758 11.254C21.3398 10.87 21.2718 10.438 21.2718 9.958C21.2718 9.482 21.3398 9.052 21.4758 8.668C21.6118 8.28 21.8058 7.95 22.0578 7.678C22.3098 7.406 22.6138 7.196 22.9698 7.048C23.3298 6.9 23.7318 6.826 24.1758 6.826ZM24.1758 12.25C24.7758 12.25 25.2238 12.05 25.5198 11.65C25.8158 11.246 25.9638 10.684 25.9638 9.964C25.9638 9.24 25.8158 8.676 25.5198 8.272C25.2238 7.868 24.7758 7.666 24.1758 7.666C23.8718 7.666 23.6078 7.718 23.3838 7.822C23.1598 7.926 22.9718 8.076 22.8198 8.272C22.6718 8.468 22.5598 8.71 22.4838 8.998C22.4118 9.282 22.3758 9.604 22.3758 9.964C22.3758 10.324 22.4118 10.646 22.4838 10.93C22.5598 11.214 22.6718 11.454 22.8198 11.65C22.9718 11.842 23.1598 11.99 23.3838 12.094C23.6078 12.198 23.8718 12.25 24.1758 12.25ZM32.8478 13H32.3738C32.2698 13 32.1858 12.984 32.1218 12.952C32.0578 12.92 32.0158 12.852 31.9958 12.748L31.8758 12.184C31.7158 12.328 31.5598 12.458 31.4078 12.574C31.2558 12.686 31.0958 12.782 30.9278 12.862C30.7598 12.938 30.5798 12.996 30.3878 13.036C30.1998 13.076 29.9898 13.096 29.7578 13.096C29.5218 13.096 29.2998 13.064 29.0918 13C28.8878 12.932 28.7098 12.832 28.5578 12.7C28.4058 12.568 28.2838 12.402 28.1918 12.202C28.1038 11.998 28.0598 11.758 28.0598 11.482C28.0598 11.242 28.1258 11.012 28.2578 10.792C28.3898 10.568 28.6018 10.37 28.8938 10.198C29.1898 10.026 29.5758 9.886 30.0518 9.778C30.5278 9.666 31.1098 9.602 31.7978 9.586V9.112C31.7978 8.64 31.6958 8.284 31.4918 8.044C31.2918 7.8 30.9938 7.678 30.5978 7.678C30.3378 7.678 30.1178 7.712 29.9378 7.78C29.7618 7.844 29.6078 7.918 29.4758 8.002C29.3478 8.082 29.2358 8.156 29.1398 8.224C29.0478 8.288 28.9558 8.32 28.8638 8.32C28.7918 8.32 28.7278 8.302 28.6718 8.266C28.6198 8.226 28.5778 8.178 28.5458 8.122L28.3538 7.78C28.6898 7.456 29.0518 7.214 29.4398 7.054C29.8278 6.894 30.2578 6.814 30.7298 6.814C31.0698 6.814 31.3718 6.87 31.6358 6.982C31.8998 7.094 32.1218 7.25 32.3018 7.45C32.4818 7.65 32.6178 7.892 32.7098 8.176C32.8018 8.46 32.8478 8.772 32.8478 9.112V13ZM30.0758 12.346C30.2638 12.346 30.4358 12.328 30.5918 12.292C30.7478 12.252 30.8938 12.198 31.0298 12.13C31.1698 12.058 31.3018 11.972 31.4258 11.872C31.5538 11.772 31.6778 11.658 31.7978 11.53V10.264C31.3058 10.28 30.8878 10.32 30.5438 10.384C30.1998 10.444 29.9198 10.524 29.7038 10.624C29.4878 10.724 29.3298 10.842 29.2298 10.978C29.1338 11.114 29.0858 11.266 29.0858 11.434C29.0858 11.594 29.1118 11.732 29.1638 11.848C29.2158 11.964 29.2858 12.06 29.3738 12.136C29.4618 12.208 29.5658 12.262 29.6858 12.298C29.8058 12.33 29.9358 12.346 30.0758 12.346ZM36.7862 13V6.922H37.3982C37.5142 6.922 37.5942 6.944 37.6382 6.988C37.6822 7.032 37.7122 7.108 37.7282 7.216L37.8002 8.164C38.0082 7.74 38.2642 7.41 38.5682 7.174C38.8762 6.934 39.2362 6.814 39.6482 6.814C39.8162 6.814 39.9682 6.834 40.1042 6.874C40.2402 6.91 40.3662 6.962 40.4822 7.03L40.3442 7.828C40.3162 7.928 40.2542 7.978 40.1582 7.978C40.1022 7.978 40.0162 7.96 39.9002 7.924C39.7842 7.884 39.6222 7.864 39.4142 7.864C39.0422 7.864 38.7302 7.972 38.4782 8.188C38.2302 8.404 38.0222 8.718 37.8542 9.13V13H36.7862ZM44.032 6.826C44.396 6.826 44.732 6.888 45.04 7.012C45.348 7.132 45.614 7.308 45.838 7.54C46.062 7.768 46.236 8.052 46.36 8.392C46.488 8.728 46.552 9.112 46.552 9.544C46.552 9.712 46.534 9.824 46.498 9.88C46.462 9.936 46.394 9.964 46.294 9.964H42.25C42.258 10.348 42.31 10.682 42.406 10.966C42.502 11.25 42.634 11.488 42.802 11.68C42.97 11.868 43.17 12.01 43.402 12.106C43.634 12.198 43.894 12.244 44.182 12.244C44.45 12.244 44.68 12.214 44.872 12.154C45.068 12.09 45.236 12.022 45.376 11.95C45.516 11.878 45.632 11.812 45.724 11.752C45.82 11.688 45.902 11.656 45.97 11.656C46.058 11.656 46.126 11.69 46.174 11.758L46.474 12.148C46.342 12.308 46.184 12.448 46 12.568C45.816 12.684 45.618 12.78 45.406 12.856C45.198 12.932 44.982 12.988 44.758 13.024C44.534 13.064 44.312 13.084 44.092 13.084C43.672 13.084 43.284 13.014 42.928 12.874C42.576 12.73 42.27 12.522 42.01 12.25C41.754 11.974 41.554 11.634 41.41 11.23C41.266 10.826 41.194 10.362 41.194 9.838C41.194 9.414 41.258 9.018 41.386 8.65C41.518 8.282 41.706 7.964 41.95 7.696C42.194 7.424 42.492 7.212 42.844 7.06C43.196 6.904 43.592 6.826 44.032 6.826ZM44.056 7.612C43.54 7.612 43.134 7.762 42.838 8.062C42.542 8.358 42.358 8.77 42.286 9.298H45.592C45.592 9.05 45.558 8.824 45.49 8.62C45.422 8.412 45.322 8.234 45.19 8.086C45.058 7.934 44.896 7.818 44.704 7.738C44.516 7.654 44.3 7.612 44.056 7.612ZM47.127 6.922H47.967C48.055 6.922 48.127 6.944 48.183 6.988C48.239 7.032 48.277 7.084 48.297 7.144L49.461 11.056C49.493 11.2 49.523 11.34 49.551 11.476C49.579 11.608 49.603 11.742 49.623 11.878C49.655 11.742 49.691 11.608 49.731 11.476C49.771 11.34 49.813 11.2 49.857 11.056L51.141 7.12C51.161 7.06 51.195 7.01 51.243 6.97C51.295 6.93 51.359 6.91 51.435 6.91H51.897C51.977 6.91 52.043 6.93 52.095 6.97C52.147 7.01 52.183 7.06 52.203 7.12L53.457 11.056C53.501 11.196 53.539 11.334 53.571 11.47C53.607 11.606 53.641 11.74 53.673 11.872C53.693 11.74 53.719 11.602 53.751 11.458C53.783 11.314 53.817 11.18 53.853 11.056L55.041 7.144C55.061 7.08 55.099 7.028 55.155 6.988C55.211 6.944 55.277 6.922 55.353 6.922H56.157L54.189 13H53.343C53.239 13 53.167 12.932 53.127 12.796L51.783 8.674C51.751 8.582 51.725 8.49 51.705 8.398C51.685 8.302 51.665 8.208 51.645 8.116C51.625 8.208 51.605 8.302 51.585 8.398C51.565 8.494 51.539 8.588 51.507 8.68L50.145 12.796C50.101 12.932 50.019 13 49.899 13H49.095L47.127 6.922ZM61.5705 13H61.0965C60.9925 13 60.9085 12.984 60.8445 12.952C60.7805 12.92 60.7385 12.852 60.7185 12.748L60.5985 12.184C60.4385 12.328 60.2825 12.458 60.1305 12.574C59.9785 12.686 59.8185 12.782 59.6505 12.862C59.4825 12.938 59.3025 12.996 59.1105 13.036C58.9225 13.076 58.7125 13.096 58.4805 13.096C58.2445 13.096 58.0225 13.064 57.8145 13C57.6105 12.932 57.4325 12.832 57.2805 12.7C57.1285 12.568 57.0065 12.402 56.9145 12.202C56.8265 11.998 56.7825 11.758 56.7825 11.482C56.7825 11.242 56.8485 11.012 56.9805 10.792C57.1125 10.568 57.3245 10.37 57.6165 10.198C57.9125 10.026 58.2985 9.886 58.7745 9.778C59.2505 9.666 59.8325 9.602 60.5205 9.586V9.112C60.5205 8.64 60.4185 8.284 60.2145 8.044C60.0145 7.8 59.7165 7.678 59.3205 7.678C59.0605 7.678 58.8405 7.712 58.6605 7.78C58.4845 7.844 58.3305 7.918 58.1985 8.002C58.0705 8.082 57.9585 8.156 57.8625 8.224C57.7705 8.288 57.6785 8.32 57.5865 8.32C57.5145 8.32 57.4505 8.302 57.3945 8.266C57.3425 8.226 57.3005 8.178 57.2685 8.122L57.0765 7.78C57.4125 7.456 57.7745 7.214 58.1625 7.054C58.5505 6.894 58.9805 6.814 59.4525 6.814C59.7925 6.814 60.0945 6.87 60.3585 6.982C60.6225 7.094 60.8445 7.25 61.0245 7.45C61.2045 7.65 61.3405 7.892 61.4325 8.176C61.5245 8.46 61.5705 8.772 61.5705 9.112V13ZM58.7985 12.346C58.9865 12.346 59.1585 12.328 59.3145 12.292C59.4705 12.252 59.6165 12.198 59.7525 12.13C59.8925 12.058 60.0245 11.972 60.1485 11.872C60.2765 11.772 60.4005 11.658 60.5205 11.53V10.264C60.0285 10.28 59.6105 10.32 59.2665 10.384C58.9225 10.444 58.6425 10.524 58.4265 10.624C58.2105 10.724 58.0525 10.842 57.9525 10.978C57.8565 11.114 57.8085 11.266 57.8085 11.434C57.8085 11.594 57.8345 11.732 57.8865 11.848C57.9385 11.964 58.0085 12.06 58.0965 12.136C58.1845 12.208 58.2885 12.262 58.4085 12.298C58.5285 12.33 58.6585 12.346 58.7985 12.346ZM63.1885 13V6.922H63.8005C63.9165 6.922 63.9965 6.944 64.0405 6.988C64.0845 7.032 64.1145 7.108 64.1305 7.216L64.2025 8.164C64.4105 7.74 64.6665 7.41 64.9705 7.174C65.2785 6.934 65.6385 6.814 66.0505 6.814C66.2185 6.814 66.3705 6.834 66.5065 6.874C66.6425 6.91 66.7685 6.962 66.8845 7.03L66.7465 7.828C66.7185 7.928 66.6565 7.978 66.5605 7.978C66.5045 7.978 66.4185 7.96 66.3025 7.924C66.1865 7.884 66.0245 7.864 65.8165 7.864C65.4445 7.864 65.1325 7.972 64.8805 8.188C64.6325 8.404 64.4245 8.718 64.2565 9.13V13H63.1885ZM72.3063 13C72.1543 13 72.0583 12.926 72.0183 12.778L71.9223 12.04C71.6623 12.356 71.3643 12.61 71.0283 12.802C70.6963 12.99 70.3143 13.084 69.8823 13.084C69.5343 13.084 69.2183 13.018 68.9343 12.886C68.6503 12.75 68.4083 12.552 68.2083 12.292C68.0083 12.032 67.8543 11.708 67.7463 11.32C67.6383 10.932 67.5843 10.486 67.5843 9.982C67.5843 9.534 67.6443 9.118 67.7643 8.734C67.8843 8.346 68.0563 8.01 68.2803 7.726C68.5083 7.442 68.7843 7.22 69.1083 7.06C69.4323 6.896 69.8003 6.814 70.2123 6.814C70.5843 6.814 70.9023 6.878 71.1663 7.006C71.4303 7.13 71.6663 7.306 71.8743 7.534V4.162H72.9423V13H72.3063ZM70.2363 12.22C70.5843 12.22 70.8883 12.14 71.1483 11.98C71.4123 11.82 71.6543 11.594 71.8743 11.302V8.362C71.6783 8.098 71.4623 7.914 71.2263 7.81C70.9943 7.702 70.7363 7.648 70.4523 7.648C69.8843 7.648 69.4483 7.85 69.1443 8.254C68.8403 8.658 68.6883 9.234 68.6883 9.982C68.6883 10.378 68.7223 10.718 68.7903 11.002C68.8583 11.282 68.9583 11.514 69.0903 11.698C69.2223 11.878 69.3843 12.01 69.5763 12.094C69.7683 12.178 69.9883 12.22 70.2363 12.22ZM77.1375 6.826C77.5015 6.826 77.8375 6.888 78.1455 7.012C78.4535 7.132 78.7195 7.308 78.9435 7.54C79.1675 7.768 79.3415 8.052 79.4655 8.392C79.5935 8.728 79.6575 9.112 79.6575 9.544C79.6575 9.712 79.6395 9.824 79.6035 9.88C79.5675 9.936 79.4995 9.964 79.3995 9.964H75.3555C75.3635 10.348 75.4155 10.682 75.5115 10.966C75.6075 11.25 75.7395 11.488 75.9075 11.68C76.0755 11.868 76.2755 12.01 76.5075 12.106C76.7395 12.198 76.9995 12.244 77.2875 12.244C77.5555 12.244 77.7855 12.214 77.9775 12.154C78.1735 12.09 78.3415 12.022 78.4815 11.95C78.6215 11.878 78.7375 11.812 78.8295 11.752C78.9255 11.688 79.0075 11.656 79.0755 11.656C79.1635 11.656 79.2315 11.69 79.2795 11.758L79.5795 12.148C79.4475 12.308 79.2895 12.448 79.1055 12.568C78.9215 12.684 78.7235 12.78 78.5115 12.856C78.3035 12.932 78.0875 12.988 77.8635 13.024C77.6395 13.064 77.4175 13.084 77.1975 13.084C76.7775 13.084 76.3895 13.014 76.0335 12.874C75.6815 12.73 75.3755 12.522 75.1155 12.25C74.8595 11.974 74.6595 11.634 74.5155 11.23C74.3715 10.826 74.2995 10.362 74.2995 9.838C74.2995 9.414 74.3635 9.018 74.4915 8.65C74.6235 8.282 74.8115 7.964 75.0555 7.696C75.2995 7.424 75.5975 7.212 75.9495 7.06C76.3015 6.904 76.6975 6.826 77.1375 6.826ZM77.1615 7.612C76.6455 7.612 76.2395 7.762 75.9435 8.062C75.6475 8.358 75.4635 8.77 75.3915 9.298H78.6975C78.6975 9.05 78.6635 8.824 78.5955 8.62C78.5275 8.412 78.4275 8.234 78.2955 8.086C78.1635 7.934 78.0015 7.818 77.8095 7.738C77.6215 7.654 77.4055 7.612 77.1615 7.612ZM85.3024 13C85.1504 13 85.0544 12.926 85.0144 12.778L84.9184 12.04C84.6584 12.356 84.3604 12.61 84.0244 12.802C83.6924 12.99 83.3104 13.084 82.8784 13.084C82.5304 13.084 82.2144 13.018 81.9304 12.886C81.6464 12.75 81.4044 12.552 81.2044 12.292C81.0044 12.032 80.8504 11.708 80.7424 11.32C80.6344 10.932 80.5804 10.486 80.5804 9.982C80.5804 9.534 80.6404 9.118 80.7604 8.734C80.8804 8.346 81.0524 8.01 81.2764 7.726C81.5044 7.442 81.7804 7.22 82.1044 7.06C82.4284 6.896 82.7964 6.814 83.2084 6.814C83.5804 6.814 83.8984 6.878 84.1624 7.006C84.4264 7.13 84.6624 7.306 84.8704 7.534V4.162H85.9384V13H85.3024ZM83.2324 12.22C83.5804 12.22 83.8844 12.14 84.1444 11.98C84.4084 11.82 84.6504 11.594 84.8704 11.302V8.362C84.6744 8.098 84.4584 7.914 84.2224 7.81C83.9904 7.702 83.7324 7.648 83.4484 7.648C82.8804 7.648 82.4444 7.85 82.1404 8.254C81.8364 8.658 81.6844 9.234 81.6844 9.982C81.6844 10.378 81.7184 10.718 81.7864 11.002C81.8544 11.282 81.9544 11.514 82.0864 11.698C82.2184 11.878 82.3804 12.01 82.5724 12.094C82.7644 12.178 82.9844 12.22 83.2324 12.22Z" fill="black"/>
<circle cx="102" cy="8" r="3" fill="#EF2A89"/>
<path opacity="0.5" d="M115.342 4.402V5.35H111.214V8.206H114.556V9.118H111.214V12.052H115.342V13H110.044V4.402H115.342ZM121.313 13H120.839C120.735 13 120.651 12.984 120.587 12.952C120.523 12.92 120.481 12.852 120.461 12.748L120.341 12.184C120.181 12.328 120.025 12.458 119.873 12.574C119.721 12.686 119.561 12.782 119.393 12.862C119.225 12.938 119.045 12.996 118.853 13.036C118.665 13.076 118.455 13.096 118.223 13.096C117.987 13.096 117.765 13.064 117.557 13C117.353 12.932 117.175 12.832 117.023 12.7C116.871 12.568 116.749 12.402 116.657 12.202C116.569 11.998 116.525 11.758 116.525 11.482C116.525 11.242 116.591 11.012 116.723 10.792C116.855 10.568 117.067 10.37 117.359 10.198C117.655 10.026 118.041 9.886 118.517 9.778C118.993 9.666 119.575 9.602 120.263 9.586V9.112C120.263 8.64 120.161 8.284 119.957 8.044C119.757 7.8 119.459 7.678 119.063 7.678C118.803 7.678 118.583 7.712 118.403 7.78C118.227 7.844 118.073 7.918 117.941 8.002C117.813 8.082 117.701 8.156 117.605 8.224C117.513 8.288 117.421 8.32 117.329 8.32C117.257 8.32 117.193 8.302 117.137 8.266C117.085 8.226 117.043 8.178 117.011 8.122L116.819 7.78C117.155 7.456 117.517 7.214 117.905 7.054C118.293 6.894 118.723 6.814 119.195 6.814C119.535 6.814 119.837 6.87 120.101 6.982C120.365 7.094 120.587 7.25 120.767 7.45C120.947 7.65 121.083 7.892 121.175 8.176C121.267 8.46 121.313 8.772 121.313 9.112V13ZM118.541 12.346C118.729 12.346 118.901 12.328 119.057 12.292C119.213 12.252 119.359 12.198 119.495 12.13C119.635 12.058 119.767 11.972 119.891 11.872C120.019 11.772 120.143 11.658 120.263 11.53V10.264C119.771 10.28 119.353 10.32 119.009 10.384C118.665 10.444 118.385 10.524 118.169 10.624C117.953 10.724 117.795 10.842 117.695 10.978C117.599 11.114 117.551 11.266 117.551 11.434C117.551 11.594 117.577 11.732 117.629 11.848C117.681 11.964 117.751 12.06 117.839 12.136C117.927 12.208 118.031 12.262 118.151 12.298C118.271 12.33 118.401 12.346 118.541 12.346ZM122.931 13V6.922H123.543C123.659 6.922 123.739 6.944 123.783 6.988C123.827 7.032 123.857 7.108 123.873 7.216L123.945 8.164C124.153 7.74 124.409 7.41 124.713 7.174C125.021 6.934 125.381 6.814 125.793 6.814C125.961 6.814 126.113 6.834 126.249 6.874C126.385 6.91 126.511 6.962 126.627 7.03L126.489 7.828C126.461 7.928 126.399 7.978 126.303 7.978C126.247 7.978 126.161 7.96 126.045 7.924C125.929 7.884 125.767 7.864 125.559 7.864C125.187 7.864 124.875 7.972 124.623 8.188C124.375 8.404 124.167 8.718 123.999 9.13V13H122.931ZM127.771 13V6.922H128.407C128.559 6.922 128.655 6.996 128.695 7.144L128.779 7.804C129.043 7.512 129.337 7.276 129.661 7.096C129.989 6.916 130.367 6.826 130.795 6.826C131.127 6.826 131.419 6.882 131.671 6.994C131.927 7.102 132.139 7.258 132.307 7.462C132.479 7.662 132.609 7.904 132.697 8.188C132.785 8.472 132.829 8.786 132.829 9.13V13H131.761V9.13C131.761 8.67 131.655 8.314 131.443 8.062C131.235 7.806 130.915 7.678 130.483 7.678C130.167 7.678 129.871 7.754 129.595 7.906C129.323 8.058 129.071 8.264 128.839 8.524V13H127.771ZM135.627 6.922V13H134.559V6.922H135.627ZM135.867 5.014C135.867 5.118 135.845 5.216 135.801 5.308C135.761 5.396 135.705 5.476 135.633 5.548C135.565 5.616 135.485 5.67 135.393 5.71C135.301 5.75 135.203 5.77 135.099 5.77C134.995 5.77 134.897 5.75 134.805 5.71C134.717 5.67 134.637 5.616 134.565 5.548C134.497 5.476 134.443 5.396 134.403 5.308C134.363 5.216 134.343 5.118 134.343 5.014C134.343 4.91 134.363 4.812 134.403 4.72C134.443 4.624 134.497 4.542 134.565 4.474C134.637 4.402 134.717 4.346 134.805 4.306C134.897 4.266 134.995 4.246 135.099 4.246C135.203 4.246 135.301 4.266 135.393 4.306C135.485 4.346 135.565 4.402 135.633 4.474C135.705 4.542 135.761 4.624 135.801 4.72C135.845 4.812 135.867 4.91 135.867 5.014ZM137.509 13V6.922H138.145C138.297 6.922 138.393 6.996 138.433 7.144L138.517 7.804C138.781 7.512 139.075 7.276 139.399 7.096C139.727 6.916 140.105 6.826 140.533 6.826C140.865 6.826 141.157 6.882 141.409 6.994C141.665 7.102 141.877 7.258 142.045 7.462C142.217 7.662 142.347 7.904 142.435 8.188C142.523 8.472 142.567 8.786 142.567 9.13V13H141.499V9.13C141.499 8.67 141.393 8.314 141.181 8.062C140.973 7.806 140.653 7.678 140.221 7.678C139.905 7.678 139.609 7.754 139.333 7.906C139.061 8.058 138.809 8.264 138.577 8.524V13H137.509ZM146.223 6.82C146.487 6.82 146.733 6.85 146.961 6.91C147.193 6.966 147.403 7.05 147.591 7.162H149.241V7.558C149.241 7.69 149.157 7.774 148.989 7.81L148.299 7.906C148.435 8.166 148.503 8.456 148.503 8.776C148.503 9.072 148.445 9.342 148.329 9.586C148.217 9.826 148.059 10.032 147.855 10.204C147.655 10.376 147.415 10.508 147.135 10.6C146.859 10.692 146.555 10.738 146.223 10.738C145.939 10.738 145.671 10.704 145.419 10.636C145.291 10.716 145.193 10.802 145.125 10.894C145.061 10.986 145.029 11.076 145.029 11.164C145.029 11.308 145.087 11.418 145.203 11.494C145.319 11.566 145.473 11.618 145.665 11.65C145.857 11.682 146.075 11.702 146.319 11.71C146.563 11.718 146.811 11.732 147.063 11.752C147.319 11.768 147.569 11.798 147.813 11.842C148.057 11.886 148.275 11.958 148.467 12.058C148.659 12.158 148.813 12.296 148.929 12.472C149.045 12.648 149.103 12.876 149.103 13.156C149.103 13.416 149.037 13.668 148.905 13.912C148.777 14.156 148.591 14.372 148.347 14.56C148.103 14.752 147.805 14.904 147.453 15.016C147.101 15.132 146.703 15.19 146.259 15.19C145.815 15.19 145.425 15.146 145.089 15.058C144.757 14.97 144.481 14.852 144.261 14.704C144.041 14.556 143.875 14.384 143.763 14.188C143.655 13.996 143.601 13.794 143.601 13.582C143.601 13.282 143.695 13.028 143.883 12.82C144.075 12.608 144.337 12.44 144.669 12.316C144.497 12.236 144.359 12.13 144.255 11.998C144.155 11.862 144.105 11.682 144.105 11.458C144.105 11.37 144.121 11.28 144.153 11.188C144.185 11.092 144.233 10.998 144.297 10.906C144.365 10.814 144.447 10.726 144.543 10.642C144.639 10.558 144.751 10.484 144.879 10.42C144.579 10.252 144.343 10.03 144.171 9.754C144.003 9.474 143.919 9.148 143.919 8.776C143.919 8.48 143.975 8.212 144.087 7.972C144.203 7.728 144.363 7.522 144.567 7.354C144.771 7.182 145.013 7.05 145.293 6.958C145.577 6.866 145.887 6.82 146.223 6.82ZM148.119 13.33C148.119 13.178 148.077 13.056 147.993 12.964C147.909 12.872 147.795 12.802 147.651 12.754C147.507 12.702 147.341 12.664 147.153 12.64C146.965 12.616 146.767 12.6 146.559 12.592C146.351 12.58 146.139 12.568 145.923 12.556C145.707 12.544 145.501 12.522 145.305 12.49C145.077 12.598 144.891 12.73 144.747 12.886C144.607 13.042 144.537 13.228 144.537 13.444C144.537 13.58 144.571 13.706 144.639 13.822C144.711 13.942 144.819 14.044 144.963 14.128C145.107 14.216 145.287 14.284 145.503 14.332C145.723 14.384 145.981 14.41 146.277 14.41C146.565 14.41 146.823 14.384 147.051 14.332C147.279 14.28 147.471 14.206 147.627 14.11C147.787 14.014 147.909 13.9 147.993 13.768C148.077 13.636 148.119 13.49 148.119 13.33ZM146.223 10.03C146.439 10.03 146.629 10 146.793 9.94C146.961 9.88 147.101 9.796 147.213 9.688C147.325 9.58 147.409 9.452 147.465 9.304C147.521 9.152 147.549 8.986 147.549 8.806C147.549 8.434 147.435 8.138 147.207 7.918C146.983 7.698 146.655 7.588 146.223 7.588C145.795 7.588 145.467 7.698 145.239 7.918C145.015 8.138 144.903 8.434 144.903 8.806C144.903 8.986 144.931 9.152 144.987 9.304C145.047 9.452 145.133 9.58 145.245 9.688C145.357 9.796 145.495 9.88 145.659 9.94C145.823 10 146.011 10.03 146.223 10.03ZM153.786 7.924C153.738 8.012 153.664 8.056 153.564 8.056C153.504 8.056 153.436 8.034 153.36 7.99C153.284 7.946 153.19 7.898 153.078 7.846C152.97 7.79 152.84 7.74 152.688 7.696C152.536 7.648 152.356 7.624 152.148 7.624C151.968 7.624 151.806 7.648 151.662 7.696C151.518 7.74 151.394 7.802 151.29 7.882C151.19 7.962 151.112 8.056 151.056 8.164C151.004 8.268 150.978 8.382 150.978 8.506C150.978 8.662 151.022 8.792 151.11 8.896C151.202 9 151.322 9.09 151.47 9.166C151.618 9.242 151.786 9.31 151.974 9.37C152.162 9.426 152.354 9.488 152.55 9.556C152.75 9.62 152.944 9.692 153.132 9.772C153.32 9.852 153.488 9.952 153.636 10.072C153.784 10.192 153.902 10.34 153.99 10.516C154.082 10.688 154.128 10.896 154.128 11.14C154.128 11.42 154.078 11.68 153.978 11.92C153.878 12.156 153.73 12.362 153.534 12.538C153.338 12.71 153.098 12.846 152.814 12.946C152.53 13.046 152.202 13.096 151.83 13.096C151.406 13.096 151.022 13.028 150.678 12.892C150.334 12.752 150.042 12.574 149.802 12.358L150.054 11.95C150.086 11.898 150.124 11.858 150.168 11.83C150.212 11.802 150.27 11.788 150.342 11.788C150.414 11.788 150.49 11.816 150.57 11.872C150.65 11.928 150.746 11.99 150.858 12.058C150.974 12.126 151.112 12.188 151.272 12.244C151.436 12.3 151.64 12.328 151.884 12.328C152.092 12.328 152.274 12.302 152.43 12.25C152.586 12.194 152.716 12.12 152.82 12.028C152.924 11.936 153 11.83 153.048 11.71C153.1 11.59 153.126 11.462 153.126 11.326C153.126 11.158 153.08 11.02 152.988 10.912C152.9 10.8 152.782 10.706 152.634 10.63C152.486 10.55 152.316 10.482 152.124 10.426C151.936 10.366 151.742 10.304 151.542 10.24C151.346 10.176 151.152 10.104 150.96 10.024C150.772 9.94 150.604 9.836 150.456 9.712C150.308 9.588 150.188 9.436 150.096 9.256C150.008 9.072 149.964 8.85 149.964 8.59C149.964 8.358 150.012 8.136 150.108 7.924C150.204 7.708 150.344 7.52 150.528 7.36C150.712 7.196 150.938 7.066 151.206 6.97C151.474 6.874 151.78 6.826 152.124 6.826C152.524 6.826 152.882 6.89 153.198 7.018C153.518 7.142 153.794 7.314 154.026 7.534L153.786 7.924Z" fill="black"/>
</svg>
