<svg width="99" height="20" viewBox="0 0 99 20" fill="none" xmlns="http://www.w3.org/2000/svg">
<path d="M8.05 4.969V6.11H4.809V15H3.451V6.11H0.196V4.969H8.05ZM10.6733 7.797C11.1913 7.797 11.6579 7.88333 12.0733 8.056C12.4933 8.22867 12.8479 8.47367 13.1373 8.791C13.4313 9.10833 13.6553 9.49333 13.8093 9.946C13.9679 10.394 14.0473 10.8957 14.0473 11.451C14.0473 12.011 13.9679 12.515 13.8093 12.963C13.6553 13.411 13.4313 13.7937 13.1373 14.111C12.8479 14.4283 12.4933 14.6733 12.0733 14.846C11.6579 15.014 11.1913 15.098 10.6733 15.098C10.1553 15.098 9.68625 15.014 9.26625 14.846C8.85092 14.6733 8.49625 14.4283 8.20225 14.111C7.90825 13.7937 7.68192 13.411 7.52325 12.963C7.36458 12.515 7.28525 12.011 7.28525 11.451C7.28525 10.8957 7.36458 10.394 7.52325 9.946C7.68192 9.49333 7.90825 9.10833 8.20225 8.791C8.49625 8.47367 8.85092 8.22867 9.26625 8.056C9.68625 7.88333 10.1553 7.797 10.6733 7.797ZM10.6733 14.125C11.3733 14.125 11.8959 13.8917 12.2413 13.425C12.5866 12.9537 12.7593 12.298 12.7593 11.458C12.7593 10.6133 12.5866 9.95533 12.2413 9.484C11.8959 9.01267 11.3733 8.777 10.6733 8.777C10.3186 8.777 10.0106 8.83767 9.74925 8.959C9.48792 9.08033 9.26858 9.25533 9.09125 9.484C8.91858 9.71267 8.78792 9.995 8.69925 10.331C8.61525 10.6623 8.57325 11.038 8.57325 11.458C8.57325 11.878 8.61525 12.2537 8.69925 12.585C8.78792 12.9163 8.91858 13.1963 9.09125 13.425C9.26858 13.649 9.48792 13.8217 9.74925 13.943C10.0106 14.0643 10.3186 14.125 10.6733 14.125ZM17.7315 15.112C17.1715 15.112 16.7399 14.9557 16.4365 14.643C16.1379 14.3303 15.9885 13.88 15.9885 13.292V8.952H15.1345C15.0599 8.952 14.9969 8.931 14.9455 8.889C14.8942 8.84233 14.8685 8.77233 14.8685 8.679V8.182L16.0305 8.035L16.3175 5.844C16.3269 5.774 16.3572 5.718 16.4085 5.676C16.4599 5.62933 16.5252 5.606 16.6045 5.606H17.2345V8.049H19.2645V8.952H17.2345V13.208C17.2345 13.5067 17.3069 13.7283 17.4515 13.873C17.5962 14.0177 17.7829 14.09 18.0115 14.09C18.1422 14.09 18.2542 14.0737 18.3475 14.041C18.4455 14.0037 18.5295 13.964 18.5995 13.922C18.6695 13.88 18.7279 13.8427 18.7745 13.81C18.8259 13.7727 18.8702 13.754 18.9075 13.754C18.9729 13.754 19.0312 13.7937 19.0825 13.873L19.4465 14.468C19.2319 14.6687 18.9729 14.8273 18.6695 14.944C18.3662 15.056 18.0535 15.112 17.7315 15.112ZM26.0132 15H25.4602C25.3389 15 25.2409 14.9813 25.1662 14.944C25.0915 14.9067 25.0425 14.8273 25.0192 14.706L24.8792 14.048C24.6925 14.216 24.5105 14.3677 24.3332 14.503C24.1559 14.6337 23.9692 14.7457 23.7732 14.839C23.5772 14.9277 23.3672 14.9953 23.1432 15.042C22.9239 15.0887 22.6789 15.112 22.4082 15.112C22.1329 15.112 21.8739 15.0747 21.6312 15C21.3932 14.9207 21.1855 14.804 21.0082 14.65C20.8309 14.496 20.6885 14.3023 20.5812 14.069C20.4785 13.831 20.4272 13.551 20.4272 13.229C20.4272 12.949 20.5042 12.6807 20.6582 12.424C20.8122 12.1627 21.0595 11.9317 21.4002 11.731C21.7455 11.5303 22.1959 11.367 22.7512 11.241C23.3065 11.1103 23.9855 11.0357 24.7882 11.017V10.464C24.7882 9.91333 24.6692 9.498 24.4312 9.218C24.1979 8.93333 23.8502 8.791 23.3882 8.791C23.0849 8.791 22.8282 8.83067 22.6182 8.91C22.4129 8.98467 22.2332 9.071 22.0792 9.169C21.9299 9.26233 21.7992 9.34867 21.6872 9.428C21.5799 9.50267 21.4725 9.54 21.3652 9.54C21.2812 9.54 21.2065 9.519 21.1412 9.477C21.0805 9.43033 21.0315 9.37433 20.9942 9.309L20.7702 8.91C21.1622 8.532 21.5845 8.24967 22.0372 8.063C22.4899 7.87633 22.9915 7.783 23.5422 7.783C23.9389 7.783 24.2912 7.84833 24.5992 7.979C24.9072 8.10967 25.1662 8.29167 25.3762 8.525C25.5862 8.75833 25.7449 9.04067 25.8522 9.372C25.9595 9.70333 26.0132 10.0673 26.0132 10.464V15ZM22.7792 14.237C22.9985 14.237 23.1992 14.216 23.3812 14.174C23.5632 14.1273 23.7335 14.0643 23.8922 13.985C24.0555 13.901 24.2095 13.8007 24.3542 13.684C24.5035 13.5673 24.6482 13.4343 24.7882 13.285V11.808C24.2142 11.8267 23.7265 11.8733 23.3252 11.948C22.9239 12.018 22.5972 12.1113 22.3452 12.228C22.0932 12.3447 21.9089 12.4823 21.7922 12.641C21.6802 12.7997 21.6242 12.977 21.6242 13.173C21.6242 13.3597 21.6545 13.5207 21.7152 13.656C21.7759 13.7913 21.8575 13.9033 21.9602 13.992C22.0629 14.076 22.1842 14.139 22.3242 14.181C22.4642 14.2183 22.6159 14.237 22.7792 14.237ZM29.2869 4.689V15H28.0409V4.689H29.2869ZM40.567 4.969V6.075H35.751V9.407H39.65V10.471H35.751V13.894H40.567V15H34.386V4.969H40.567ZM47.5327 15H46.9797C46.8584 15 46.7604 14.9813 46.6857 14.944C46.6111 14.9067 46.5621 14.8273 46.5387 14.706L46.3987 14.048C46.2121 14.216 46.0301 14.3677 45.8527 14.503C45.6754 14.6337 45.4887 14.7457 45.2927 14.839C45.0967 14.9277 44.8867 14.9953 44.6627 15.042C44.4434 15.0887 44.1984 15.112 43.9277 15.112C43.6524 15.112 43.3934 15.0747 43.1507 15C42.9127 14.9207 42.7051 14.804 42.5277 14.65C42.3504 14.496 42.2081 14.3023 42.1007 14.069C41.9981 13.831 41.9467 13.551 41.9467 13.229C41.9467 12.949 42.0237 12.6807 42.1777 12.424C42.3317 12.1627 42.5791 11.9317 42.9197 11.731C43.2651 11.5303 43.7154 11.367 44.2707 11.241C44.8261 11.1103 45.5051 11.0357 46.3077 11.017V10.464C46.3077 9.91333 46.1887 9.498 45.9507 9.218C45.7174 8.93333 45.3697 8.791 44.9077 8.791C44.6044 8.791 44.3477 8.83067 44.1377 8.91C43.9324 8.98467 43.7527 9.071 43.5987 9.169C43.4494 9.26233 43.3187 9.34867 43.2067 9.428C43.0994 9.50267 42.9921 9.54 42.8847 9.54C42.8007 9.54 42.7261 9.519 42.6607 9.477C42.6001 9.43033 42.5511 9.37433 42.5137 9.309L42.2897 8.91C42.6817 8.532 43.1041 8.24967 43.5567 8.063C44.0094 7.87633 44.5111 7.783 45.0617 7.783C45.4584 7.783 45.8107 7.84833 46.1187 7.979C46.4267 8.10967 46.6857 8.29167 46.8957 8.525C47.1057 8.75833 47.2644 9.04067 47.3717 9.372C47.4791 9.70333 47.5327 10.0673 47.5327 10.464V15ZM44.2987 14.237C44.5181 14.237 44.7187 14.216 44.9007 14.174C45.0827 14.1273 45.2531 14.0643 45.4117 13.985C45.5751 13.901 45.7291 13.8007 45.8737 13.684C46.0231 13.5673 46.1677 13.4343 46.3077 13.285V11.808C45.7337 11.8267 45.2461 11.8733 44.8447 11.948C44.4434 12.018 44.1167 12.1113 43.8647 12.228C43.6127 12.3447 43.4284 12.4823 43.3117 12.641C43.1997 12.7997 43.1437 12.977 43.1437 13.173C43.1437 13.3597 43.1741 13.5207 43.2347 13.656C43.2954 13.7913 43.3771 13.9033 43.4797 13.992C43.5824 14.076 43.7037 14.139 43.8437 14.181C43.9837 14.2183 44.1354 14.237 44.2987 14.237ZM49.4204 15V7.909H50.1344C50.2698 7.909 50.3631 7.93467 50.4144 7.986C50.4658 8.03733 50.5008 8.126 50.5194 8.252L50.6034 9.358C50.8461 8.86333 51.1448 8.47833 51.4994 8.203C51.8588 7.923 52.2788 7.783 52.7594 7.783C52.9554 7.783 53.1328 7.80633 53.2914 7.853C53.4501 7.895 53.5971 7.95567 53.7324 8.035L53.5714 8.966C53.5388 9.08267 53.4664 9.141 53.3544 9.141C53.2891 9.141 53.1888 9.12 53.0534 9.078C52.9181 9.03133 52.7291 9.008 52.4864 9.008C52.0524 9.008 51.6884 9.134 51.3944 9.386C51.1051 9.638 50.8624 10.0043 50.6664 10.485V15H49.4204ZM55.0669 15V7.909H55.8089C55.9863 7.909 56.0983 7.99533 56.1449 8.168L56.2429 8.938C56.5509 8.59733 56.8939 8.322 57.2719 8.112C57.6546 7.902 58.0956 7.797 58.5949 7.797C58.9823 7.797 59.3229 7.86233 59.6169 7.993C59.9156 8.119 60.1629 8.301 60.3589 8.539C60.5596 8.77233 60.7113 9.05467 60.8139 9.386C60.9166 9.71733 60.9679 10.0837 60.9679 10.485V15H59.7219V10.485C59.7219 9.94833 59.5983 9.533 59.3509 9.239C59.1083 8.94033 58.7349 8.791 58.2309 8.791C57.8623 8.791 57.5169 8.87967 57.1949 9.057C56.8776 9.23433 56.5836 9.47467 56.3129 9.778V15H55.0669ZM65.6532 7.797C66.0779 7.797 66.4699 7.86933 66.8292 8.014C67.1886 8.154 67.4989 8.35933 67.7602 8.63C68.0216 8.896 68.2246 9.22733 68.3692 9.624C68.5186 10.016 68.5932 10.464 68.5932 10.968C68.5932 11.164 68.5722 11.2947 68.5302 11.36C68.4882 11.4253 68.4089 11.458 68.2922 11.458H63.5742C63.5836 11.906 63.6442 12.2957 63.7562 12.627C63.8682 12.9583 64.0222 13.236 64.2182 13.46C64.4142 13.6793 64.6476 13.845 64.9182 13.957C65.1889 14.0643 65.4922 14.118 65.8282 14.118C66.1409 14.118 66.4092 14.083 66.6332 14.013C66.8619 13.9383 67.0579 13.859 67.2212 13.775C67.3846 13.691 67.5199 13.614 67.6272 13.544C67.7392 13.4693 67.8349 13.432 67.9142 13.432C68.0169 13.432 68.0962 13.4717 68.1522 13.551L68.5022 14.006C68.3482 14.1927 68.1639 14.356 67.9492 14.496C67.7346 14.6313 67.5036 14.7433 67.2562 14.832C67.0136 14.9207 66.7616 14.986 66.5002 15.028C66.2389 15.0747 65.9799 15.098 65.7232 15.098C65.2332 15.098 64.7806 15.0163 64.3652 14.853C63.9546 14.685 63.5976 14.4423 63.2942 14.125C62.9956 13.803 62.7622 13.4063 62.5942 12.935C62.4262 12.4637 62.3422 11.9223 62.3422 11.311C62.3422 10.8163 62.4169 10.3543 62.5662 9.925C62.7202 9.49567 62.9396 9.12467 63.2242 8.812C63.5089 8.49467 63.8566 8.24733 64.2672 8.07C64.6779 7.888 65.1399 7.797 65.6532 7.797ZM65.6812 8.714C65.0792 8.714 64.6056 8.889 64.2602 9.239C63.9149 9.58433 63.7002 10.065 63.6162 10.681H67.4732C67.4732 10.3917 67.4336 10.128 67.3542 9.89C67.2749 9.64733 67.1582 9.43967 67.0042 9.267C66.8502 9.08967 66.6612 8.95433 66.4372 8.861C66.2179 8.763 65.9659 8.714 65.6812 8.714ZM75.179 15C75.0017 15 74.8897 14.9137 74.843 14.741L74.731 13.88C74.4277 14.2487 74.08 14.545 73.688 14.769C73.3007 14.9883 72.855 15.098 72.351 15.098C71.945 15.098 71.5763 15.021 71.245 14.867C70.9137 14.7083 70.6313 14.4773 70.398 14.174C70.1647 13.8707 69.985 13.4927 69.859 13.04C69.733 12.5873 69.67 12.067 69.67 11.479C69.67 10.9563 69.74 10.471 69.88 10.023C70.02 9.57033 70.2207 9.17833 70.482 8.847C70.748 8.51567 71.07 8.25667 71.448 8.07C71.826 7.87867 72.2553 7.783 72.736 7.783C73.17 7.783 73.541 7.85767 73.849 8.007C74.157 8.15167 74.4323 8.357 74.675 8.623V4.689H75.921V15H75.179ZM72.764 14.09C73.17 14.09 73.5247 13.9967 73.828 13.81C74.136 13.6233 74.4183 13.3597 74.675 13.019V9.589C74.4463 9.281 74.1943 9.06633 73.919 8.945C73.6483 8.819 73.3473 8.756 73.016 8.756C72.3533 8.756 71.8447 8.99167 71.49 9.463C71.1353 9.93433 70.958 10.6063 70.958 11.479C70.958 11.941 70.9977 12.3377 71.077 12.669C71.1563 12.9957 71.273 13.2663 71.427 13.481C71.581 13.691 71.77 13.845 71.994 13.943C72.218 14.041 72.4747 14.09 72.764 14.09Z" fill="black" fill-opacity="0.4"/>
<path fill-rule="evenodd" clip-rule="evenodd" d="M97.4001 10.0001C97.4001 11.6975 96.7258 13.3253 95.5256 14.5256C94.3253 15.7258 92.6975 16.4001 91.0001 16.4001C89.3027 16.4001 87.6748 15.7258 86.4746 14.5256C85.2744 13.3253 84.6001 11.6975 84.6001 10.0001C84.6001 8.30271 85.2744 6.67485 86.4746 5.47461C87.6748 4.27438 89.3027 3.6001 91.0001 3.6001C92.6975 3.6001 94.3253 4.27438 95.5256 5.47461C96.7258 6.67485 97.4001 8.30271 97.4001 10.0001ZM91.8001 6.8001C91.8001 7.01227 91.7158 7.21575 91.5658 7.36578C91.4158 7.51581 91.2123 7.6001 91.0001 7.6001C90.7879 7.6001 90.5844 7.51581 90.4344 7.36578C90.2844 7.21575 90.2001 7.01227 90.2001 6.8001C90.2001 6.58792 90.2844 6.38444 90.4344 6.23441C90.5844 6.08438 90.7879 6.0001 91.0001 6.0001C91.2123 6.0001 91.4158 6.08438 91.5658 6.23441C91.7158 6.38444 91.8001 6.58792 91.8001 6.8001ZM90.2001 9.2001C90.041 9.2001 89.8884 9.26331 89.7758 9.37583C89.6633 9.48836 89.6001 9.64097 89.6001 9.8001C89.6001 9.95923 89.6633 10.1118 89.7758 10.2244C89.8884 10.3369 90.041 10.4001 90.2001 10.4001H90.4025C90.4324 10.4001 90.462 10.4068 90.4889 10.4198C90.5159 10.4327 90.5397 10.4516 90.5584 10.4749C90.5771 10.4982 90.5904 10.5255 90.5972 10.5546C90.604 10.5838 90.6042 10.6141 90.5977 10.6433L90.2305 12.2961C90.185 12.5008 90.186 12.7132 90.2335 12.9174C90.2811 13.1217 90.3739 13.3127 90.5051 13.4762C90.6364 13.6398 90.8027 13.7718 90.9918 13.8625C91.1809 13.9532 91.388 14.0002 91.5977 14.0001H91.8001C91.9592 14.0001 92.1118 13.9369 92.2244 13.8244C92.3369 13.7118 92.4001 13.5592 92.4001 13.4001C92.4001 13.241 92.3369 13.0884 92.2244 12.9758C92.1118 12.8633 91.9592 12.8001 91.8001 12.8001H91.5977C91.5678 12.8001 91.5382 12.7934 91.5112 12.7804C91.4843 12.7675 91.4605 12.7486 91.4418 12.7253C91.4231 12.7019 91.4098 12.6747 91.403 12.6456C91.3962 12.6164 91.396 12.5861 91.4025 12.5569L91.7697 10.9041C91.8152 10.6994 91.8142 10.487 91.7667 10.2828C91.7191 10.0785 91.6263 9.88754 91.4951 9.72396C91.3638 9.56038 91.1975 9.42838 91.0084 9.33771C90.8193 9.24704 90.6122 9.20001 90.4025 9.2001H90.2001Z" fill="black" fill-opacity="0.25"/>
</svg>
